<svg xmlns="http://www.w3.org/2000/svg" xmlns:xlink="http://www.w3.org/1999/xlink" width="519.171" height="560.638" viewBox="0 0 519.171 560.638">
  <defs>
    <style>
      .cls-1, .cls-2 {
        fill: none;
      }

      .cls-11, .cls-3 {
        fill: #4f4f99;
      }

      .cls-4 {
        fill: #5e5ebc;
      }

      .cls-13, .cls-5 {
        fill: #9494f7;
      }

      .cls-12, .cls-6 {
        fill: #dfe2fc;
      }

      .cls-14, .cls-18, .cls-7, .cls-9 {
        fill: #fff;
      }

      .cls-7 {
        opacity: 0.14;
      }

      .cls-8 {
        fill: #424284;
      }

      .cls-10 {
        fill: #7675e3;
      }

      .cls-11, .cls-12, .cls-13, .cls-14, .cls-15, .cls-16, .cls-17, .cls-18 {
        fill-rule: evenodd;
      }

      .cls-15 {
        fill: #fd8ebe;
      }

      .cls-16 {
        fill: #e03d93;
      }

      .cls-17 {
        fill: #ff55a6;
      }

      .cls-18 {
        opacity: 0.32;
      }

      .cls-19 {
        fill: #444230;
      }

      .cls-20 {
        fill: #0eaaa6;
      }

      .cls-21 {
        fill: #10847e;
      }

      .cls-22, .cls-23 {
        stroke: none;
      }

      .cls-23 {
        fill: #ff77b2;
      }

      .cls-24 {
        filter: url(#Path_341);
      }
    </style>
    <filter id="Path_341" x="145.498" y="336.943" width="367.902" height="223.695" filterUnits="userSpaceOnUse">
      <feOffset input="SourceAlpha"/>
      <feGaussianBlur stdDeviation="3" result="blur"/>
      <feFlood flood-color="#ff77b2"/>
      <feComposite operator="in" in2="blur"/>
      <feComposite in="SourceGraphic"/>
    </filter>
  </defs>
  <g id="Group_184" data-name="Group 184" transform="translate(-248 -270)">
    <g class="cls-24" transform="matrix(1, 0, 0, 1, 248, 270)">
      <g id="Path_341-2" data-name="Path 341" class="cls-1" transform="translate(-185 -292)">
        <path class="cls-22" d="M343.1,752.712l151.422,90.926L689.4,726.466,532.57,637.943,339.5,749.707Z"/>
        <path class="cls-23" d="M 494.5246887207031 840.13818359375 L 683.4417114257813 726.5479736328125 L 532.5884399414063 641.3988647460938 L 344.7180786132813 750.1521606445313 L 344.8463745117188 750.259033203125 L 494.5246887207031 840.13818359375 M 494.5257568359375 843.6381225585938 L 343.1034851074219 752.7117919921875 L 339.4981994628906 749.7073974609375 L 532.5696411132813 637.943359375 L 689.3997802734375 726.4661254882813 L 494.5257568359375 843.6381225585938 Z"/>
      </g>
    </g>
    <g id="Layer_2" data-name="Layer 2" transform="translate(248 269.989)">
      <g id="OBJECTS" transform="translate(0 0.011)">
        <g id="Group_89" data-name="Group 89">
          <path id="Path_256" data-name="Path 256" class="cls-2" d="M232.59,90.53C104.663,164.265,0,345.242,0,492.7c0,.564.016,1.115.019,1.676L465.172,225.538c0-.322.011-.646.011-.968C465.182,77.114,360.513,16.8,232.59,90.53Z" transform="translate(0 16.397)"/>
          <g id="Group_72" data-name="Group 72" transform="translate(144.74 123.571)">
            <g id="Group_68" data-name="Group 68">
              <path id="Path_257" data-name="Path 257" class="cls-3" d="M318.007,105.059l2.757,171.112a8.486,8.486,0,0,1-4.176,7.448l-187.8,110.69A8.486,8.486,0,0,1,116,387.134l-2.727-169.266a8.486,8.486,0,0,1,4.123-7.416L305.16,97.918a8.486,8.486,0,0,1,12.847,7.141Z" transform="translate(-113.267 -96.712)"/>
              <path id="Path_258" data-name="Path 258" class="cls-4" d="M320.949,106.695l2.758,171.112a8.486,8.486,0,0,1-4.176,7.448l-187.8,110.69a8.486,8.486,0,0,1-12.794-7.174L116.208,219.5a8.487,8.487,0,0,1,4.123-7.416L308.1,99.553a8.486,8.486,0,0,1,12.849,7.142Z" transform="translate(-112.45 -96.258)"/>
              <path id="Path_259" data-name="Path 259" class="cls-3" d="M308.344,120.555l2.362,146.61a7.272,7.272,0,0,1-3.578,6.381L138.4,373.619a7.271,7.271,0,0,1-10.962-6.147l-3.907-144.9a7.27,7.27,0,0,1,3.532-6.354L297.336,114.436a7.271,7.271,0,0,1,11.008,6.119Z" transform="translate(-110.415 -92.074)"/>
            </g>
            <g id="Group_71" data-name="Group 71" transform="translate(13.097 185.371)">
              <g id="Group_69" data-name="Group 69">
                <path id="Path_260" data-name="Path 260" class="cls-4" d="M472.587,332.475,324.738,246.294a8.487,8.487,0,0,0-8.539,0L127.737,355.846a8.486,8.486,0,0,0-.009,14.668l146.256,85.252a8.487,8.487,0,0,0,8.485.036L472.525,347.174a8.486,8.486,0,0,0,.063-14.7Z" transform="translate(-123.516 -240.839)"/>
                <path id="Path_261" data-name="Path 261" class="cls-5" d="M472.6,329.11,324.752,242.929a8.486,8.486,0,0,0-8.538-.005L127.751,352.481a8.487,8.487,0,0,0-.009,14.668L274,452.4a8.487,8.487,0,0,0,8.485.036L472.539,343.809a8.486,8.486,0,0,0,.062-14.7Z" transform="translate(-123.512 -241.774)"/>
                <path id="Path_262" data-name="Path 262" class="cls-6" d="M367.269,346.074l-47.811-27.869a2.745,2.745,0,0,0-2.761,0l-60.944,35.428a2.744,2.744,0,0,0,0,4.743l47.3,27.568a2.745,2.745,0,0,0,2.744.012l61.459-35.128a2.744,2.744,0,0,0,.02-4.753Z" transform="translate(-87.151 -220.641)"/>
              </g>
              <g id="Group_70" data-name="Group 70" transform="translate(38.484 19.683)">
                <path id="Path_263" data-name="Path 263" class="cls-4" d="M301.372,313.534l43.778-25.3a4.3,4.3,0,0,0,1.571-5.875h0a4.3,4.3,0,0,0-5.874-1.571L292.774,308.57" transform="translate(-114.968 -250.777)"/>
                <path id="Path_264" data-name="Path 264" class="cls-4" d="M318.945,303.554l-127.877,73.9a4.3,4.3,0,0,0-1.571,5.875h0a4.3,4.3,0,0,0,5.874,1.571l132.172-76.38" transform="translate(-143.826 -244.291)"/>
                <path id="Path_265" data-name="Path 265" class="cls-4" d="M293.17,307.052l43.778-25.3a4.3,4.3,0,0,0,1.571-5.875h0a4.3,4.3,0,0,0-5.874-1.571l-48.073,27.78" transform="translate(-117.247 -252.578)"/>
                <path id="Path_266" data-name="Path 266" class="cls-4" d="M310.742,297.072l-127.877,73.9a4.3,4.3,0,0,0-1.571,5.875h0a4.3,4.3,0,0,0,5.874,1.571l132.172-76.38" transform="translate(-146.105 -246.092)"/>
                <path id="Path_267" data-name="Path 267" class="cls-4" d="M284.033,301.863l43.778-25.3a4.3,4.3,0,0,0,1.571-5.876h0a4.3,4.3,0,0,0-5.874-1.571L275.435,296.9" transform="translate(-119.786 -254.02)"/>
                <path id="Path_268" data-name="Path 268" class="cls-4" d="M301.6,291.883l-127.877,73.9a4.3,4.3,0,0,0-1.571,5.875h0a4.3,4.3,0,0,0,5.874,1.571L310.2,296.848" transform="translate(-148.644 -247.534)"/>
                <path id="Path_269" data-name="Path 269" class="cls-4" d="M275.339,295.886l43.779-25.3a4.3,4.3,0,0,0,1.571-5.875h0a4.3,4.3,0,0,0-5.874-1.571l-48.074,27.781" transform="translate(-122.202 -255.681)"/>
                <path id="Path_270" data-name="Path 270" class="cls-4" d="M292.912,285.906,165.034,359.8a4.3,4.3,0,0,0-1.571,5.875h0a4.3,4.3,0,0,0,5.874,1.571l132.172-76.38" transform="translate(-151.06 -249.194)"/>
                <path id="Path_271" data-name="Path 271" class="cls-4" d="M266.086,290.5l43.779-25.3a4.3,4.3,0,0,0,1.571-5.875h0a4.3,4.3,0,0,0-5.874-1.571l-48.073,27.781" transform="translate(-124.773 -257.177)"/>
                <path id="Path_272" data-name="Path 272" class="cls-4" d="M283.658,280.52l-127.877,73.9a4.3,4.3,0,0,0-1.571,5.875h0a4.3,4.3,0,0,0,5.874,1.571l132.172-76.38" transform="translate(-153.631 -250.691)"/>
              </g>
            </g>
            <path id="Path_273" data-name="Path 273" class="cls-7" d="M316.538,242.915,128.074,352.472a8.487,8.487,0,0,0-.009,14.669l146.257,85.253a8.487,8.487,0,0,0,8.485.036l1.385-.792,38.153-209.712a8.469,8.469,0,0,0-5.807.989Z" transform="translate(-110.325 -56.402)"/>
            <path id="Path_274" data-name="Path 274" class="cls-8" d="M181.353,169.119,160.358,346l40.594-24.076L223.2,144.1Z" transform="translate(-100.182 -83.544)"/>
            <path id="Path_275" data-name="Path 275" class="cls-8" d="M233.379,134.419l-19.27,176.167,14.964-8.875,20.18-176.781" transform="translate(-85.246 -88.871)"/>
          </g>
          <g id="Group_73" data-name="Group 73" transform="translate(110.862 295.456)">
            <path id="Path_276" data-name="Path 276" class="cls-3" d="M157.5,242.742a19.882,19.882,0,0,0-5.586,5.059,27.081,27.081,0,0,0,.293-3.781c0-11.4-8.094-16.068-17.987-10.366-6.987,4.027-13.061,12.192-16.036,20.658-1.918-2.27-5.222-2.61-8.964-.454-5.893,3.4-10.714,11.733-10.714,18.526a12.6,12.6,0,0,0,.1,1.539c-.034.019-.067.033-.1.052-6.463,3.725-11.752,12.869-11.752,20.32s5.288,10.5,11.752,6.772L157.5,267.442c5.893-3.4,10.714-11.733,10.714-18.526S163.394,239.346,157.5,242.742Z" transform="translate(-86.756 -231.221)"/>
            <path id="Path_277" data-name="Path 277" class="cls-9" d="M159.484,243.88a19.886,19.886,0,0,0-5.586,5.059,27.07,27.07,0,0,0,.293-3.781c0-11.4-8.094-16.068-17.987-10.366-6.987,4.027-13.061,12.192-16.036,20.658-1.918-2.269-5.222-2.61-8.964-.453-5.893,3.4-10.714,11.733-10.714,18.526a12.628,12.628,0,0,0,.1,1.539c-.034.019-.067.032-.1.052-6.464,3.726-11.752,12.87-11.752,20.32s5.288,10.5,11.752,6.772l58.994-33.626c5.893-3.4,10.714-11.733,10.714-18.525S165.377,240.484,159.484,243.88Z" transform="translate(-86.205 -230.905)"/>
          </g>
          <g id="Group_74" data-name="Group 74" transform="translate(51.376 262.615)">
            <path id="Path_278" data-name="Path 278" class="cls-3" d="M110.95,217.042a19.883,19.883,0,0,0-5.586,5.059,27.083,27.083,0,0,0,.293-3.781c0-11.4-8.094-16.068-17.987-10.366-6.987,4.027-13.061,12.192-16.036,20.658-1.918-2.27-5.222-2.61-8.964-.454-5.893,3.4-10.714,11.733-10.714,18.526a12.6,12.6,0,0,0,.1,1.539c-.034.019-.067.033-.1.052C45.493,252,40.2,261.146,40.2,268.6s5.288,10.5,11.752,6.772l58.994-33.626c5.893-3.4,10.714-11.733,10.714-18.526S116.843,213.646,110.95,217.042Z" transform="translate(-40.204 -205.521)"/>
            <path id="Path_279" data-name="Path 279" class="cls-9" d="M112.933,218.18a19.885,19.885,0,0,0-5.586,5.059,27.065,27.065,0,0,0,.293-3.781c0-11.4-8.094-16.068-17.987-10.366-6.987,4.027-13.061,12.192-16.036,20.658-1.918-2.27-5.222-2.61-8.964-.453-5.893,3.4-10.714,11.733-10.714,18.526a12.623,12.623,0,0,0,.1,1.539c-.034.019-.067.032-.1.052-6.464,3.726-11.752,12.87-11.752,20.32s5.288,10.5,11.752,6.772l58.994-33.626c5.893-3.4,10.714-11.733,10.714-18.525S118.826,214.784,112.933,218.18Z" transform="translate(-39.653 -205.205)"/>
          </g>
          <g id="Group_75" data-name="Group 75" transform="translate(87.821 178.744)">
            <path id="Path_280" data-name="Path 280" class="cls-3" d="M118.365,156.992a14.445,14.445,0,0,0-3.626-6.9l7.289-3.435-4.185-2.146-5.977-2.317-2.673,4.869a14.943,14.943,0,0,0-7.266.494l4.185-5.523-4.185-2.146-8,4.609v7.141a44.455,44.455,0,0,0-9.244,9.2L83.3,158.6l-4.185-2.146-3.971,6.516,5.406,4.2a49.762,49.762,0,0,0-5.522,14.8l-6.3,3.632v8.921l5.786-3.335c.476,4.659,2.178,8.2,4.74,10.42l-2.745,5,4.185,2.146,1.553-.237,2.442-4.391a16.592,16.592,0,0,0,9.245-1.456v6.346l4.185,2.146,3.811-6.755v-6.873A47.327,47.327,0,0,0,109.3,189.5l4.54,3.526,4.185,2.146-1.275-9.132-3.533-2.777a47.008,47.008,0,0,0,5.662-17.648l4.014-2.314,4.185-6.775-4.185-2.146ZM96.924,189.553c-6.288,3.624-11.432.659-11.432-6.588s5.144-16.143,11.432-19.767,11.432-.66,11.432,6.588-5.144,16.144-11.432,19.768Z" transform="translate(-68.725 -139.888)"/>
            <path id="Path_281" data-name="Path 281" class="cls-5" d="M121.64,158.672a14.444,14.444,0,0,0-3.626-6.9l3.1-5.58-5.977-2.317-2.672,4.869a14.945,14.945,0,0,0-7.266.494v-7.669l-8,4.609v7.141a44.464,44.464,0,0,0-9.244,9.2l-5.574-4.382-3.971,6.516,5.406,4.2a49.762,49.762,0,0,0-5.522,14.8L72,187.285v8.921l5.786-3.335c.476,4.659,2.178,8.2,4.74,10.42l-2.745,5,5.738,1.909,2.442-4.391a16.593,16.593,0,0,0,9.245-1.456V210.7l8-4.609v-6.873a47.329,47.329,0,0,0,7.372-8.035l4.539,3.526,2.911-6.987-3.533-2.777a47,47,0,0,0,5.662-17.648l4.014-2.314v-8.921ZM100.2,191.233c-6.288,3.624-11.432.659-11.432-6.588S93.911,168.5,100.2,164.878s11.432-.659,11.432,6.588-5.144,16.142-11.431,19.766Z" transform="translate(-67.815 -139.421)"/>
            <path id="Path_282" data-name="Path 282" class="cls-10" d="M68.725,175.664l4.185,2.146v8.921l-4.185-2.146Z" transform="translate(-68.725 -129.947)"/>
          </g>
          <g id="Group_76" data-name="Group 76" transform="translate(151.316 94.801)">
            <path id="Path_283" data-name="Path 283" class="cls-3" d="M188.177,98.237a20.3,20.3,0,0,0-5.1-9.7l10.244-4.827L187.443,80.7l-8.4-3.256-3.756,6.842a21,21,0,0,0-10.211.694l5.882-7.762L165.076,74.2l-11.238,6.477V90.711a62.48,62.48,0,0,0-12.992,12.93l-1.953-3.143-5.882-3.016-5.58,9.158,7.6,5.9a69.939,69.939,0,0,0-7.76,20.8l-8.856,5.1v12.537l8.132-4.687c.669,6.549,3.061,11.518,6.661,14.644l-3.858,7.029,5.882,3.016,2.183-.333,3.432-6.171a23.317,23.317,0,0,0,12.993-2.046v8.918l5.882,3.016,5.356-9.493v-9.66a66.515,66.515,0,0,0,10.361-11.293l6.38,4.955L187.7,151.9l-1.791-12.834-4.965-3.9a66.063,66.063,0,0,0,7.958-24.8l5.642-3.252,5.882-9.521-5.882-3.016ZM158.045,144c-8.837,5.093-16.067.927-16.067-9.259s7.23-22.687,16.067-27.78,16.067-.927,16.067,9.259S166.881,138.9,158.045,144Z" transform="translate(-118.413 -74.198)"/>
            <path id="Path_284" data-name="Path 284" class="cls-5" d="M192.78,100.6a20.3,20.3,0,0,0-5.1-9.7l4.362-7.843-8.4-3.256-3.756,6.842a21,21,0,0,0-10.211.694V76.558l-11.238,6.478V93.071A62.489,62.489,0,0,0,145.449,106l-7.834-6.158L132.034,109l7.6,5.9a69.929,69.929,0,0,0-7.76,20.8l-8.856,5.1v12.537l8.132-4.687c.669,6.549,3.061,11.518,6.661,14.644l-3.859,7.029,8.065,2.683,3.432-6.171a23.321,23.321,0,0,0,12.993-2.046v8.918l11.238-6.477v-9.66a66.52,66.52,0,0,0,10.361-11.293l6.38,4.955,4.091-9.819-4.965-3.9a66.056,66.056,0,0,0,7.958-24.8l5.642-3.252V96.928Zm-30.133,45.761c-8.837,5.093-16.067.927-16.067-9.259s7.23-22.687,16.067-27.78,16.067-.927,16.067,9.259-7.229,22.687-16.066,27.781Z" transform="translate(-117.134 -73.542)"/>
            <path id="Path_285" data-name="Path 285" class="cls-10" d="M118.413,124.478l5.882,3.014V140.03l-5.882-3.014Z" transform="translate(-118.413 -60.227)"/>
          </g>
          <g id="Group_82" data-name="Group 82" transform="translate(256.647)">
            <path id="Path_286" data-name="Path 286" class="cls-11" d="M200.84,111.3V307.424a9.046,9.046,0,0,0,13.564,7.838l177.39-102.238a9.047,9.047,0,0,0,4.529-7.838V9.057a9.046,9.046,0,0,0-13.563-7.838L205.369,103.462a9.046,9.046,0,0,0-4.529,7.838Z" transform="translate(-200.84 -0.011)"/>
            <path id="Path_287" data-name="Path 287" class="cls-12" d="M206.3,114.446V309.352a9.046,9.046,0,0,0,13.564,7.838l177.39-102.238a9.046,9.046,0,0,0,4.529-7.838V12.2a9.046,9.046,0,0,0-13.564-7.838L210.832,106.608a9.046,9.046,0,0,0-4.529,7.838Z" transform="translate(-199.322 0.863)"/>
            <path id="Path_288" data-name="Path 288" class="cls-13" d="M257.487,85.575v56.4a3.107,3.107,0,0,0,4.658,2.692l60.927-35.115a3.108,3.108,0,0,0,1.556-2.692v-56.4a3.107,3.107,0,0,0-4.659-2.692L259.043,82.883a3.107,3.107,0,0,0-1.556,2.692Z" transform="translate(-185.1 13.143)"/>
            <path id="Path_289" data-name="Path 289" class="cls-14" d="M226.221,195.967h0a4.053,4.053,0,0,0,6.076,3.511l146.084-84.2a4.053,4.053,0,0,0,2.029-3.511h0a4.053,4.053,0,0,0-6.076-3.511l-146.084,84.2a4.052,4.052,0,0,0-2.029,3.511Z" transform="translate(-193.787 29.918)"/>
            <path id="Path_290" data-name="Path 290" class="cls-14" d="M226.221,211.231h0a4.053,4.053,0,0,0,6.076,3.511l146.084-84.2a4.053,4.053,0,0,0,2.029-3.511h0a4.053,4.053,0,0,0-6.076-3.511L228.25,207.72a4.052,4.052,0,0,0-2.029,3.511Z" transform="translate(-193.787 34.159)"/>
            <path id="Path_291" data-name="Path 291" class="cls-14" d="M226.221,226.5h0a4.052,4.052,0,0,0,6.076,3.511l146.084-84.2a4.053,4.053,0,0,0,2.029-3.511h0a4.052,4.052,0,0,0-6.076-3.511l-146.084,84.2a4.052,4.052,0,0,0-2.029,3.511Z" transform="translate(-193.787 38.4)"/>
            <g id="Group_77" data-name="Group 77" transform="translate(88.623 88.665)">
              <path id="Path_292" data-name="Path 292" class="cls-3" d="M285.107,91.062c-4.882,2.814-8.877.512-8.877-5.116A19.654,19.654,0,0,1,285.107,70.6c4.882-2.814,8.877-.512,8.877,5.116A19.654,19.654,0,0,1,285.107,91.062Z" transform="translate(-268.514 -69.396)"/>
              <path id="Path_293" data-name="Path 293" class="cls-11" d="M270.192,113.738v2.881a2.609,2.609,0,0,0,3.911,2.26l31.6-18.213a2.609,2.609,0,0,0,1.306-2.26h0a11.739,11.739,0,0,0-17.6-10.171l-6.715,3.87A24.968,24.968,0,0,0,270.192,113.738Z" transform="translate(-270.192 -64.597)"/>
            </g>
            <g id="Group_78" data-name="Group 78" transform="translate(71.667 131.014)">
              <path id="Path_294" data-name="Path 294" class="cls-3" d="M260.754,146.292a10.213,10.213,0,0,1-.035-1.059v-2.2c0-.64-.1-1.038-.293-1.2s-.513-.11-.95.145l-.655.383v5.7l-1.9,1.11V135.177l2.864-1.675q1.467-.858,2.141-.462t.671,2.036v1.1a5.181,5.181,0,0,1-1.242,3.565.884.884,0,0,1,.966.5,3.983,3.983,0,0,1,.293,1.738v2.159q0,.6.036.948a1.758,1.758,0,0,0,.172.63l-1.934,1.13A2.524,2.524,0,0,1,260.754,146.292Zm-1.933-5.928.742-.434a2.256,2.256,0,0,0,.854-.839,2.646,2.646,0,0,0,.285-1.305v-1.38a1.348,1.348,0,0,0-.232-.963q-.234-.2-.734.089l-.915.535Z" transform="translate(-256.923 -94.095)"/>
              <path id="Path_295" data-name="Path 295" class="cls-3" d="M269.558,133.855v2l-2.606,1.524v4.1l3.28-1.917v2l-5.179,3.026V130.59l5.179-3.026v2l-3.28,1.917v3.9Z" transform="translate(-254.664 -95.582)"/>
              <path id="Path_296" data-name="Path 296" class="cls-3" d="M278.265,128.911v4.439a6.236,6.236,0,0,1-.725,3.032,5.477,5.477,0,0,1-2.105,2.14q-1.381.808-2.105.321t-.725-2.185V129.38a6.25,6.25,0,0,1,.725-3.032,5.492,5.492,0,0,1,2.105-2.14q1.381-.807,2.105-.322t.725,2.186v1.36l-1.794,1.049v-1.5q0-1.38-.983-.8a2.075,2.075,0,0,0-.983,1.954v7.557q0,1.359.983.784a2.058,2.058,0,0,0,.983-1.934v-2.579l-.862.5v-2Z" transform="translate(-252.566 -96.655)"/>
              <path id="Path_297" data-name="Path 297" class="cls-3" d="M282.592,119.922v13.994l-1.9,1.109V121.031Z" transform="translate(-250.318 -97.706)"/>
              <path id="Path_298" data-name="Path 298" class="cls-3" d="M286.491,118.656a5.4,5.4,0,0,1,2.089-2.13q1.38-.807,2.088-.312t.708,2.2v.441l-1.794,1.049v-.58c0-.48-.081-.782-.241-.908s-.4-.1-.708.084a1.8,1.8,0,0,0-.709.743,2.6,2.6,0,0,0-.241,1.191,1.824,1.824,0,0,0,.406,1.3,3.888,3.888,0,0,0,1.217.787,7.05,7.05,0,0,1,1.087.634,2.436,2.436,0,0,1,.708.917,3.722,3.722,0,0,1,.293,1.608,6.239,6.239,0,0,1-.725,3.032,5.477,5.477,0,0,1-2.105,2.14q-1.381.808-2.105.321t-.725-2.184v-.86l1.8-1.05v1q0,1.359.983.784a2.058,2.058,0,0,0,.983-1.934,1.828,1.828,0,0,0-.406-1.3,3.914,3.914,0,0,0-1.217-.787,6.791,6.791,0,0,1-1.087-.635,2.4,2.4,0,0,1-.708-.915,3.725,3.725,0,0,1-.293-1.608,6.312,6.312,0,0,1,.706-3.022Z" transform="translate(-248.918 -98.788)"/>
              <path id="Path_299" data-name="Path 299" class="cls-3" d="M299.15,110.748v2l-1.984,1.16V125.9l-1.9,1.11V115.017l-1.985,1.16v-2Z" transform="translate(-246.82 -100.255)"/>
              <path id="Path_300" data-name="Path 300" class="cls-3" d="M305.729,112.712v2l-2.607,1.524v4.1l3.28-1.917v2l-5.178,3.027V109.448l5.178-3.027v2l-3.28,1.917v3.9Z" transform="translate(-244.613 -101.457)"/>
              <path id="Path_301" data-name="Path 301" class="cls-3" d="M312.726,115.913c-.022-.187-.034-.539-.034-1.059v-2.2c0-.64-.1-1.038-.293-1.2s-.512-.111-.95.144l-.655.383v5.7l-1.9,1.11V104.8l2.865-1.675q1.468-.857,2.141-.461t.671,2.035v1.1a5.183,5.183,0,0,1-1.242,3.565.883.883,0,0,1,.966.5,3.986,3.986,0,0,1,.293,1.738v2.159q0,.6.036.948a1.759,1.759,0,0,0,.172.63l-1.934,1.131a2.531,2.531,0,0,1-.139-.559Zm-1.932-5.928.742-.434a2.259,2.259,0,0,0,.854-.839,2.65,2.65,0,0,0,.285-1.306v-1.381a1.348,1.348,0,0,0-.232-.963q-.234-.2-.734.09l-.915.534Z" transform="translate(-242.482 -102.537)"/>
            </g>
            <g id="Group_79" data-name="Group 79" transform="translate(44.533 207.268)">
              <path id="Path_302" data-name="Path 302" class="cls-5" d="M238.549,171.1c.262.147.394.5.394,1.074v2.375l-.478.279V172.5c0-.426-.091-.7-.276-.812s-.446-.074-.786.125a2.428,2.428,0,0,0-.9.922,2.552,2.552,0,0,0-.333,1.28v2.149l-.477.278v-4.094l.457-.267v.755a3.23,3.23,0,0,1,.542-.9,3.069,3.069,0,0,1,.8-.675A1.078,1.078,0,0,1,238.549,171.1Z" transform="translate(-235.69 -159.759)"/>
              <path id="Path_303" data-name="Path 303" class="cls-5" d="M242.665,168.619c.247.123.369.447.369.971v2.538l-.457.267v-.639a2.641,2.641,0,0,1-.474.776,2.915,2.915,0,0,1-.743.613,1.187,1.187,0,0,1-.941.223q-.35-.122-.349-.66a1.893,1.893,0,0,1,.327-1.032,2.975,2.975,0,0,1,1.037-.926l1.123-.656v-.248c0-.353-.086-.572-.256-.657s-.419-.031-.745.16a3.231,3.231,0,0,0-.646.5,3.831,3.831,0,0,0-.53.665l-.216-.286a4.308,4.308,0,0,1,.645-.787,4.165,4.165,0,0,1,.794-.607Q242.3,168.433,242.665,168.619Zm-.538,3.428a2.625,2.625,0,0,0,.431-.87v-.669l-1.109.648a1.5,1.5,0,0,0-.907,1.262c0,.24.079.381.236.428a.914.914,0,0,0,.658-.179,2.317,2.317,0,0,0,.693-.62Z" transform="translate(-234.472 -160.444)"/>
              <path id="Path_304" data-name="Path 304" class="cls-5" d="M249.911,164.784c.253.147.379.51.379,1.086v2.375l-.477.279V166.2q0-.638-.266-.818t-.749.1a2.293,2.293,0,0,0-.867.9,2.6,2.6,0,0,0-.314,1.27v2.149l-.478.279v-2.32c0-.426-.09-.7-.266-.817s-.429-.085-.756.107a2.292,2.292,0,0,0-.864.9,2.587,2.587,0,0,0-.319,1.272v2.149l-.477.278V167.56l.457-.266v.748a3.074,3.074,0,0,1,.524-.883,2.969,2.969,0,0,1,.772-.655,1.367,1.367,0,0,1,.77-.232.577.577,0,0,1,.487.362,3.363,3.363,0,0,1,.562-.962,3.126,3.126,0,0,1,.837-.719Q249.533,164.563,249.911,164.784Z" transform="translate(-233.253 -161.516)"/>
              <path id="Path_305" data-name="Path 305" class="cls-5" d="M254.256,163.712,251.3,165.44a.828.828,0,0,0,.423.784,1.072,1.072,0,0,0,.968-.173,2.628,2.628,0,0,0,.605-.49,3.182,3.182,0,0,0,.477-.679l.268.2a3.628,3.628,0,0,1-.588.842,3.453,3.453,0,0,1-.776.625,1.775,1.775,0,0,1-.963.3.817.817,0,0,1-.656-.36,1.624,1.624,0,0,1-.235-.937,3.455,3.455,0,0,1,.225-1.206,3.983,3.983,0,0,1,.619-1.1,3.144,3.144,0,0,1,.884-.781,1.486,1.486,0,0,1,.88-.25.783.783,0,0,1,.611.377,1.728,1.728,0,0,1,.222.948Zm-2.564.1a2.74,2.74,0,0,0-.393,1.214l2.507-1.465a.847.847,0,0,0-.393-.755.892.892,0,0,0-.864.127,2.431,2.431,0,0,0-.858.878Z" transform="translate(-231.486 -162.209)"/>
            </g>
            <g id="Group_80" data-name="Group 80" transform="translate(44.174 222.266)">
              <path id="Path_306" data-name="Path 306" class="cls-5" d="M238.847,188.173l-2.958,1.729a.826.826,0,0,0,.423.783,1.07,1.07,0,0,0,.967-.172,2.642,2.642,0,0,0,.606-.49,3.231,3.231,0,0,0,.477-.68l.268.2a3.628,3.628,0,0,1-.588.842,3.482,3.482,0,0,1-.776.625,1.771,1.771,0,0,1-.965.3.815.815,0,0,1-.655-.36,1.613,1.613,0,0,1-.236-.937,3.458,3.458,0,0,1,.226-1.206,4.008,4.008,0,0,1,.618-1.1,3.182,3.182,0,0,1,.884-.781,1.5,1.5,0,0,1,.881-.25.783.783,0,0,1,.612.378,1.74,1.74,0,0,1,.222.948Zm-2.564.1a2.74,2.74,0,0,0-.393,1.215l2.507-1.466a.845.845,0,0,0-.393-.754.894.894,0,0,0-.865.127,2.438,2.438,0,0,0-.856.88Z" transform="translate(-235.408 -170.41)"/>
              <path id="Path_307" data-name="Path 307" class="cls-5" d="M239.766,186.724l1.761-1.03v.483l-1.761,1.03Z" transform="translate(-234.198 -170.681)"/>
              <path id="Path_308" data-name="Path 308" class="cls-5" d="M248.486,181.071c.252.148.378.511.378,1.086v2.375l-.477.279v-2.32q0-.638-.265-.819t-.75.1a2.291,2.291,0,0,0-.867.9,2.6,2.6,0,0,0-.316,1.27V186.1l-.477.279v-2.32c0-.426-.09-.7-.266-.818s-.429-.084-.756.108a2.3,2.3,0,0,0-.864.9,2.591,2.591,0,0,0-.319,1.273v2.149l-.477.278v-4.094l.457-.267v.748a3.08,3.08,0,0,1,.524-.882,2.955,2.955,0,0,1,.774-.655,1.357,1.357,0,0,1,.769-.233.58.58,0,0,1,.487.362,3.372,3.372,0,0,1,.562-.962,3.137,3.137,0,0,1,.837-.719Q248.107,180.85,248.486,181.071Z" transform="translate(-233.29 -171.988)"/>
              <path id="Path_309" data-name="Path 309" class="cls-5" d="M252.027,178.6q.369.184.369.971v2.538l-.457.267v-.639a2.686,2.686,0,0,1-.474.776,2.938,2.938,0,0,1-.742.613,1.189,1.189,0,0,1-.942.223q-.348-.122-.348-.66a1.9,1.9,0,0,1,.326-1.032,2.992,2.992,0,0,1,1.038-.926l1.122-.656v-.248q0-.53-.255-.656c-.171-.085-.419-.031-.746.16a3.24,3.24,0,0,0-.645.5,3.747,3.747,0,0,0-.53.664l-.216-.286a4.331,4.331,0,0,1,.645-.787,4.17,4.17,0,0,1,.792-.606C251.428,178.551,251.781,178.478,252.027,178.6Zm-.538,3.428a2.646,2.646,0,0,0,.429-.87v-.669l-1.108.648a1.5,1.5,0,0,0-.907,1.262c0,.24.077.381.235.428a.917.917,0,0,0,.659-.179,2.331,2.331,0,0,0,.693-.62Z" transform="translate(-231.512 -172.668)"/>
              <path id="Path_310" data-name="Path 310" class="cls-5" d="M253.836,176.322a.236.236,0,0,1-.1-.222.664.664,0,0,1,.1-.331.68.68,0,0,1,.248-.263.246.246,0,0,1,.248-.032.217.217,0,0,1,.1.21.773.773,0,0,1-.351.609.246.246,0,0,1-.248.029Zm.007,1.008.475-.278v4.094l-.475.278Z" transform="translate(-230.316 -173.527)"/>
              <path id="Path_311" data-name="Path 311" class="cls-5" d="M256.286,174.225l.475-.279v5.777l-.475.279Z" transform="translate(-229.607 -173.946)"/>
            </g>
            <g id="Group_81" data-name="Group 81" transform="translate(46.149 232.88)">
              <path id="Path_312" data-name="Path 312" class="cls-5" d="M239.676,200.924a.781.781,0,0,1,.631.366,1.69,1.69,0,0,1,.23.948,3.468,3.468,0,0,1-.23,1.225,3.943,3.943,0,0,1-.628,1.1,3.294,3.294,0,0,1-.9.789,1.533,1.533,0,0,1-.775.248.715.715,0,0,1-.569-.271v2.281l-.477.278v-5.6l.457-.267v.809a3.627,3.627,0,0,1,.568-.955,3.029,3.029,0,0,1,.8-.683A1.612,1.612,0,0,1,239.676,200.924Zm-.262,3.368a2.956,2.956,0,0,0,.474-.841,2.679,2.679,0,0,0,.171-.934,1.317,1.317,0,0,0-.171-.728.605.605,0,0,0-.474-.287,1.157,1.157,0,0,0-.673.19,2.439,2.439,0,0,0-.675.6,3.028,3.028,0,0,0-.47.839,2.643,2.643,0,0,0-.171.929,1.341,1.341,0,0,0,.171.733.592.592,0,0,0,.47.289,1.175,1.175,0,0,0,.675-.2,2.454,2.454,0,0,0,.673-.592Z" transform="translate(-236.954 -177.064)"/>
              <path id="Path_313" data-name="Path 313" class="cls-5" d="M243.919,198.549q.369.184.369.971v2.538l-.457.267v-.639a2.694,2.694,0,0,1-.474.776,2.938,2.938,0,0,1-.743.613,1.187,1.187,0,0,1-.941.223q-.35-.122-.349-.66a1.9,1.9,0,0,1,.326-1.032,2.992,2.992,0,0,1,1.038-.926l1.122-.656v-.248q0-.53-.255-.656c-.171-.085-.419-.031-.746.16a3.24,3.24,0,0,0-.645.5,3.743,3.743,0,0,0-.53.664l-.216-.286a4.333,4.333,0,0,1,.645-.787,4.137,4.137,0,0,1,.794-.606Q243.55,198.365,243.919,198.549Zm-.538,3.428a2.647,2.647,0,0,0,.429-.87v-.669l-1.108.648a1.5,1.5,0,0,0-.907,1.262c0,.24.077.381.235.428a.917.917,0,0,0,.659-.179,2.332,2.332,0,0,0,.693-.62Z" transform="translate(-235.74 -177.739)"/>
              <path id="Path_314" data-name="Path 314" class="cls-5" d="M245.943,201a1.091,1.091,0,0,1-.615,0l.216-.563a1.08,1.08,0,0,0,.558,0,2.271,2.271,0,0,0,.7-.28,2.368,2.368,0,0,0,.716-.593,1.043,1.043,0,0,0,.232-.63c0-.151-.044-.243-.128-.28a.514.514,0,0,0-.322-.006,4.655,4.655,0,0,0-.517.173,5.34,5.34,0,0,1-.693.214.561.561,0,0,1-.448-.069.622.622,0,0,1-.183-.538,1.876,1.876,0,0,1,.369-1.056,3.11,3.11,0,0,1,1.027-.927,2.915,2.915,0,0,1,.686-.3,1.3,1.3,0,0,1,.565-.054l-.21.567a1.483,1.483,0,0,0-1.042.258,2.17,2.17,0,0,0-.688.59,1.069,1.069,0,0,0-.232.626c0,.156.044.255.131.3a.475.475,0,0,0,.326.017,5.125,5.125,0,0,0,.538-.178,5.665,5.665,0,0,1,.679-.21.554.554,0,0,1,.437.063c.121.08.182.252.182.517a1.851,1.851,0,0,1-.388,1.079,3.382,3.382,0,0,1-1.072.941,2.82,2.82,0,0,1-.822.338Z" transform="translate(-234.627 -178.407)"/>
              <path id="Path_315" data-name="Path 315" class="cls-5" d="M249.567,198.886a1.09,1.09,0,0,1-.615,0l.215-.563a1.085,1.085,0,0,0,.559,0,2.284,2.284,0,0,0,.7-.28,2.359,2.359,0,0,0,.716-.593,1.043,1.043,0,0,0,.232-.63c0-.151-.044-.243-.129-.28a.514.514,0,0,0-.322-.006,4.621,4.621,0,0,0-.517.173,5.289,5.289,0,0,1-.694.214.558.558,0,0,1-.447-.069.622.622,0,0,1-.183-.538,1.873,1.873,0,0,1,.369-1.056,3.106,3.106,0,0,1,1.027-.928,2.917,2.917,0,0,1,.686-.3,1.3,1.3,0,0,1,.565-.054l-.21.567a1.483,1.483,0,0,0-1.042.258,2.17,2.17,0,0,0-.688.59,1.07,1.07,0,0,0-.232.626c0,.156.044.255.13.3a.483.483,0,0,0,.327.016,5.11,5.11,0,0,0,.538-.178,5.665,5.665,0,0,1,.679-.21.551.551,0,0,1,.436.064c.122.08.182.251.182.516a1.849,1.849,0,0,1-.387,1.079,3.389,3.389,0,0,1-1.072.942,2.855,2.855,0,0,1-.822.338Z" transform="translate(-233.62 -178.995)"/>
              <path id="Path_316" data-name="Path 316" class="cls-5" d="M258.227,190.292l-1.338,4.876-.451.263-1.114-2.7-1.117,4.008-.449.263-1.332-3.316.457-.267,1.109,2.831,1.137-4.143.409-.24,1.128,2.819,1.123-4.135Z" transform="translate(-232.655 -180.018)"/>
              <path id="Path_317" data-name="Path 317" class="cls-5" d="M259.1,193.2a.823.823,0,0,1-.645-.367,1.624,1.624,0,0,1-.235-.937,3.379,3.379,0,0,1,.235-1.212,4.084,4.084,0,0,1,.645-1.116,3.373,3.373,0,0,1,.921-.8,1.647,1.647,0,0,1,.92-.273.8.8,0,0,1,.643.363,1.647,1.647,0,0,1,.232.939,3.38,3.38,0,0,1-.232,1.21,4.035,4.035,0,0,1-.643,1.119,3.363,3.363,0,0,1-.92.806,1.642,1.642,0,0,1-.921.27Zm1.6-1.354a2.89,2.89,0,0,0,.467-.837,2.72,2.72,0,0,0,.168-.932,1.369,1.369,0,0,0-.168-.734.579.579,0,0,0-.467-.291,1.178,1.178,0,0,0-.675.2,2.462,2.462,0,0,0-.675.593,2.949,2.949,0,0,0-.47.839,2.675,2.675,0,0,0-.172.933,1.34,1.34,0,0,0,.172.733.59.59,0,0,0,.471.289,1.174,1.174,0,0,0,.675-.2,2.446,2.446,0,0,0,.675-.594Z" transform="translate(-231.045 -180.517)"/>
              <path id="Path_318" data-name="Path 318" class="cls-5" d="M263.81,186.7a3.038,3.038,0,0,1,.822-.691v.537l-.114.059a2.293,2.293,0,0,0-.874.907,2.677,2.677,0,0,0-.317,1.3V190.9l-.477.278v-4.094l.457-.267v.8A2.814,2.814,0,0,1,263.81,186.7Z" transform="translate(-229.758 -181.207)"/>
              <path id="Path_319" data-name="Path 319" class="cls-5" d="M269.249,182.252v5.777l-.457.267v-.81a3.577,3.577,0,0,1-.568.963,3.026,3.026,0,0,1-.8.683,1.584,1.584,0,0,1-.9.262.793.793,0,0,1-.631-.371,1.7,1.7,0,0,1-.228-.948,3.47,3.47,0,0,1,.228-1.215,3.941,3.941,0,0,1,.631-1.1,3.326,3.326,0,0,1,.9-.787,1.547,1.547,0,0,1,.776-.248.711.711,0,0,1,.568.272v-2.461Zm-1.113,5.777a2.958,2.958,0,0,0,.47-.839,2.679,2.679,0,0,0,.172-.933,1.338,1.338,0,0,0-.172-.733.588.588,0,0,0-.47-.289,1.164,1.164,0,0,0-.668.192,2.457,2.457,0,0,0-.676.593,2.993,2.993,0,0,0-.47.839,2.7,2.7,0,0,0-.171.932,1.354,1.354,0,0,0,.171.734.6.6,0,0,0,.47.289,1.184,1.184,0,0,0,.676-.2,2.429,2.429,0,0,0,.668-.588Z" transform="translate(-228.977 -182.252)"/>
            </g>
          </g>
          <g id="Group_86" data-name="Group 86" transform="translate(401.388 169.619)">
            <g id="Group_83" data-name="Group 83">
              <path id="Path_320" data-name="Path 320" class="cls-15" d="M318.212,180.58v46.631l78.669-45.34V135.24Z" transform="translate(-312.968 -132.054)"/>
              <path id="Path_321" data-name="Path 321" class="cls-16" d="M319.352,171.413l-5.244-3.183v46.629l5.244,3.184Z" transform="translate(-314.108 -122.887)"/>
              <path id="Path_322" data-name="Path 322" class="cls-17" d="M398.022,135.933l-78.669,45.34-5.244-3.183,78.669-45.343Z" transform="translate(-314.108 -132.747)"/>
            </g>
            <g id="Group_84" data-name="Group 84" transform="translate(56.106 44.011)">
              <path id="Path_323" data-name="Path 323" class="cls-3" d="M418.659,203.444v21.875l-4.745,2.735-37.955-27.344v10.937l-4.743,2.735-9.489-32.814,9.489-11.644,4.745-2.735v11.644Z" transform="translate(-356.983 -167.188)"/>
              <path id="Path_324" data-name="Path 324" class="cls-9" d="M414.946,205.584v21.875l-42.7-24.609v10.937l-14.233-30.08,14.233-14.379v11.644Z" transform="translate(-358.014 -166.593)"/>
            </g>
            <g id="Group_85" data-name="Group 85" transform="translate(14.057 21.68)">
              <path id="Path_325" data-name="Path 325" class="cls-9" d="M325.983,180.047a6.205,6.205,0,0,1,2.4-2.453q1.591-.93,2.4-.358t.815,2.528v.507l-2.067,1.208v-.668c0-.553-.092-.9-.278-1.046s-.458-.113-.815.1a2.068,2.068,0,0,0-.815.857,2.994,2.994,0,0,0-.278,1.37,2.1,2.1,0,0,0,.467,1.5,4.5,4.5,0,0,0,1.4.908,8.007,8.007,0,0,1,1.253.73,2.8,2.8,0,0,1,.814,1.055,4.285,4.285,0,0,1,.338,1.851,7.176,7.176,0,0,1-.835,3.492,6.319,6.319,0,0,1-2.423,2.465q-1.591.929-2.426.369t-.835-2.516v-.99l2.068-1.209v1.151q0,1.565,1.132.9a2.369,2.369,0,0,0,1.134-2.227,2.1,2.1,0,0,0-.468-1.5,4.49,4.49,0,0,0-1.4-.908,7.9,7.9,0,0,1-1.253-.73,2.768,2.768,0,0,1-.815-1.055,4.288,4.288,0,0,1-.337-1.852,7.27,7.27,0,0,1,.814-3.48Z" transform="translate(-325.108 -142.126)"/>
              <path id="Path_326" data-name="Path 326" class="cls-9" d="M336.409,185.767q0,1.567,1.132.9a2.373,2.373,0,0,0,1.133-2.229v-12.43l2.067-1.207v12.27a7.2,7.2,0,0,1-.835,3.493,6.32,6.32,0,0,1-2.423,2.464q-1.591.929-2.426.371t-.834-2.518v-12.27l2.186-1.278Z" transform="translate(-322.576 -143.852)"/>
              <path id="Path_327" data-name="Path 327" class="cls-9" d="M349.365,166.41q.775.457.775,2.343v.575a6.873,6.873,0,0,1-.348,2.252,5.325,5.325,0,0,1-1.063,1.819q1.629-.215,1.63,2.5v1.313a6.381,6.381,0,0,1-3.318,5.761l-3.438,2.01V168.869l3.3-1.929Q348.588,165.954,349.365,166.41Zm-3.578,7.741.855-.5a2.6,2.6,0,0,0,.983-.966,3.054,3.054,0,0,0,.328-1.5v-.9a1.552,1.552,0,0,0-.267-1.109c-.18-.157-.462-.121-.845.1l-1.055.616Zm0,7.252,1.253-.732a2.184,2.184,0,0,0,.854-.856,2.958,2.958,0,0,0,.279-1.4v-1.4q0-1.1-.329-1.339t-1.082.208l-.975.569Z" transform="translate(-319.97 -145.113)"/>
              <path id="Path_328" data-name="Path 328" class="cls-9" d="M359.151,160.382l3.041-1.778v16.114l-2.068,1.209V164.371l-1.51,12.439-2.067,1.208-1.631-10.442V178.97l-1.907,1.115V163.971l3.041-1.778,1.61,10.5Z" transform="translate(-317.355 -147.243)"/>
              <path id="Path_329" data-name="Path 329" class="cls-9" d="M366.735,155.059v16.114l-2.185,1.278V156.337Z" transform="translate(-314.149 -148.228)"/>
              <path id="Path_330" data-name="Path 330" class="cls-9" d="M376.875,149.713v2.3l-2.286,1.337v13.812l-2.186,1.278V154.63l-2.285,1.335v-2.3Z" transform="translate(-312.602 -149.713)"/>
            </g>
          </g>
          <path id="Path_331" data-name="Path 331" class="cls-18" d="M206.3,114.346v185.84c0,6.954,195.308-287.992,195.308-287.992a9.038,9.038,0,0,0-13.552-7.831L210.828,106.516a9.039,9.039,0,0,0-4.525,7.831Z" transform="translate(57.325 0.863)"/>
          <g id="Group_87" data-name="Group 87" transform="translate(427.385 24.044)">
            <path id="Path_332" data-name="Path 332" class="cls-3" d="M405.2,30.347a19.882,19.882,0,0,0-5.586,5.059,27.1,27.1,0,0,0,.293-3.781c0-11.4-8.094-16.068-17.987-10.366-6.987,4.027-13.061,12.192-16.036,20.658-1.918-2.27-5.222-2.61-8.964-.454C351.025,44.861,346.2,53.2,346.2,59.99a12.6,12.6,0,0,0,.1,1.539c-.034.019-.067.033-.1.052-6.464,3.725-11.752,12.869-11.752,20.32s5.288,10.5,11.752,6.772L405.2,55.047c5.893-3.4,10.714-11.733,10.714-18.526S411.09,26.951,405.2,30.347Z" transform="translate(-334.452 -18.826)"/>
            <path id="Path_333" data-name="Path 333" class="cls-9" d="M407.18,31.486a19.885,19.885,0,0,0-5.586,5.059,27.06,27.06,0,0,0,.294-3.781c0-11.4-8.094-16.068-17.987-10.366-6.987,4.027-13.061,12.192-16.036,20.658-1.918-2.269-5.222-2.61-8.964-.453-5.893,3.4-10.714,11.733-10.714,18.526a12.657,12.657,0,0,0,.1,1.539c-.034.019-.067.033-.1.052-6.463,3.726-11.752,12.87-11.752,20.32s5.288,10.5,11.752,6.772l58.994-33.626c5.893-3.4,10.714-11.733,10.714-18.525S413.073,28.089,407.18,31.486Z" transform="translate(-333.901 -18.51)"/>
          </g>
          <g id="Group_88" data-name="Group 88" transform="translate(68.548 379.308)">
            <path id="Path_334" data-name="Path 334" class="cls-6" d="M158.674,395.176l-46.755-27.253L53.643,401.8l46.284,26.979,55.146-31.519C156.683,396.34,158.674,395.176,158.674,395.176Z" transform="translate(-53.643 -277.088)"/>
            <path id="Path_335" data-name="Path 335" class="cls-5" d="M158.674,365.177l-46.755-27.253L53.643,371.8,99.927,398.78l55.146-31.52C156.683,366.34,158.674,365.177,158.674,365.177Z" transform="translate(-53.643 -285.424)"/>
            <path id="Path_336" data-name="Path 336" class="cls-19" d="M158.674,371.365l-46.755-27.254L53.643,377.988l46.284,26.979,55.146-31.519C156.683,372.528,158.674,371.365,158.674,371.365Z" transform="translate(-53.643 -283.704)"/>
            <path id="Path_337" data-name="Path 337" class="cls-20" d="M135.444,346.782a3.112,3.112,0,0,0-2.315-1.412c-3.566-.58-7.177,3.943-10.895,6.93-.852.684-3.691,3-4.639.431-.32-.866,1.609-5.394,1.991-6.626q2.4-7.755,4.4-16.168c1.1-4.65,2.032-10.166-.089-13.531a3.434,3.434,0,0,0-2.973-1.836,7.529,7.529,0,0,0-4.126,2.379,49.579,49.579,0,0,0-7.148,8.17c-1,1.413-2.309,2.773-3.724,2.857-1.9.113-3.054-2.063-3.683-4.179-1.14-3.834-1.622-8.176-2.667-12.464-1.094-4.489-2.946-9.14-6.306-12.063a9.073,9.073,0,0,0-9.852-1.655c-3.27,1.41-5.735,5.3-6.365,9.447-.779,5.133.722,10.233,2.711,14.511,1.892,4.071,4.235,7.62,5.757,11.429.839,2.1,1.33,4.761-.156,6.6a6.016,6.016,0,0,1-4.67,1.836,44.853,44.853,0,0,0-11.355,1.767,10.711,10.711,0,0,0-5.355,2.854,6.473,6.473,0,0,0-1.427,4.817c.46,5.037,5.273,7.988,9.506,10.044a145.557,145.557,0,0,0,14.387,6.094c1.081.388,5.376,1.184,5.681,2.129.9,2.8-2.655,4.625-3.737,5.19-4.85,2.53-10.871,3.97-13.532,9a7.2,7.2,0,0,0-1.038,4.072c.243,1.877,1.854,3.035,3.615,3.748,5.689,2.305,13.236,1.068,19.626-.3a112.135,112.135,0,0,0,14.45-4.19l2.433-.9,1.938-2.242c3.562-4.181,6.978-8.526,10.119-13.049,3.868-5.569,8.02-12.01,9.533-18.44C136,350.09,136.183,348.044,135.444,346.782Z" transform="translate(-51.177 -296.84)"/>
            <path id="Path_338" data-name="Path 338" class="cls-21" d="M118.809,355.455a1.986,1.986,0,0,0-1.6-.658c-2.305-.009-4.129,3.2-6.173,5.457-.468.516-2.027,2.258-2.88.735-.288-.514.475-3.56.592-4.375q.739-5.128,1.155-10.629c.227-3.04.264-6.61-1.409-8.518a2.191,2.191,0,0,0-2.057-.86,4.806,4.806,0,0,0-2.363,1.912,31.641,31.641,0,0,0-3.688,5.863c-.486.99-1.178,1.979-2.061,2.173-1.188.261-2.131-.995-2.739-2.265-1.1-2.3-1.84-4.991-2.927-7.588a14.737,14.737,0,0,0-5.18-6.972,5.79,5.79,0,0,0-6.375-.058,7.844,7.844,0,0,0-3.067,6.59,16.444,16.444,0,0,0,3.159,8.874c1.6,2.377,3.431,4.379,4.771,6.627a4.26,4.26,0,0,1,.562,4.178,3.839,3.839,0,0,1-2.759,1.624,28.62,28.62,0,0,0-6.98,2.249,6.835,6.835,0,0,0-3.089,2.334,4.13,4.13,0,0,0-.418,3.178c.794,3.129,4.122,4.507,7,5.38a92.89,92.89,0,0,0,9.677,2.4c.72.137,3.507.209,3.793.774.849,1.674-1.211,3.18-1.837,3.644-2.8,2.079-6.454,3.589-7.628,7.025a4.6,4.6,0,0,0-.247,2.67,3.261,3.261,0,0,0,2.653,2c3.816.884,8.448-.65,12.339-2.15a71.535,71.535,0,0,0,8.688-4.085l1.443-.811,1-1.607c1.827-2.991,3.545-6.071,5.072-9.235,1.881-3.9,3.854-8.371,4.164-12.575A4.968,4.968,0,0,0,118.809,355.455Z" transform="translate(-48.227 -287.974)"/>
            <path id="Path_339" data-name="Path 339" class="cls-4" d="M89.863,431.19V392.854l58.746-33.6v38.335l-58.746,33.6" transform="translate(-43.578 -279.498)"/>
            <path id="Path_340" data-name="Path 340" class="cls-3" d="M53.643,364.435c.356.479,0,38.335,0,38.335l46.284,26.979V391.414Z" transform="translate(-53.643 -278.057)"/>
          </g>
        </g>
      </g>
    </g>
  </g>
</svg>
