<svg id="Layer_1" data-name="Layer 1" xmlns="http://www.w3.org/2000/svg" width="1919.763" height="944.126" viewBox="0 0 1919.763 944.126">
  <defs>
    <style>
      .cls-1 {
        fill: #e2d3b019;
        fill-rule: evenodd;
      }
    </style>
  </defs>
  <path id="Path_342" data-name="Path 342" class="cls-1" d="M0,34.308v2.942Q22.778,49.614,45.572,61.938c1.087.585,2.079,1.341,3.727,2.426-1.915,1.047-3.266,1.809-4.613,2.545Q22.339,78.946,0,90.988v3.018Q22.562,81.292,45.09,68.532c1.5-.848,2.993-1.661,5.055-2.794.147,2.055.327,3.4.3,4.738-.271,24.154-.653,48.305-.786,72.45a7.064,7.064,0,0,1-4.216,7Q22.666,162.619,0,175.508v1.847q23.292-12.531,46.552-25.141a7.691,7.691,0,0,1,8.458-.122c22.045,12.091,44.192,24,66.3,35.974,1.1.6,2.136,1.332,3.994,2.484-3.833,2.113-6.892,3.835-9.978,5.506-20.021,10.776-40.078,21.494-60.039,32.373a7.661,7.661,0,0,1-8.44.16Q23.491,215.757,0,203.136V205.3c18.933,10.386,42.847,24.038,49.242,28.394q.382,40.1.776,80.706C47.524,313.925,20.875,299.37,0,287.453v2.611q22.118,12,44.259,23.972c1.364.743,2.665,1.587,4.527,2.7-1.685,1.083-2.792,1.909-4,2.561Q22.4,331.348,0,343.411v2.418q22.185-12.5,44.339-25.054c1.5-.852,3.015-1.665,5.1-2.817.143,2,.34,3.345.32,4.673-.263,24.311-.608,48.613-.819,72.922a6.011,6.011,0,0,1-3.269,6.1Q22.8,414.423,0,427.335v2.408q23.335-12.527,46.626-25.131a6.916,6.916,0,0,1,7.578-.141c22.17,12.152,44.44,24.138,66.67,36.185,1.1.586,2.113,1.293,3.6,2.225-1.444.931-2.4,1.681-3.471,2.254q-33.614,18.109-67.234,36.226a6.159,6.159,0,0,1-6.715.132Q23.566,468.653,0,455.949v2.3q22.805,12.941,45.623,25.844a4.9,4.9,0,0,1,3.007,4.76c.168,25.275.449,50.544.673,75.821.009.611-.114,1.224-.281,2.907C32.451,558.176,16.192,548.945,0,539.752v2.872l44.954,24.384c.933.5,1.738,1.233,2.982,2.1-1.619,1-2.761,1.8-3.978,2.452Q21.972,583.4,0,595.238v2.8q16.1-9.051,32.2-18.091c5.325-2.987,10.707-5.916,16.884-9.326.075,2.148.205,3.646.187,5.151-.284,24-.648,48.024-.8,72.037a7.094,7.094,0,0,1-4.2,7.015Q22.076,667.209,0,679.776v1.8q23.358-12.557,46.7-25.141a5.469,5.469,0,0,1,5.86-.25q34.58,18.839,69.215,37.572a22.277,22.277,0,0,1,2.136,1.614c-2.013,1.108-3.4,1.885-4.81,2.644-21.7,11.688-43.449,23.306-65.063,35.138a8.046,8.046,0,0,1-8.9-.051Q22.635,720.723,0,708.543v2.318q22.206,12.606,44.421,25.191a5.62,5.62,0,0,1,3.741,5.308c.094,25.089.408,50.2.635,75.3.016.765-.1,1.537-.187,2.766a19.586,19.586,0,0,1-3.129-1.04Q22.73,805.5,0,792.6v2.891q21.765,11.814,43.547,23.592c1.214.666,2.337,1.495,4.075,2.6-1.949,1.085-3.31,1.85-4.687,2.584Q21.467,835.815,0,847.375v2.437q22.782-12.834,45.545-25.7a29.021,29.021,0,0,1,2.852-1.162c.08,1.889.194,3.112.194,4.331q-.437,36.732-.847,73.454a5.631,5.631,0,0,1-3.1,5.71Q22.286,918.943,0,931.577v2.2q22.9-12.336,45.783-24.7a5.856,5.856,0,0,1,6.308-.33q32.579,17.771,65.246,35.375h4.379c-13.221-6.5-63.751-34.9-70.82-39.9q-.359-40.116-.761-80.735c3.868.925,66.038,35.746,73.793,41.24q.381,39.446.765,79.391h1.685c-.074-1.143-.133-2.1-.12-3.033.273-24.012.665-48.028.758-72.039a7.375,7.375,0,0,1,4.544-7.325c21.687-12.072,43.266-24.34,64.885-36.528,1.206-.679,2.507-1.226,4.336-2.12.1,2.007.254,3.5.237,4.988-.274,24.02-.625,48.032-.789,72.045a7.08,7.08,0,0,1-4.111,7.067c-21.682,12.093-43.25,24.382-64.85,36.6-.2.115-.41.232-.618.347h2.216q32.482-17.441,64.918-34.951a6.581,6.581,0,0,1,7.154-.25c21.565,11.813,43.217,23.474,64.832,35.2h3.246c-23.688-13.443-46.6-26.453-69.672-39.545-.265-27-.515-53.91-.769-80.932,3.838.976,67.5,36.7,73.616,41.221.242,26.008.489,52.176.747,79.256h1.768a12.025,12.025,0,0,1-.2-2.017q.411-37.158.846-74.32a4.945,4.945,0,0,1,2.634-5.01q21.466-12.049,42.872-24.188v.017l18.958-10.714q3.118-1.762,6.239-3.52c.548-.3,1.177-.587,1.882-.9.19-.066.358-.123.615-.215a24.876,24.876,0,0,1,.385,3.513c-.268,24.612-.609,49.234-.828,73.846a5.638,5.638,0,0,1-3.152,5.7c-8.214,4.573-16.4,9.206-24.588,13.822v.255q-21.051,11.861-42.087,23.736h3.43q20.62-11.1,41.245-22.206,11.84-6.351,23.676-12.72a12.658,12.658,0,0,1,1.336-.616,7.5,7.5,0,0,1,.789-.255c.066-.019.132-.028.2-.045a5.358,5.358,0,0,1,2.248-.021,7.3,7.3,0,0,1,1.652.662c21.582,11.805,43.24,23.481,64.882,35.2h3.737q-33.491-18.957-66.945-37.946a4.614,4.614,0,0,1-2.858-4.383q-.242-38.345-.635-76.7a13.945,13.945,0,0,1,.3-1.914c1.491.717,2.7,1.249,3.78,1.875q32.784,18.565,65.557,37.165a5.618,5.618,0,0,1,3.721,5.324c.1,25.1.407,50.208.639,75.306a12.318,12.318,0,0,1-.063,1.268h2.317a11.1,11.1,0,0,1-.179-1.918q.416-37.154.839-74.323a4.988,4.988,0,0,1,2.654-5q34.473-19.328,68.85-38.82c.3-.141.678-.3,1.125-.473.169-.058.366-.127.59-.207.105,1.593.232,2.774.218,3.922-.284,24.461-.615,48.917-.855,73.384a5.621,5.621,0,0,1-3.049,5.743c-22.341,12.484-44.587,25.12-66.877,37.695h2.937c21.491-11.59,43.011-23.118,64.459-34.777a8.248,8.248,0,0,1,6.193-.889,9.773,9.773,0,0,1,1.349.573c21.5,11.781,43.109,23.41,64.681,35.093h4.97c-12.051-5.685-59.219-32.087-71.009-39.857q-.367-40.155-.758-80.327c2.268.768,10.026,4.765,19.869,10.1,15.666,8.892,31.05,17.625,46.488,26.386,2.667,1.609,4.974,3.037,6.752,4.189.261,26.285.515,52.864.769,79.513h2.249a14.071,14.071,0,0,1-.208-2.138c.281-24.643.614-49.276.852-73.914a6.147,6.147,0,0,1,1.443-4.468c.1-.094.192-.195.3-.285a7.045,7.045,0,0,1,.85-.627c.313-.2.61-.412.963-.607q28.061-15.693,56.064-31.5c3.226-1.815,6.391-3.73,9.631-5.545,1.077-.6,2.279-1.119,3.75-1.8l.258-.1c.079,1.775.185,2.968.185,4.143q-.436,36.732-.845,73.454a5.633,5.633,0,0,1-3.1,5.71c-22.327,12.479-44.58,25.11-66.857,37.677h3.519q32.482-17.53,64.968-35.046a12.608,12.608,0,0,1,1.417-.657c.115-.042.23-.079.344-.114a6.32,6.32,0,0,1,.732-.176,4.812,4.812,0,0,1,1.669-.031,6.457,6.457,0,0,1,1.656.648q32.577,17.771,65.246,35.375h4.87c-5.5-2.707-17.475-9.21-30.083-16.237v-.007q-10.046-5.7-20.125-11.358c-8.477-4.856-15.593-9.039-19.091-11.284a6.091,6.091,0,0,1-1.537-2.907q-.348-38.58-.732-77.617c.021-.342.04-.651.062-1.022,3.2,1.3,16.208,8.317,30.454,16.243l10.97,6.227v-.083c14.716,8.3,28.427,16.261,31.806,18.654q.381,39.446.765,79.391h2.176c-.074-1.143-.133-2.1-.12-3.033.274-24.012.666-48.028.758-72.039a7.375,7.375,0,0,1,4.544-7.325c21.687-12.072,43.266-24.34,64.885-36.528,1.094-.616,2.286-1.136,3.858-1.891.1,1.887.24,3.331.224,4.759-.274,24.02-.625,48.032-.789,72.045a7.081,7.081,0,0,1-4.112,7.067c-21.682,12.093-43.25,24.382-64.848,36.6-.2.115-.411.232-.619.347h2.707q32.483-17.441,64.918-34.951a8.911,8.911,0,0,1,3.352-1.15,6.573,6.573,0,0,1,3.311.9c21.565,11.813,43.217,23.474,64.831,35.2h3.737c-23.687-13.443-46.6-26.453-69.672-39.545-.264-26.936-.514-53.792-.767-80.755,6.994,2.847,67.184,36.654,73.125,41.044.241,26.008.488,52.176.745,79.256h2.259a12.013,12.013,0,0,1-.2-2.017q.41-37.158.845-74.32a4.944,4.944,0,0,1,2.634-5.01q34.543-19.391,68.993-38.925a12.549,12.549,0,0,1,1.571-.6l.008.055c.1,1.548.24,2.717.223,3.849-.284,24.465-.63,48.925-.826,73.389a6.019,6.019,0,0,1-3.453,6C935.764,919,913.561,931.6,891.331,944.126h3.92q32.382-17.439,64.772-34.873a8.007,8.007,0,0,1,3.282-1.07,6.222,6.222,0,0,1,2.946.819c21.528,11.776,43.143,23.428,64.738,35.124h3.73q-33.254-18.838-66.487-37.683a4.976,4.976,0,0,1-3.188-4.681c-.154-25.41-.418-50.816-.639-76.231a21.3,21.3,0,0,1,.286-2.367c1.753.891,3.079,1.534,4.322,2.245,21.582,12.236,43.106,24.525,64.738,36.665a6.685,6.685,0,0,1,4.042,6.585c.1,24.174.388,48.325.612,72.5.013.929-.037,1.873-.09,2.971h2.339a12.86,12.86,0,0,1-.157-1.967c.27-24.615.6-49.234.848-73.851a5.263,5.263,0,0,1,2.735-5.42q34.354-19.247,68.586-38.676a16.976,16.976,0,0,1,1.905-.8c.1,1.565.214,2.6.206,3.6-.295,24.632-.636,49.244-.85,73.859a5.631,5.631,0,0,1-3.162,5.675C1088.5,919,1066.317,931.591,1044.1,944.126h2.917c21.328-11.478,42.682-22.9,63.933-34.5a9.832,9.832,0,0,1,4.766-1.415,9.7,9.7,0,0,1,4.077,1.313c21.157,11.663,42.454,23.091,63.705,34.6h4.877c-12.577-6.061-60.7-33.042-70.8-39.819-.258-26.206-.508-52.735-.771-80.427a119.067,119.067,0,0,1,11.684,5.7c20.484,11.628,40.407,22.937,60.487,34.332.326.207.646.411.945.6q.375,39.737.765,79.611h2.252a5.108,5.108,0,0,1-.217-1.348c.264-25.105.625-50.212.816-75.322a5.751,5.751,0,0,1,3.757-5.368q28.061-15.694,56.064-31.5c3.226-1.815,6.392-3.729,9.631-5.545,1.083-.606,2.289-1.123,3.771-1.811.117,1.754.264,3.051.248,4.328q-.426,36.5-.843,72.982a7.49,7.49,0,0,1-.8,3.977l-.055.077a4.706,4.706,0,0,1-.845.955,7.09,7.09,0,0,1-.978.714c-.066.04-.116.082-.185.121-22.384,12.5-44.684,25.142-66.994,37.74h3.542q32.55-17.561,65.1-35.106a7.3,7.3,0,0,1,2.915-.961,5.228,5.228,0,0,1,2.465.662q19.926,10.875,39.9,21.67v-.2q12.857,6.958,25.7,13.936h4.379c-5.432-2.672-17.165-9.041-29.593-15.964v-.28q-17.571-9.978-35.2-19.867c-.909-.545-1.726-1.043-2.474-1.5a6.859,6.859,0,0,1-3.341-6.45c-.074-24.029-.384-48.049-.595-72.069-.021-1.323.091-2.651.187-4.3,1.957.794,7.6,3.738,14.945,7.716l25.989,14.754v-.278l.49.278v-.083c14.716,8.3,28.427,16.261,31.806,18.654q.381,39.446.766,79.391h1.685c-.073-1.143-.133-2.1-.119-3.033.274-24.012.664-48.028.758-72.039a7.374,7.374,0,0,1,4.543-7.325c21.689-12.072,43.267-24.34,64.885-36.528,1.207-.679,2.507-1.226,4.336-2.12.1,2.007.253,3.5.237,4.988-.274,24.02-.625,48.032-.789,72.045a7.081,7.081,0,0,1-4.112,7.067c-21.682,12.093-43.25,24.382-64.849,36.6-.2.115-.411.232-.618.347h2.216q32.483-17.441,64.919-34.951a6.579,6.579,0,0,1,7.154-.25c21.565,11.813,43.217,23.474,64.832,35.2h3.246c-23.688-13.443-46.6-26.453-69.672-39.545-.264-27-.515-53.91-.769-80.932,3.838.976,67.5,36.7,73.617,41.221.242,26.008.488,52.176.745,79.256h1.768a12.059,12.059,0,0,1-.2-2.017q.412-37.158.846-74.32a4.944,4.944,0,0,1,2.634-5.01q34.544-19.391,68.994-38.925,1-.436,2.052-.772c.1,1.681.257,2.885.24,4.079-.284,24.465-.631,48.925-.826,73.388a6.019,6.019,0,0,1-3.453,6C1545.3,919,1523.1,931.6,1500.87,944.126h3.43q32.383-17.439,64.771-34.873a6.2,6.2,0,0,1,6.719-.251c21.527,11.776,43.143,23.428,64.738,35.124h3.24q-33.256-18.838-66.487-37.683a4.979,4.979,0,0,1-3.189-4.681c-.154-25.41-.418-50.816-.639-76.231-.006-.6.147-1.2.318-2.6,2,1.024,3.427,1.7,4.781,2.478,21.582,12.236,43.106,24.526,64.738,36.665a6.684,6.684,0,0,1,4.042,6.585c.1,24.174.388,48.325.612,72.5.013.929-.037,1.873-.09,2.971h1.849a13.115,13.115,0,0,1-.157-1.967c.271-24.615.6-49.234.849-73.851a5.262,5.262,0,0,1,2.735-5.42q34.352-19.247,68.585-38.676c.552-.311,1.17-.49,2.383-.989.1,1.681.227,2.743.219,3.79-.295,24.632-.636,49.244-.85,73.859a5.631,5.631,0,0,1-3.163,5.675c-22.263,12.458-44.447,25.044-66.663,37.579h2.428c21.327-11.478,42.681-22.9,63.932-34.5a8.481,8.481,0,0,1,9.333-.1c21.157,11.663,42.454,23.091,63.705,34.6h4.385c-12.576-6.06-60.7-33.042-70.8-39.819-.262-26.594-.515-53.508-.783-81.645,25.182,14.294,49.244,27.954,73.617,41.784q.376,39.771.766,79.679h1.762a5.166,5.166,0,0,1-.218-1.348c.265-25.105.625-50.212.815-75.322a5.751,5.751,0,0,1,3.758-5.368q28.06-15.694,56.063-31.5c3.227-1.815,6.392-3.73,9.632-5.545,1.206-.675,2.511-1.21,4.245-2.03.12,1.873.281,3.215.264,4.546q-.427,36.5-.843,72.982a5.621,5.621,0,0,1-2.865,5.844c-22.384,12.5-44.685,25.142-66.995,37.74h3.052q32.548-17.561,65.1-35.106a5.514,5.514,0,0,1,5.871-.3q19.926,10.875,39.9,21.67v-2.508q-18.4-10.45-36.865-20.806a7.024,7.024,0,0,1-4.152-7.015c-.073-24.029-.384-48.049-.595-72.069-.024-1.508.127-3,.227-4.991,1.775.858,3.065,1.405,4.282,2.1q18.553,10.522,37.1,21.062v-2.708q-19.034-10.324-38.075-20.633c-.566-.294-1.053-.708-2.073-1.393a26.312,26.312,0,0,1,2.982-2.228q18.578-10.026,37.166-20.025V796.9q-19.591,11.054-39.185,22.1a18.164,18.164,0,0,1-2.029.717c-.079-1.709-.214-2.91-.193-4.12.277-24.455.614-48.92.838-73.382a5.625,5.625,0,0,1,3.1-5.705q18.764-10.493,37.467-21.093v-2.638q-18.9,10.175-37.741,20.441a8.036,8.036,0,0,1-8.892-.038c-21.728-11.954-43.591-23.684-65.389-35.516-1.244-.666-2.417-1.456-4.112-2.506,1.223-.832,2.03-1.5,2.928-1.976q34.047-18.334,68.091-36.675a5.788,5.788,0,0,1,6.291-.019q19.386,10.559,38.824,21.052v-2.484c-13.445-7.622-26.789-15.19-40.2-22.8-.253-26.927-.51-53.854-.781-81.965,13.915,7.9,27.5,15.616,40.979,23.271v-2.7q-18.177-9.844-36.364-19.688c-.953-.525-1.815-1.191-3.51-2.3,2.019-1.114,3.259-1.815,4.51-2.481q17.685-9.527,35.364-19.046v-2.586q-17.594,9.935-35.184,19.886c-1.534.867-3.092,1.7-5.468,3.013-.128-2.222-.279-3.574-.252-4.927.267-24.164.632-48.322.782-72.5a7.109,7.109,0,0,1,4.225-7.027q17.977-10.032,35.9-20.182v-2.071q-18.975,10.2-37.94,20.427a6.183,6.183,0,0,1-6.713.23c-22.611-12.357-45.305-24.574-67.964-36.857-.816-.439-1.548-1.019-2.785-1.835,1.477-.958,2.564-1.783,3.754-2.44l66.831-35.964a6.206,6.206,0,0,1,6.712-.272q19.024,10.416,38.105,20.719v-2.507q-18.211-10.334-36.443-20.642a5.635,5.635,0,0,1-3.333-5.545c-.141-24.618-.422-49.25-.639-73.881-.01-1.188.157-2.369.292-4.117,1.855.919,3.28,1.53,4.622,2.293q17.741,10.069,35.5,20.117v-2.663q-17.464-9.461-34.945-18.908c-1.241-.682-2.415-1.476-4.1-2.513,1.2-.827,2-1.508,2.9-1.995q18.067-9.729,36.15-19.461v-2.206q-17.545,9.921-35.07,19.856c-1.373.774-2.748,1.51-4.667,2.574a35.63,35.63,0,0,1-.495-4.095c.274-24.644.606-49.279.846-73.923a5.664,5.664,0,0,1,3.076-5.74q18.192-10.162,36.31-20.409v-2.4q-18.7,10.061-37.384,20.146a6.209,6.209,0,0,1-6.722.16c-22.631-12.37-45.325-24.606-68.011-36.9-.829-.439-1.568-1.009-2.972-1.944,1.729-1.069,2.766-1.793,3.871-2.387,21.717-11.708,43.484-23.319,65.117-35.171a9.187,9.187,0,0,1,10.208-.119q17.881,9.9,35.893,19.583v-2.559c-13.031-7.4-25.964-14.739-39-22.137q-.4-40.29-.786-80.777c2.367.435,21.211,10.535,39.787,20.982V85.461q-17.8-9.648-35.609-19.3c-.818-.431-1.544-1.021-2.733-1.811a28.983,28.983,0,0,1,2.543-1.768q17.9-9.661,35.8-19.263V40.632L1884.83,60.253c-1.254.7-2.518,1.4-4.213,2.33a19.408,19.408,0,0,1-.592-3.374q.321-29.61.659-59.21h-2.791c.2,20.681.391,41.564.588,63.045-25.081-14.24-49.233-27.952-73.6-41.775q-.1-10.642-.207-21.27h-2.761c-.063,5.817-.137,11.631-.183,17.448a6.005,6.005,0,0,1-3.406,6.021c-22.22,12.444-44.353,25.029-66.52,37.565-.959.544-2,.967-3.353,1.624a11.835,11.835,0,0,1-.679-2.7q.321-29.985.659-59.959h-2.784c.2,20.72.4,41.63.6,63.2-25.2-14.313-49.294-27.98-73.8-41.89q-.1-10.637-.208-21.308h-2.757q-.107,8.908-.2,17.819a4.985,4.985,0,0,1-2.625,5.026q-34.584,19.381-69.077,38.913a16.472,16.472,0,0,1-2.039.669c-.079-1.895-.211-3.255-.191-4.623q.34-28.9.667-57.8h-2.8c.194,20.742.392,41.5.585,62.706-2.18-1.1-3.6-1.735-4.944-2.495-21.589-12.244-43.134-24.545-64.786-36.684a6.719,6.719,0,0,1-4.014-6.6c-.017-5.641-.077-11.285-.114-16.926h-2.7c-.063,5.817-.15,11.637-.2,17.454a5.62,5.62,0,0,1-3.131,5.689q-33.944,18.992-67.748,38.2c-.692.394-1.451.669-2.728,1.245-.13-1.614-.338-2.926-.324-4.239q.341-29.173.679-58.351h-2.8q.216,29.432.528,58.852c.007,1.043-.151,2.093-.28,3.893-2-1.019-3.3-1.633-4.544-2.341q-32.56-18.478-65.151-36.915a6.313,6.313,0,0,1-3.914-6.188c-.016-5.769-.077-11.532-.114-17.3h-2.724c-.064,5.769-.14,11.531-.194,17.3a5.647,5.647,0,0,1-3.136,5.7c-21.973,12.279-43.868,24.684-65.781,37.04l-.38.214c-.586.329-1.181.659-1.814,1.008-.534.279-1.126.525-2,.9a14.461,14.461,0,0,1-.5-2.956q.32-29.61.659-59.21h-3.282c.2,20.59.389,41.382.586,62.765-24.9-14.139-48.9-27.763-73.11-41.5q-.1-10.642-.207-21.27h-3.252c-.064,5.817-.137,11.631-.184,17.448a6,6,0,0,1-3.407,6.022c-22.187,12.426-44.289,24.992-66.422,37.51-.854.459-1.785.858-3.038,1.426a9.3,9.3,0,0,1-.6-2.447q.32-29.985.659-59.959H1116.1c.2,20.629.4,41.45.6,62.918-25.018-14.21-48.962-27.791-73.311-41.61q-.106-10.637-.208-21.308h-3.247q-.107,8.908-.2,17.819a6.2,6.2,0,0,1-.8,3.3,4.886,4.886,0,0,1-.687.869c-.111.1-.268.2-.4.3a7.992,7.992,0,0,1-.98.691Q1002.815,42.067,968.843,61.3c-.467.227-1,.483-1.589.745-.207.059-.473.137-.779.231-.081-1.812-.2-3.144-.183-4.472q.34-28.9.665-57.8h-3.292c.191,20.439.386,40.9.577,61.785-.007.224-.015.426-.022.663-1.875-.932-3.2-1.543-4.423-2.237-21.588-12.244-43.133-24.545-64.785-36.684a6.721,6.721,0,0,1-4.015-6.6c-.017-5.641-.076-11.285-.113-16.926h-3.195c-.063,5.817-.151,11.637-.2,17.454a5.62,5.62,0,0,1-3.132,5.689q-33.942,18.992-67.748,38.2c-.589.335-1.292.618-2.257,1.04-.13-1.513-.318-2.781-.3-4.033q.341-29.173.679-58.351h-3.288q.216,29.432.528,58.852c.007.992-.135,2.01-.261,3.655-1.726-.872-2.938-1.456-4.072-2.1q-32.557-18.478-65.148-36.915a6.315,6.315,0,0,1-3.916-6.188c-.015-5.769-.076-11.532-.113-17.3h-3.214c-.063,5.769-.141,11.531-.194,17.3a5.647,5.647,0,0,1-3.136,5.7c-22.635,12.649-45.186,25.432-67.759,38.157-.584.327-1.23.581-2.215,1.01-.072-.344-.136-.632-.206-.938-.072-1.238-.136-2.172-.127-3.1q.341-29.062.66-58.127h-3.289c.2,20.632.393,41.345.593,62.7C634.618,48.536,610.7,34.976,586.453,21.2q-.1-10.583-.2-21.2H583c-.057,5.724-.129,11.445-.167,17.166a6.391,6.391,0,0,1-3.656,6.38c-22.083,12.341-44.07,24.852-66.1,37.3-.919.52-1.924.933-3.3,1.557-.1-.357-.212-.676-.313-1-.067-1.308-.125-2.251-.114-3.2Q509.709,29.1,510.015,0h-3.291c.2,20.7.4,41.458.591,62.851-25.114-14.259-49.167-27.925-73.3-41.626-.067-7.085-.137-14.147-.2-21.225h-3.245c-.063,5.829-.136,11.66-.184,17.489a5.65,5.65,0,0,1-3.249,5.635Q393.608,41.89,360.2,60.849c-.817.469-1.756.863-2.97,1.413-.142-1.655-.333-2.936-.311-4.212.218-19.349.472-38.7.655-58.05h-3.207q.231,28.482.454,56.956c.007,1.587-.075,3.188-.144,5.492-.187-.094-.347-.171-.524-.258-9.869-5.574-19.607-11.075-29.3-16.551v.148q-19.668-11.17-39.385-22.26a6.721,6.721,0,0,1-4.015-6.6c-.017-5.641-.076-11.285-.113-16.926h-2.7c-.064,5.817-.151,11.637-.2,17.454a5.62,5.62,0,0,1-3.132,5.689q-33.942,18.992-67.748,38.2c-.691.394-1.45.669-2.727,1.245-.13-1.614-.339-2.926-.326-4.239q.342-29.173.679-58.351h-2.8q.215,29.432.528,58.852c.006,1.043-.151,2.093-.281,3.893-2-1.019-3.3-1.633-4.543-2.341q-32.558-18.478-65.149-36.915a6.317,6.317,0,0,1-3.916-6.188c-.015-5.769-.076-11.532-.113-17.3h-2.725c-.062,5.769-.139,11.531-.192,17.3a5.65,5.65,0,0,1-3.136,5.7C100.228,35.648,77.677,48.431,55.1,61.156c-.7.394-1.465.666-2.845,1.287-.091-1.9-.205-3.105-.191-4.316Q52.408,29.065,52.726,0h-2.8c.2,20.722.4,41.525.6,62.984C33.333,53.221,16.645,43.756,0,34.308ZM52.375,236.5a5.719,5.719,0,0,1,3.837-5.314q26.58-14.892,53.119-29.84c5.315-2.99,10.681-5.906,16.73-9.236.124,1.822.287,3.038.275,4.232-.281,24.485-.622,48.968-.83,73.456a6.008,6.008,0,0,1-3.406,6.022c-22.22,12.443-44.353,25.022-66.516,37.546-.96.554-2,.983-3.353,1.632a11.367,11.367,0,0,1-.675-2.7C51.817,287.02,52.178,261.761,52.375,236.5ZM350.2,231.364a5.647,5.647,0,0,1,3.506,5.443c.118,24.788.411,49.579.629,74.354.012,1.006-.117,2.028-.242,3.657-1.567-.774-2.647-1.277-3.647-1.833q-12.792-7.255-25.584-14.521v.14q-19.874-11.288-39.8-22.486a7.023,7.023,0,0,1-4.3-6.934c-.056-24.01-.363-48.018-.574-72.027-.013-1.508.1-3.019.181-5.065,1.615.717,2.778,1.143,3.828,1.739q20.091,11.386,40.175,22.781v.115q12.906,7.323,25.829,14.636Zm1376.41,339.193c1.912.957,3.333,1.591,4.68,2.369,21.585,12.239,43.116,24.555,64.785,36.669a6.987,6.987,0,0,1,4.208,6.972c.077,24.026.382,48.059.6,72.089.01,1.5-.116,3-.217,5.068-1.913-.954-3.343-1.588-4.684-2.359-21.587-12.248-43.13-24.558-64.788-36.684a6.979,6.979,0,0,1-4.2-6.97c-.067-24.036-.375-48.062-.591-72.079-.02-1.5.114-3,.21-5.073Zm-.01-6.855q.411-37.158.849-74.32a4.957,4.957,0,0,1,2.654-5q34.539-19.385,69-38.919a18.188,18.188,0,0,1,2.039-.759c.1,1.691.244,2.894.224,4.094-.286,24.462-.614,48.93-.846,73.386a5.636,5.636,0,0,1-3.048,5.737c-22.635,12.646-45.175,25.445-67.747,38.189-.692.388-1.447.685-2.67,1.268a28.846,28.846,0,0,1-.455-3.673Zm72.049,44.025c-22.618-12.393-45.332-24.618-68.007-36.905-.832-.452-1.591-1.028-2.83-1.822a30.353,30.353,0,0,1,3.182-2.289c22.279-12.015,44.6-23.968,66.85-36.054a6.98,6.98,0,0,1,7.6-.186c22.334,12.233,44.771,24.3,67.155,36.438.966.518,1.855,1.175,3.658,2.324-2.124,1.169-3.484,1.95-4.868,2.68q-32.8,17.662-65.594,35.331a6.544,6.544,0,0,1-7.15.484Zm-.236-252.745c-21.893-12.025-43.916-23.845-65.882-35.743-1.24-.676-2.414-1.47-4.072-2.491,1.344-.928,2.267-1.719,3.323-2.292,22.288-12.025,44.6-23.979,66.844-36.077a6.926,6.926,0,0,1,7.594-.087c22.183,12.166,44.481,24.152,66.734,36.214,1.1.589,2.126,1.322,4.035,2.533-2.186,1.209-3.567,1.975-4.954,2.737-21.735,11.672-43.5,23.3-65.173,35.084a7.716,7.716,0,0,1-8.45.12Zm2.613-85.231a5.6,5.6,0,0,1-3.032,5.746c-22.648,12.659-45.212,25.461-67.8,38.212-.679.387-1.434.656-2.624,1.2a27.655,27.655,0,0,1-.475-3.746c.271-24.637.649-49.282.8-73.919a6.4,6.4,0,0,1,3.9-6.253c22.224-12.428,44.364-25,66.537-37.5.82-.467,1.722-.787,3.3-1.485.107,1.876.241,3.089.23,4.3-.279,24.485-.6,48.972-.843,73.453Zm-.361,90.329c.247,26.71.5,53.6.765,81.527-25.048-14.2-49.191-27.9-73.614-41.755q-.387-40.4-.775-80.865c3.776.774,65.675,35.395,73.622,41.092Zm-71.923,43.751q34.579,18.848,69.218,37.564,1.139.757,2.194,1.62c-1.993,1.108-3.374,1.886-4.785,2.644-21.7,11.688-43.451,23.306-65.076,35.139a8.013,8.013,0,0,1-8.885-.012c-21.722-11.967-43.585-23.691-65.387-35.51-1.246-.672-2.427-1.463-4.122-2.494a34.858,34.858,0,0,1,2.886-2q34.051-18.32,68.1-36.656a5.466,5.466,0,0,1,5.853-.293ZM1574.3,570.437c24.961,13.99,49.039,27.811,73.419,41.6.257,27.017.511,53.94.769,81.8-2.47-1.325-3.9-2.052-5.292-2.846-21.3-12.092-42.562-24.254-63.939-36.2a7.332,7.332,0,0,1-4.536-7.261c-.013-23.71-.344-47.425-.555-71.141-.019-1.665.071-3.326.134-5.947Zm-.131-7.792c.275-24.321.6-48.626.839-72.927a5.618,5.618,0,0,1,3.012-5.757c22.762-12.719,45.44-25.608,68.161-38.436.552-.31,1.157-.528,2.149-.97a15.318,15.318,0,0,1,.609,3.067c-.264,25.076-.6,50.162-.836,75.241a5.058,5.058,0,0,1-3.015,4.837q-33.9,19.02-67.747,38.173a31.831,31.831,0,0,1-2.948,1.262c-.1-1.795-.244-3.14-.224-4.492Zm71.287,44.681c-21.879-12.011-43.879-23.824-65.831-35.718-1.237-.675-2.41-1.46-4.106-2.494,1.5-.979,2.591-1.806,3.771-2.455q33.415-17.989,66.831-35.971a6.2,6.2,0,0,1,6.712-.278c22.608,12.373,45.3,24.589,67.957,36.873.823.438,1.562,1,3.122,2.04-1.982,1.085-3.226,1.792-4.5,2.462-22,11.835-44.026,23.616-65.955,35.554a7.3,7.3,0,0,1-8-.014Zm5.379,8.494a6.414,6.414,0,0,1,3.9-6.262c22.224-12.424,44.364-24.99,66.536-37.5.816-.464,1.725-.784,3.307-1.485.1,1.873.236,3.086.227,4.293-.285,24.481-.619,48.965-.812,73.449a6,6,0,0,1-3.48,5.97q-33.326,18.661-66.527,37.523c-.963.535-1.992.977-3.58,1.745-.151-1.687-.375-2.987-.365-4.287.283-24.486.643-48.972.8-73.448Zm73.837-48.232c-2.153-1.143-3.584-1.87-4.978-2.667-21.424-12.139-42.815-24.372-64.32-36.409a7.013,7.013,0,0,1-4.268-6.941c-.061-24.02-.371-48.014-.582-72.038-.014-1.492.113-2.993.2-5.046,1.618.727,2.775,1.159,3.831,1.761q33.195,18.82,66.392,37.645a5.263,5.263,0,0,1,3.423,5c.124,25.114.419,50.207.646,75.3.007.882-.174,1.767-.344,3.387ZM1650.717,436.6c.284-24.174.631-48.338.812-72.518a6.7,6.7,0,0,1,3.853-6.745c22.11-12.306,44.1-24.8,66.132-37.239.959-.541,2-.973,3.413-1.674a19.2,19.2,0,0,1,.578,3.249c-.274,24.942-.607,49.9-.845,74.855a5.317,5.317,0,0,1-3.028,5.282q-33.943,19.064-67.778,38.273c-.684.387-1.438.65-2.929,1.3-.092-2.067-.215-3.425-.209-4.786Zm74.553-121.643c-12.734-6.569-24.608-13.766-36.716-20.55-12.212-6.857-24.359-13.82-36.618-20.8-.261-27.013-.512-53.835-.776-81.293a35.718,35.718,0,0,1,3.815,1.556q33.43,18.935,66.867,37.894a4.892,4.892,0,0,1,3.009,4.761c.157,25.265.438,50.544.672,75.814,0,.605-.118,1.223-.251,2.619Zm-71.495-36.848c22.187,12.165,44.481,24.158,66.732,36.207,1.1.6,2.115,1.329,3.946,2.488-4.118,2.275-7.468,4.152-10.854,5.967-19.592,10.561-39.245,21.02-58.768,31.684a8.435,8.435,0,0,1-9.32.142c-21.581-11.919-43.316-23.572-65-35.331-1.38-.749-2.714-1.574-4.492-2.618a26.882,26.882,0,0,1,2.882-2.165c22.42-12.095,44.891-24.125,67.268-36.29a6.956,6.956,0,0,1,7.607-.083Zm-5.008-7.814a5,5,0,0,1-2.681,4.987q-34.56,19.363-69.014,38.893a14.954,14.954,0,0,1-2.01.727c-.1-1.719-.23-2.932-.213-4.13.281-24.465.616-48.917.836-73.382a5.649,5.649,0,0,1,3.115-5.7q33.937-19,67.738-38.205c.691-.394,1.447-.679,2.543-1.178a18.253,18.253,0,0,1,.538,3.195c-.266,24.936-.6,49.868-.85,74.794Zm-73.785,47.633c24.761,14.044,48.936,27.769,73.412,41.66.258,26.991.518,53.943.786,81.43a21.869,21.869,0,0,1-3.319-1.15q-33.862-19.185-67.71-38.407a4.581,4.581,0,0,1-2.862-4.361c-.147-25.585-.418-51.177-.642-76.762C1574.642,319.893,1574.769,319.434,1574.982,317.932Zm2.419,86.52c22.19,12.166,44.48,24.158,66.73,36.221,1.1.6,2.113,1.316,4.045,2.536-2.19,1.207-3.563,1.978-4.951,2.727-21.739,11.678-43.5,23.3-65.173,35.09a7.692,7.692,0,0,1-8.447.129c-21.9-12.025-43.916-23.854-65.885-35.751-1.244-.675-2.427-1.456-4.085-2.471a38.088,38.088,0,0,1,3.32-2.3c22.293-12.018,44.6-23.979,66.838-36.076a6.949,6.949,0,0,1,7.608-.1ZM1424.629,571.784q34.052,19.284,68.081,38.6a4.6,4.6,0,0,1,2.822,4.4q.25,38.34.634,76.7a16.774,16.774,0,0,1-.347,2.1c-1.745-.848-3.035-1.412-4.255-2.1-21.849-12.38-43.675-24.833-65.574-37.161a5.925,5.925,0,0,1-3.656-5.824c-.107-24.638-.4-49.263-.626-73.888-.013-1.089.087-2.168.154-3.634A13.134,13.134,0,0,1,1424.629,571.784Zm-2.725-9.278c.279-24.02.629-48.024.8-72.041a7.085,7.085,0,0,1,4.1-7.094c21.832-12.143,43.541-24.483,65.3-36.748,1.211-.682,2.508-1.226,4.333-2.116.1,2.026.254,3.514.237,5-.281,24.02-.631,48.031-.791,72.051a7.061,7.061,0,0,1-4.129,7.052c-21.672,12.1-43.236,24.372-64.835,36.6-1.341.752-2.7,1.479-4.754,2.616-.112-2.331-.262-3.827-.258-5.322Zm70.889,44.54c-21.885-12.005-43.881-23.831-65.828-35.734-1.216-.666-2.35-1.492-4.129-2.644,1.923-1.063,3.273-1.812,4.63-2.549,22-11.826,44.029-23.591,65.961-35.539a6.909,6.909,0,0,1,7.575,0c22.036,12.082,44.163,23.979,66.262,35.943,1.217.669,2.337,1.488,3.9,2.5-1.631,1-2.781,1.8-4.008,2.465-21.975,11.845-44,23.633-65.921,35.587a7.721,7.721,0,0,1-8.448-.025Zm5.816,8.525a5.333,5.333,0,0,1,3.069-5.26q33.932-19.011,67.734-38.209c.695-.387,1.44-.7,2.677-1.284a27.9,27.9,0,0,1,.458,3.659c-.267,24.772-.6,49.541-.843,74.323a4.952,4.952,0,0,1-2.62,5.01q-34.76,19.5-69.442,39.115a10.441,10.441,0,0,1-1.645.477c-.093-1.425-.23-2.471-.217-3.512.285-24.764.609-49.54.829-74.32Zm.395-89.561q-.4-40.353-.782-80.826c3.694.688,64.989,34.924,73.627,41.045.244,26.7.5,53.6.762,81.574-25.175-14.294-49.241-27.97-73.608-41.793Zm-.742-88.2c.271-24.952.628-49.9.816-74.848a6.1,6.1,0,0,1,3.9-5.778q29.755-16.615,59.436-33.378c3.2-1.8,6.436-3.556,10.49-5.794.067,2.334.155,3.86.134,5.378-.28,24.168-.618,48.334-.8,72.511a6.051,6.051,0,0,1-3.467,5.993c-22.226,12.421-44.367,24.989-66.536,37.5-.959.551-1.986.979-3.39,1.651a19.222,19.222,0,0,1-.585-3.24Zm74.673-122.61c-2.153-1.152-3.58-1.875-4.964-2.669-21.438-12.153-42.823-24.372-64.327-36.41a7.023,7.023,0,0,1-4.3-6.934c-.057-24.01-.364-48.018-.574-72.027-.013-1.508.1-3.019.18-5.065,1.614.717,2.778,1.143,3.828,1.739q33.2,18.819,66.4,37.651a5.3,5.3,0,0,1,3.443,5c.118,25.1.411,50.194.635,75.3a33.729,33.729,0,0,1-.326,3.411Zm-71.972-37.241q34.142,18.617,68.385,37.081c.685.371,1.294.864,2.582,1.738-1.6.992-2.628,1.719-3.735,2.308q-33.41,17.984-66.8,35.994a6.57,6.57,0,0,1-7.147.131c-22.461-12.28-45.021-24.427-67.54-36.621-.822-.444-1.587-1-2.842-1.8a32.411,32.411,0,0,1,3.137-2.234q33.835-18.224,67.662-36.441a5.829,5.829,0,0,1,6.3-.158Zm-4.606-8.3a6.034,6.034,0,0,1-3.529,5.951c-22.348,12.505-44.619,25.128-66.918,37.693-.836.471-1.725.839-2.969,1.418a19.075,19.075,0,0,1-.552-3.193q.418-37.407.856-74.79a5.024,5.024,0,0,1,2.7-4.985q34.559-19.356,69.013-38.9a17.93,17.93,0,0,1,1.989-.727c.1,1.729.244,2.936.232,4.142-.285,24.458-.629,48.926-.819,73.384ZM1426.992,320.5c21.864,12.386,43.7,24.839,65.6,37.187a5.589,5.589,0,0,1,3.463,5.449c.127,24.817.411,49.619.645,74.42.013.925-.073,1.86-.107,2.67a5.245,5.245,0,0,1-.562.349c-.134.051-.331.147-.434.1q-1.345-.544-2.628-1.217-34.873-19.78-69.849-39.652c-.253-27.017-.518-53.815-.772-81.575,2.134,1.033,3.435,1.576,4.643,2.273Zm-1.667,83.994q33.07,18.095,66.306,35.958c1.113.6,2.146,1.341,4.084,2.539-2.163,1.187-3.533,1.975-4.913,2.715q-32.815,17.653-65.6,35.324a6.576,6.576,0,0,1-7.159.445c-22.616-12.383-45.321-24.618-67.992-36.9-.832-.444-1.591-1.021-2.8-1.811a33.2,33.2,0,0,1,3.207-2.3c22.269-12.005,44.607-23.947,66.824-36.063a7.36,7.36,0,0,1,8.042.1ZM1273.155,653.749c-1.065-.668-1.954-1.243-2.643-1.712-.252-26.766-.508-53.537-.777-81.472,13.742,7.8,27.173,15.428,40.487,22.991v-.163l32.79,18.619q.4,40.351.786,80.783c-1.776-.3-16.891-8.372-33.086-17.376v-.366c-12.56-7.123-25.035-14.2-37.557-21.307Zm1.884-89.1c-.742.42-1.494.833-2.336,1.294-.721.37-1.521.729-2.672,1.258-.12-1.935-.246-3.214-.221-4.465.267-24.164.632-48.322.782-72.5a7.109,7.109,0,0,1,4.226-7.027q17.976-10.032,35.895-20.182v-.252q14.853-8.389,29.7-16.779c.936-.538,2-.9,3.47-1.556.154,1.549.371,2.715.361,3.865-.284,24.644-.612,49.282-.833,73.916a5.677,5.677,0,0,1-3.165,5.682q-15.036,8.4-30.023,16.879v-.023q-17.6,9.935-35.182,19.885Zm65.754,42.684q-15.007-8.249-30.081-16.381v-.09q-18.176-9.844-36.363-19.688c-.92-.507-1.773-1.155-3.355-2.2.4-.283.751-.54,1.095-.8,1.321-.732,2.292-1.274,3.26-1.789q17.686-9.527,35.363-19.046v-.25q15.148-8.162,30.272-16.368a6.928,6.928,0,0,1,7.595-.106c22.183,12.159,44.48,24.158,66.734,36.218,1.1.591,2.122,1.318,4.058,2.532-2.2,1.214-3.57,1.979-4.954,2.737-21.732,11.672-43.5,23.3-65.176,35.084a7.71,7.71,0,0,1-8.448.135Zm5.385,8.439a5.636,5.636,0,0,1,3.136-5.692c22.484-12.588,44.881-25.307,67.308-37.968.833-.477,1.735-.841,3.146-1.511.134,1.626.354,2.939.341,4.254-.277,24.459-.615,48.923-.839,73.388a5.629,5.629,0,0,1-3.088,5.714c-22.638,12.652-45.2,25.435-67.771,38.164-.694.388-1.447.672-2.871,1.322-.09-1.87-.211-3.083-.194-4.287.278-24.458.611-48.922.831-73.385Zm73.887-48.39c-1.541-.716-2.7-1.162-3.764-1.757q-33.219-18.843-66.46-37.667a5.628,5.628,0,0,1-3.37-5.51c-.13-24.8-.424-49.608-.642-74.419-.017-1.037.141-2.08.254-3.6,1.391.624,2.41,1,3.329,1.515q33.421,18.968,66.866,37.914a5.605,5.605,0,0,1,3.385,5.5c.137,24.807.424,49.6.655,74.41.012,1.045-.142,2.084-.255,3.608ZM1346.048,436.73c.271-24.311.615-48.616.813-72.928a5.992,5.992,0,0,1,3.336-6.057c22.2-12.409,44.312-24.983,66.466-37.5,1.073-.6,2.242-1.07,3.91-1.873.087,1.944.231,3.439.211,4.937-.271,23.99-.639,47.985-.783,71.989a7.035,7.035,0,0,1-4.188,7c-21.655,12.092-43.209,24.353-64.8,36.537-1.351.769-2.724,1.511-4.669,2.593-.139-2.032-.312-3.365-.3-4.7Zm1.2-163.126c-.261-27.167-.516-53.963-.773-80.582a5.074,5.074,0,0,1,.73-.384.69.69,0,0,1,.443-.07c.88.4,1.779.778,2.618,1.236q34.844,19.78,69.823,39.646c.257,27.064.507,53.956.774,81.93-25.016-14.19-49.156-27.889-73.616-41.776Zm1.31,4.178c22.741,12.45,45.583,24.743,68.375,37.1.682.372,1.29.861,2.373,1.6a37.184,37.184,0,0,1-3.179,2.216q-33.615,18.127-67.219,36.253a6.213,6.213,0,0,1-6.732.316q-15.709-8.6-31.462-17.116v-.126q-17.463-9.461-34.945-18.908c-1.241-.682-2.414-1.476-4.1-2.513,1.2-.827,2-1.508,2.9-1.995q18.065-9.729,36.149-19.461v-.253q15.566-8.366,31.128-16.741a6.189,6.189,0,0,1,6.717-.368Zm-4.46-7.987a6.01,6.01,0,0,1-3.406,6.022q-15.257,8.544-30.468,17.158v-.038q-17.545,9.921-35.07,19.856c-.512.289-1.035.577-1.576.875-.781.4-1.621.785-2.659,1.283a28.075,28.075,0,0,1-.436-3.678c.275-24.644.605-49.279.846-73.923a5.663,5.663,0,0,1,3.076-5.74q18.192-10.162,36.309-20.409v-.19q8.6-4.837,17.208-9.667c5.314-2.99,10.68-5.906,16.73-9.236.123,1.822.287,3.038.274,4.232-.282,24.484-.622,48.967-.829,73.455Zm-73.54,48.865c.316.1.6.178.893.264,1.2.574,2.292,1.085,3.272,1.643q17.74,10.069,35.5,20.117v-.123q15.346,8.708,30.7,17.4a4.623,4.623,0,0,1,2.872,4.37c.153,25.576.415,51.139.632,76.708a18.713,18.713,0,0,1-.328,2.126c-1.727-.845-3.032-1.384-4.232-2.065q-14.58-8.269-29.152-16.553v-.092q-18.21-10.334-36.443-20.642a5.634,5.634,0,0,1-3.333-5.545c-.141-24.618-.422-49.25-.639-73.881-.009-1.094.131-2.2.258-3.732Zm-.029,84.955a7.4,7.4,0,0,1,1.59.631q19.025,10.416,38.105,20.719v-.131l29.24,15.825c1.1.586,2.113,1.293,3.6,2.225-1.444.931-2.4,1.681-3.47,2.254l-29.367,15.823v0q-18.974,10.2-37.941,20.427a11.944,11.944,0,0,1-1.369.622,6.891,6.891,0,0,1-.844.254c-.054.014-.107.022-.161.035a5.434,5.434,0,0,1-2.24-.03,7.493,7.493,0,0,1-1.608-.65c-22.612-12.357-45.306-24.574-67.964-36.857-.816-.439-1.548-1.019-2.785-1.835,1.478-.958,2.565-1.783,3.755-2.44q33.413-17.983,66.83-35.964a8.455,8.455,0,0,1,3.133-1.091l.059.005a6.2,6.2,0,0,1,1.438.181ZM1131.567,578.5c18.007,10.23,36,20.478,54.085,30.595.5.3.976.593,1.419.865a6.851,6.851,0,0,1,3.671,6.6c.077,24.026.381,48.059.6,72.089.009,1.441-.106,2.892-.2,4.835-1.656-.815-2.991-1.426-4.205-2.126-21.588-12.248-43.13-24.558-64.789-36.684a6.98,6.98,0,0,1-4.2-6.97c-.067-24.036-.375-48.062-.592-72.079-.018-1.32.083-2.654.173-4.357,1.864.753,7.132,3.492,14.045,7.227Zm-14.02-14.8q.413-37.158.85-74.32a4.956,4.956,0,0,1,2.654-5q34.537-19.386,69-38.919a10.738,10.738,0,0,1,1.56-.591c.1,1.593.232,2.771.213,3.926-.286,24.463-.614,48.93-.846,73.386a5.749,5.749,0,0,1-2.017,5.037c-.179.134-.354.27-.56.4-.155.1-.3.2-.471.3-22.635,12.646-45.176,25.445-67.747,38.189-.425.238-.92.465-1.486.722-.232.1-.446.186-.731.309a24.964,24.964,0,0,1-.42-3.438Zm73.147,44.521c-.066-.021-.138-.057-.206-.08a8.152,8.152,0,0,1-.89-.415c-22.619-12.393-45.334-24.618-68.008-36.905-.833-.452-1.591-1.028-2.831-1.822a30.369,30.369,0,0,1,3.182-2.289c22.279-12.015,44.6-23.968,66.85-36.054a8.73,8.73,0,0,1,3.679-1.172,7.322,7.322,0,0,1,3.436.987c22.334,12.233,44.771,24.3,67.155,36.438.926.5,1.8,1.133,3.458,2.2-1.5.928-2.593,1.67-3.717,2.3-.322.175-.637.345-.952.512q-32.8,17.662-65.594,35.331a16.8,16.8,0,0,1-1.583.772,5.8,5.8,0,0,1-3.289.412,6.191,6.191,0,0,1-.692-.206Zm6.094-162.174q33.672,19.059,67.278,38.16a4.572,4.572,0,0,1,3.005,4.277c.137,25.749.391,51.478.605,77.221a5.969,5.969,0,0,1-.357,1.332c-12.352-6.428-24.12-13.508-36.091-20.236-12.2-6.857-24.353-13.833-36.595-20.784-.257-27-.514-53.738-.767-81.027a16.744,16.744,0,0,1,2.921,1.058Zm-2.866-9.271c.284-24.459.612-48.924.832-73.392a5.647,5.647,0,0,1,3.165-5.667c22.478-12.578,44.88-25.3,67.3-37.974.724-.4,1.541-.746,2.578-1.23a25.836,25.836,0,0,1,.391,3.563c-.267,24.625-.615,49.244-.829,73.846a5.65,5.65,0,0,1-3.139,5.708c-22.587,12.632-45.1,25.393-67.66,38.105-.653.337-1.392.638-2.471,1.1-.078-1.743-.192-2.915-.172-4.066Zm.288,179.8a7.1,7.1,0,0,1,4.212-7.014c21.51-12,42.919-24.146,64.358-36.245q2.1-1.155,4.325-2.381a14.167,14.167,0,0,1,.6,3.065q-.4,37.644-.859,75.306a8.839,8.839,0,0,1-.076.924,6.831,6.831,0,0,1-3.368,4.218q-34.1,19.175-68.116,38.451a10.182,10.182,0,0,1-1.585.573c-.046-.182-.09-.353-.138-.531-.069-1.67-.157-3.005-.136-4.316.27-24.016.631-48.026.778-72.051ZM1254.1,307.16q-27.909-15.821-55.823-31.64l-.818-.51a4.441,4.441,0,0,1-2.4-4.111c-.157-25.585-.421-51.168-.638-76.753a8.864,8.864,0,0,1,.174-1.36c1.785.68,6.685,3.183,13.135,6.628,19.537,11.088,38.827,22.036,58.242,33.065.641.409,1.214.781,1.688,1.1.262,26.807.517,53.569.786,80.768a150.594,150.594,0,0,1-14.349-7.188Zm-59.21-29.628a9.509,9.509,0,0,1,1.791.762c22.183,12.166,44.481,24.152,66.734,36.214,1.046.558,2.044,1.26,3.768,2.361-1.4.908-2.416,1.631-3.438,2.22l-1.25.688c-21.392,11.488-42.814,22.933-64.143,34.529l-1.048.564a12.809,12.809,0,0,1-2.09.924l-.106.03a7.307,7.307,0,0,1-1.525.278,7.983,7.983,0,0,1-4.22-1.118c-21.892-12.025-43.915-23.845-65.881-35.743-1.24-.676-2.414-1.47-4.072-2.491,1.344-.928,2.267-1.719,3.323-2.292,22.287-12.025,44.6-23.979,66.844-36.077a8.713,8.713,0,0,1,3.341-1.1,7.174,7.174,0,0,1,1.971.252Zm-3.4-7.779a7.211,7.211,0,0,1-.76,3.637,6.686,6.686,0,0,1-2.438,2.2c-22.445,12.546-44.809,25.233-67.2,37.87-.621.318-1.316.652-2.121,1.035-.153.066-.313.136-.484.212a23.962,23.962,0,0,1-.443-3.546c.27-24.637.648-49.282.8-73.919a6.4,6.4,0,0,1,3.9-6.253c22.224-12.428,44.363-25,66.537-37.5a30.8,30.8,0,0,1,2.826-1.28c.1,1.752.228,2.932.217,4.091-.282,24.483-.606,48.97-.843,73.451Zm-43.3,65.4,30.021,17.038c6.279,3.667,11.068,6.568,12.918,7.893.244,26.3.494,52.793.754,80.262a151.289,151.289,0,0,1-14.662-7.336c-18.77-10.645-37.181-21.091-55.7-31.6-1.114-.7-2.04-1.3-2.749-1.778q-.383-40.209-.771-80.482c3.022,1.155,15.961,8.1,30.194,16Zm-30.173,68.217a5.939,5.939,0,0,1,1.19.466q34.578,18.848,69.217,37.564a19.528,19.528,0,0,1,1.869,1.373,22.466,22.466,0,0,1-2.5,1.821l-.332.183-7.911,4.27q-22.424,12.061-44.822,24.185-7.149,3.864-14.306,7.719a9.18,9.18,0,0,1-3.655,1.121,8.861,8.861,0,0,1-4.4-1.282c-21.722-11.967-43.583-23.691-65.386-35.51-1.247-.672-2.427-1.463-4.122-2.494a34.663,34.663,0,0,1,2.884-2q34.052-18.32,68.1-36.656a8.54,8.54,0,0,1,2.206-.843,5.933,5.933,0,0,1,1.966.085ZM965.236,570.838c.478.225.909.424,1.313.61,23.762,13.333,46.762,26.515,70,39.667a4.855,4.855,0,0,1,1.645,2.432c.247,25.87.49,51.684.736,78.318-.049.475-.1.988-.16,1.615-2.047-1.091-3.375-1.775-4.623-2.49-21.3-12.092-42.561-24.254-63.939-36.2a7.331,7.331,0,0,1-4.536-7.261c-.013-23.71-.344-47.425-.555-71.141-.019-1.573.061-3.171.121-5.548Zm-.119-8.191c.274-24.321.6-48.626.839-72.927a5.617,5.617,0,0,1,3.012-5.757c22.762-12.719,45.44-25.608,68.161-38.436q.832-.43,1.707-.779a13.056,13.056,0,0,1,.561,2.877c-.264,25.076-.6,50.162-.836,75.241a5.224,5.224,0,0,1-.71,2.776c-.082.131-.2.25-.292.375a6.465,6.465,0,0,1-2.013,1.686q-33.9,19.02-67.747,38.173a22.228,22.228,0,0,1-2.47,1.07c-.1-1.69-.231-3-.211-4.3Zm71.287,44.681c-21.88-12.011-43.879-23.824-65.831-35.718-1.237-.675-2.411-1.46-4.105-2.494,1.5-.979,2.59-1.806,3.771-2.455q33.416-17.989,66.831-35.971a8.592,8.592,0,0,1,3.13-1.094,6.159,6.159,0,0,1,1.49.18,7.325,7.325,0,0,1,1.6.636c22.608,12.373,45.3,24.589,67.958,36.873.767.409,1.488.943,2.844,1.853-1.312.877-2.25,1.587-3.264,2.138-.324.176-.638.345-.954.511q-29.946,16.112-59.866,32.263-3.093,1.671-6.192,3.336a11.12,11.12,0,0,1-1.841.794c-.085.027-.169.048-.253.071a6.68,6.68,0,0,1-1.221.19,7.887,7.887,0,0,1-4.1-1.116Zm5.378,8.494a6.417,6.417,0,0,1,3.9-6.263c22.224-12.424,44.364-24.99,66.537-37.5a29.589,29.589,0,0,1,2.717-1.23c.054.284.108.523.164.783.087,1.306.17,2.291.163,3.256-.285,24.481-.619,48.965-.812,73.449a6,6,0,0,1-3.48,5.97q-33.327,18.661-66.528,37.523c-.819.455-1.71.855-2.929,1.435l-.184.081c-.15-1.567-.35-2.823-.341-4.057.281-24.487.641-48.973.8-73.449Zm73.375-48.476c-1.885-1-3.23-1.688-4.515-2.423-21.424-12.139-42.815-24.372-64.321-36.409a7.015,7.015,0,0,1-4.268-6.941c-.06-24.02-.371-48.014-.583-72.038-.013-1.438.1-2.9.19-4.836q1.716.694,3.351,1.551L1111.4,483.9a5.263,5.263,0,0,1,3.423,5c.124,25.114.419,50.207.646,75.3a31.368,31.368,0,0,1-.317,3.143Zm-73.489-130.74c.284-24.174.632-48.338.812-72.518a6.7,6.7,0,0,1,3.854-6.745c22.111-12.306,44.1-24.8,66.133-37.239.845-.477,1.8-.895,2.97-1.462a16.264,16.264,0,0,1,.531,3.037c-.274,24.942-.607,49.9-.845,74.855a6.526,6.526,0,0,1-.591,2.889,5.312,5.312,0,0,1-.287.464,4.653,4.653,0,0,1-.46.589c-.129.146-.261.292-.412.432a7.256,7.256,0,0,1-1.278.908q-14.07,7.9-28.094,15.864l-15.967,9.016q-11.415,6.456-22.842,12.9c-.832.441-1.76.87-2.887,1.4-.131.055-.291.125-.437.187-.091-1.946-.208-3.268-.2-4.582Zm74.09-121.891c-12.556-6.5-24.294-13.6-36.252-20.3-12.211-6.857-24.359-13.82-36.618-20.8-.261-26.952-.51-53.714-.775-81.107a26.235,26.235,0,0,1,3.322,1.37q33.431,18.934,66.868,37.894a4.892,4.892,0,0,1,3.008,4.761c.157,25.265.438,50.544.672,75.814,0,.563-.1,1.164-.227,2.37Zm-73.342-37.372a9.678,9.678,0,0,1,1.82.772c22.188,12.165,44.481,24.158,66.731,36.207,1.01.545,1.974,1.223,3.532,2.22a26.68,26.68,0,0,1-2.147,1.686c-1.639.908-3.171,1.755-4.654,2.57q-7.185,3.875-14.374,7.747-17.373,9.333-34.714,18.711l-13.985,7.538a9.881,9.881,0,0,1-3.581,1.1,8.977,8.977,0,0,1-4.581-1.294c-21.581-11.919-43.316-23.572-65-35.331-1.314-.712-2.608-1.506-4.258-2.48l-.2-.163a26.164,26.164,0,0,1,2.851-2.14c22.42-12.095,44.891-24.125,67.268-36.29a9.474,9.474,0,0,1,2.7-.985,7.39,7.39,0,0,1,2.594.129Zm-3.187-7.043a5,5,0,0,1-2.681,4.987q-34.558,19.362-69.014,38.893c-.038.023-.083.039-.122.06-.331.139-.727.257-1.408.488-.1-1.619-.218-2.8-.2-3.951.281-24.465.615-48.917.836-73.382a5.65,5.65,0,0,1,3.116-5.7q33.935-19,67.737-38.205c.582-.331,1.254-.609,2.095-.98a15.648,15.648,0,0,1,.5,3c-.266,24.934-.6,49.867-.853,74.793Zm-73.338,47.888c24.6,13.954,48.635,27.6,72.962,41.4.257,26.941.517,53.845.783,81.28a15.68,15.68,0,0,1-2.827-1q-33.861-19.185-67.71-38.407a4.578,4.578,0,0,1-2.861-4.361c-.148-25.585-.419-51.177-.642-76.762a19.5,19.5,0,0,1,.3-2.155Zm.1,85.477a9.678,9.678,0,0,1,1.865.787c22.19,12.166,44.48,24.158,66.731,36.221,1.022.555,2.005,1.236,3.7,2.312-1.227.86-2.11,1.571-3.06,2.108-.533.294-1.043.574-1.541.843q-27.869,14.972-55.707,29.978-4.837,2.607-9.678,5.208a9.442,9.442,0,0,1-3.608,1.167,8.022,8.022,0,0,1-4.137-1.133C938.66,469.13,916.639,457.3,894.671,445.4c-1.244-.675-2.427-1.456-4.085-2.471a38.085,38.085,0,0,1,3.319-2.3c22.293-12.018,44.6-23.979,66.837-36.076a8.514,8.514,0,0,1,3.532-1.142,6.959,6.959,0,0,1,1.725.254ZM815.087,571.786q34.053,19.284,68.081,38.6a4.6,4.6,0,0,1,2.821,4.4q.25,38.34.635,76.7a13.16,13.16,0,0,1-.309,1.881c-1.5-.72-2.7-1.263-3.8-1.888-21.849-12.38-43.674-24.833-65.574-37.161a5.926,5.926,0,0,1-3.658-5.824c-.107-24.638-.4-49.263-.625-73.888-.013-1.056.081-2.117.147-3.517a9.058,9.058,0,0,1,2.283.7Zm-2.233-9.278c.277-24.02.628-48.024.8-72.041a7.085,7.085,0,0,1,4.1-7.094c21.833-12.143,43.541-24.484,65.3-36.748,1.1-.618,2.287-1.136,3.856-1.888.1,1.905.24,3.346.224,4.772-.281,24.02-.632,48.031-.792,72.051a7.062,7.062,0,0,1-4.13,7.052c-21.671,12.1-43.237,24.372-64.835,36.6-1.229.69-2.5,1.372-4.277,2.353-.111-2.172-.245-3.63-.242-5.061Zm70.889,44.54c-21.887-12.005-43.882-23.831-65.828-35.734-1.217-.666-2.35-1.492-4.128-2.644,1.922-1.063,3.272-1.812,4.63-2.549,22-11.826,44.029-23.591,65.961-35.539a8.085,8.085,0,0,1,3.538-1.093,7.932,7.932,0,0,1,3.547,1.093c22.036,12.082,44.162,23.978,66.262,35.943,1.216.669,2.336,1.488,3.9,2.5-1.632,1-2.782,1.8-4.009,2.465-21.975,11.845-44,23.633-65.921,35.587a8.783,8.783,0,0,1-3.974,1.208,8.968,8.968,0,0,1-3.984-1.234Zm5.817,8.525a5.331,5.331,0,0,1,3.069-5.26q33.932-19.011,67.733-38.209c.592-.33,1.282-.636,2.22-1.071a24.2,24.2,0,0,1,.425,3.447c-.268,24.772-.6,49.541-.842,74.323a8.318,8.318,0,0,1-.288,2.14,5.785,5.785,0,0,1-2.606,3.024q-34.621,19.42-69.168,38.96a5.419,5.419,0,0,1-1.164.348c-.092-1.352-.22-2.378-.207-3.383.284-24.765.611-49.542.832-74.321ZM947.7,558.8c-19.514-11.083-38.546-21.894-57.744-32.785q-.394-40.275-.78-80.671c4.035,1.514,25.812,13.388,44.733,24.1v.126l16.717,9.485c5.577,3.273,9.838,5.87,11.684,7.178.24,26.271.493,52.753.749,80.252A157.242,157.242,0,0,1,947.7,558.8Zm-58.486-120.99c.271-24.952.629-49.9.816-74.848a6.1,6.1,0,0,1,3.9-5.778q29.755-16.615,59.436-33.378c3.056-1.719,6.159-3.407,9.958-5.5.023.257.049.463.074.7.06,1.779.119,3.1.1,4.382-.281,24.168-.619,48.334-.8,72.511a6.05,6.05,0,0,1-3.467,5.993c-22.227,12.421-44.366,24.989-66.536,37.5-.845.485-1.785.9-2.945,1.444a16.144,16.144,0,0,1-.538-3.031Zm74.211-122.856c-1.884-1-3.226-1.692-4.5-2.424-21.438-12.153-42.823-24.372-64.327-36.41a7.022,7.022,0,0,1-4.3-6.934c-.056-24.01-.364-48.018-.574-72.027-.013-1.454.094-2.922.171-4.858a36.612,36.612,0,0,1,3.347,1.532q33.205,18.819,66.4,37.651a5.3,5.3,0,0,1,3.443,5c.118,25.1.411,50.194.636,75.3a30.037,30.037,0,0,1-.3,3.167Zm-72-37q34.142,18.617,68.385,37.081c.686.371,1.294.864,2.581,1.738-1.595.992-2.628,1.719-3.735,2.308q-33.41,17.984-66.8,35.994a8.165,8.165,0,0,1-3.33,1.086,7.008,7.008,0,0,1-3.327-.955c-22.46-12.28-45.022-24.427-67.539-36.621-.823-.444-1.588-1-2.842-1.8a32.544,32.544,0,0,1,3.136-2.234l67.663-36.441a7.449,7.449,0,0,1,2.936-.968,6.03,6.03,0,0,1,2.871.811Zm-4.607-8.3a6.033,6.033,0,0,1-3.529,5.951c-22.348,12.505-44.618,25.128-66.919,37.693-.722.406-1.526.758-2.523,1.214a16.136,16.136,0,0,1-.507-2.989q.416-37.407.856-74.79a5.024,5.024,0,0,1,2.7-4.985q34.559-19.356,69.014-38.9a10.237,10.237,0,0,1,1.51-.561c.1,1.634.232,2.811.22,3.976-.283,24.459-.63,48.927-.82,73.385ZM817.453,320.5c21.863,12.386,43.7,24.839,65.6,37.187a5.588,5.588,0,0,1,3.463,5.449c.127,24.817.411,49.619.645,74.42.014.925-.073,1.86-.107,2.67a5.291,5.291,0,0,1-.561.349l-.084.031a26.889,26.889,0,0,1-2.488-1.152q-34.873-19.779-69.849-39.652c-.253-26.94-.517-53.665-.77-81.34C815.131,319.333,816.345,319.861,817.453,320.5Zm-1.668,83.994q33.07,18.095,66.306,35.958c1.113.6,2.146,1.341,4.085,2.539-2.163,1.187-3.534,1.975-4.914,2.715q-32.814,17.653-65.595,35.324a8.88,8.88,0,0,1-3.937,1.3,6.513,6.513,0,0,1-2.733-.854c-22.614-12.383-45.319-24.618-67.991-36.9-.832-.444-1.591-1.021-2.8-1.811a33.2,33.2,0,0,1,3.2-2.3c22.271-12.005,44.609-23.947,66.825-36.063a8.11,8.11,0,0,1,3.773-1.109,8.883,8.883,0,0,1,3.78,1.208ZM671.516,658.229c-4.8-2.837-8.52-5.119-10.387-6.418-.247-26.6-.5-53.4-.763-81.32,24.959,14.182,48.868,27.76,73.107,41.521q.4,40.278.783,80.635c-3.22-1.179-17.721-8.953-33.084-17.5v-.094q-14.878-8.435-29.656-16.823Zm-11.1-95.8c.277-24.02.655-48.034.772-72.05a7.4,7.4,0,0,1,4.4-7.341c1.956-1.091,3.9-2.2,5.858-3.293,20.019-11.176,39.955-22.488,59.921-33.746a30.754,30.754,0,0,1,3-1.358,34.52,34.52,0,0,1,.338,3.667c-.284,24.644-.612,49.282-.832,73.916a5.675,5.675,0,0,1-3.165,5.682c-22.374,12.5-44.655,25.15-66.965,37.744-.841.482-1.782.877-3.194,1.524-.07-2.067-.15-3.416-.13-4.745Zm71.327,44.9c-21.892-12.034-43.915-23.847-65.881-35.743-1.244-.682-2.427-1.469-4.089-2.488,1.347-.928,2.263-1.729,3.312-2.3,22.281-12.018,44.605-23.972,66.848-36.07a8.543,8.543,0,0,1,3.553-1.149,7.522,7.522,0,0,1,3.552,1.043c22.183,12.159,44.48,24.158,66.734,36.218,1.1.591,2.123,1.318,4.058,2.532-2.2,1.214-3.57,1.979-4.954,2.737-21.732,11.672-43.5,23.3-65.176,35.084a9.566,9.566,0,0,1-3.972,1.292,8.3,8.3,0,0,1-3.984-1.156Zm5.385,8.439a5.634,5.634,0,0,1,3.136-5.692c22.484-12.588,44.881-25.307,67.308-37.968.724-.415,1.561-.776,2.678-1.294.134,1.52.332,2.785.319,4.037-.278,24.459-.615,48.923-.839,73.388a5.629,5.629,0,0,1-3.089,5.715c-22.638,12.652-45.2,25.435-67.77,38.164-.607.339-1.287.614-2.393,1.108-.089-1.741-.2-2.919-.182-4.072.275-24.458.612-48.921.832-73.384Zm73.416-48.6c-1.291-.584-2.351-1.019-3.292-1.546q-33.22-18.843-66.461-37.667a5.627,5.627,0,0,1-3.369-5.51c-.13-24.8-.425-49.608-.641-74.419-.016-.983.124-2,.235-3.39,1.133.495,2.056.863,2.858,1.309q33.42,18.968,66.865,37.914a5.6,5.6,0,0,1,3.385,5.5c.137,24.808.424,49.6.655,74.41.013.991-.124,2-.237,3.4ZM737,436.729c.272-24.311.615-48.616.813-72.928a5.992,5.992,0,0,1,3.335-6.057c22.2-12.409,44.313-24.983,66.466-37.5.955-.536,2.041-1,3.434-1.651.087,1.826.217,3.279.2,4.715-.271,23.99-.639,47.985-.783,71.989a7.036,7.036,0,0,1-4.189,7c-21.655,12.092-43.209,24.353-64.8,36.537-1.234.7-2.509,1.4-4.2,2.333-.134-1.877-.291-3.168-.277-4.439ZM738.2,273.6c-.261-27.167-.515-53.963-.772-80.582a5.193,5.193,0,0,1,.729-.384c.024-.01.051,0,.077-.012.84.382,1.694.742,2.494,1.178q34.844,19.78,69.823,39.646c.257,26.974.506,53.777.772,81.65-24.839-14.089-48.825-27.7-73.125-41.5Zm.82,4.178c22.741,12.45,45.583,24.743,68.375,37.1.682.372,1.29.861,2.374,1.6a37.108,37.108,0,0,1-3.179,2.216q-33.615,18.127-67.218,36.253a8.809,8.809,0,0,1-3.148,1.121,5.968,5.968,0,0,1-3.094-.8c-22.748-12.459-45.576-24.747-68.375-37.1-.629-.353-1.229-.824-2.469-1.677,1.065-.745,1.833-1.368,2.656-1.826.268-.149.534-.295.788-.434q5.834-3.143,11.673-6.285,27.707-14.88,55.393-29.792a9.007,9.007,0,0,1,3.147-1.15,5.851,5.851,0,0,1,3.077.781Zm-4.459-7.987a6.011,6.011,0,0,1-3.406,6.022c-22.22,12.443-44.354,25.022-66.517,37.546-.846.488-1.793.9-2.924,1.432a9.421,9.421,0,0,1-.613-2.5c.261-25.272.622-50.53.819-75.8a5.75,5.75,0,0,1,.3-1.877v0a6.694,6.694,0,0,1,3.541-3.432q26.579-14.892,53.118-29.84c5.174-2.911,10.407-5.758,16.26-8.978.12,1.671.267,2.841.254,3.974-.281,24.484-.621,48.968-.828,73.456ZM663.721,319.6q33.847,19.161,67.66,38.359a4.622,4.622,0,0,1,2.871,4.37c.154,25.576.415,51.139.632,76.708a14.651,14.651,0,0,1-.292,1.911c-1.486-.712-2.7-1.236-3.778-1.85-21.852-12.392-43.672-24.843-65.581-37.146a5.972,5.972,0,0,1-3.7-5.816c-.11-24.632-.4-49.263-.629-73.894-.009-1.044.067-2.1.134-3.58a13.448,13.448,0,0,1,2.681.937Zm-.467,84.869c22.169,12.152,44.439,24.139,66.67,36.185,1.1.586,2.112,1.293,3.6,2.225-1.444.931-2.4,1.681-3.47,2.254q-33.615,18.109-67.235,36.226a7.408,7.408,0,0,1-3.256,1.01,6.592,6.592,0,0,1-2.97-.878c-22.464-12.284-45.019-24.43-67.526-36.624-.9-.483-1.753-1.1-3.17-2.032,1.3-.849,2.313-1.582,3.366-2.191.467-.257.918-.5,1.361-.742q30.828-16.576,61.636-33.182c1.325-.716,2.653-1.426,3.979-2.142a8.638,8.638,0,0,1,3.465-1.131,7.38,7.38,0,0,1,3.552,1.022ZM536.186,586.266q14.278,8.113,28.6,16.165c6.741,3.9,12.211,7.141,15.068,8.985a5.944,5.944,0,0,1,1.392,2.31c.255,26.136.507,52.5.762,79.963-.616-.306-1.122-.55-1.653-.807-23.822-13.523-46.76-26.548-69.757-39.6a6.01,6.01,0,0,1-1.913-3.158c-.245-26.074-.5-51.991-.745-78.006.016-.287.03-.534.046-.842,3.006,1.217,14.844,7.582,28.2,14.992Zm-28.013-22.611q.411-37.144.846-74.32a4.965,4.965,0,0,1,2.631-5.014q34.553-19.375,69-38.909c.034-.02.075-.035.11-.053.335-.151.742-.282,1.475-.542.106,1.577.228,2.748.221,3.9-.284,24.612-.622,49.224-.836,73.849a5.335,5.335,0,0,1-3.056,5.266q-34.132,19.137-68.163,38.424a17.534,17.534,0,0,1-1.805.817,23.991,23.991,0,0,1-.421-3.416Zm72.152,44.054c-22.771-12.454-45.613-24.763-68.436-37.126-.7-.388-1.34-.852-2.5-1.608a28.842,28.842,0,0,1,3.068-2.27q33.637-18.151,67.286-36.262c.38-.206.739-.353,1.1-.512a6.31,6.31,0,0,1,3.921-.3,6.9,6.9,0,0,1,1.233.487q33.932,18.531,68,36.886c.933.5,1.738,1.233,2.982,2.1-1.618,1-2.761,1.8-3.978,2.452q-33.23,17.9-66.439,35.8a8.525,8.525,0,0,1-3.332,1.13,5.938,5.938,0,0,1-2.912-.774Zm4.519,7.433a5.793,5.793,0,0,1,.169-1.1,6.587,6.587,0,0,1,2.8-3.736c.271-.17.521-.346.82-.513q26.571-14.881,53.108-29.836c5.157-2.893,10.383-5.74,16.317-9.014.036.144.071.289.109.438.074,1.746.172,3.084.156,4.4-.284,24-.648,48.024-.8,72.037a7.09,7.09,0,0,1-4.2,7.015c-21.682,12.091-43.23,24.372-64.845,36.6-1.064.6-2.2,1.213-3.553,1.956l-.266.089a14.2,14.2,0,0,1-.631-3.013c.268-25.109.625-50.221.819-75.323Zm73.267-47.927c-1.2-.621-2.37-1.275-3.559-1.909C631.1,552,608.212,539,585.255,525.961c-.253-26.959-.512-53.685-.769-81.075.26.087.491.158.738.234a17.137,17.137,0,0,1,2.573,1.091c22.3,12.62,44.561,25.31,66.875,37.882a4.9,4.9,0,0,1,3.009,4.76c.168,25.275.447,50.544.672,75.821.009.559-.1,1.159-.241,2.54ZM584.554,436.09c.271-23.991.644-47.989.785-71.986a7.049,7.049,0,0,1,4.172-7.014c21.528-12.005,42.919-24.187,64.367-36.314.721-.409,1.447-.811,2.235-1.243.683-.348,1.426-.671,2.408-1.136.139,1.753.3,3.012.285,4.235-.264,24.311-.608,48.613-.819,72.922a6.01,6.01,0,0,1-3.269,6.1c-22.494,12.553-44.9,25.262-67.352,37.914a28.206,28.206,0,0,1-2.7,1.223C584.608,438.761,584.534,437.426,584.554,436.09ZM632.814,300.5q-17.742-10.063-35.49-20.116c-4.764-2.8-8.573-5.116-10.8-6.59a3.89,3.89,0,0,1-.771-1.371c-.253-26.237-.513-52.707-.766-79.229.022-.135.037-.237.065-.412,2.694,1.027,12.4,6.153,23.977,12.5q20.615,11.7,41.1,23.336c3.64,2.171,6.492,3.935,8.156,5.068q.382,40.021.774,80.552c-2.757-1.023-13.624-6.788-26.252-13.743Zm-44.966-21.969c21.763,11.925,43.635,23.677,65.46,35.5,1.364.743,2.664,1.587,4.527,2.7-1.684,1.083-2.792,1.909-4,2.561q-33.23,17.879-66.463,35.776a9.649,9.649,0,0,1-2.716,1,6.937,6.937,0,0,1-2.315-.111,8.106,8.106,0,0,1-1.639-.668c-22.477-12.287-45.042-24.443-67.579-36.662q-1.568-.952-3.031-2.052c1.168-.823,2.049-1.532,3-2.063.276-.151.544-.3.809-.438,22-11.861,44.05-23.651,65.986-35.618a11.143,11.143,0,0,1,2.09-.889c.14-.042.277-.056.415-.089a6.935,6.935,0,0,1,1.244-.178,8.715,8.715,0,0,1,4.214,1.222Zm-5.726-8.862a6.009,6.009,0,0,1-3.47,5.987c-22.223,12.428-44.366,25-66.533,37.514-.849.474-1.8.893-3.007,1.474a24.7,24.7,0,0,1-.448-3.555c.275-24.641.613-49.279.833-73.916a6.179,6.179,0,0,1,1.706-4.72c.052-.049.085-.107.139-.155a8.476,8.476,0,0,1,1.287-.92c.152-.1.27-.2.433-.292,22.333-12.489,44.583-25.118,66.864-37.694.6-.324,1.293-.61,2.245-1.015.168-.065.368-.146.561-.223.1,1.725.224,2.906.208,4.074-.274,24.483-.621,48.964-.818,73.441ZM524.53,327.14l54.08,30.694q2.019,1.251,3.121,2.014.377,40.179.777,80.4c-2.735-1-13.611-6.761-26.236-13.71l-36.3-20.589c-4.914-2.9-8.72-5.236-10.6-6.546-.247-26.292-.5-52.812-.76-80.359,1.411.407,7.614,3.607,15.915,8.09ZM510.6,404.189c22.32,12.223,44.731,24.283,67.105,36.4.966.535,1.872,1.153,3.266,2.007a27.045,27.045,0,0,1-2.758,2.014q-34.037,18.364-68.068,36.73a9.106,9.106,0,0,1-1.232.539,7.178,7.178,0,0,1-3.847-.152,7.82,7.82,0,0,1-.731-.307Q470.2,462.8,435.952,444.337c-.635-.337-1.233-.809-2.48-1.671,1.053-.75,1.808-1.357,2.615-1.815.431-.238.845-.466,1.249-.685q33.346-17.938,66.692-35.9a8.25,8.25,0,0,1,3.106-1.013,6.782,6.782,0,0,1,3.467.932ZM359.77,572.805q32.809,18.584,65.6,37.19a5.612,5.612,0,0,1,3.526,5.43c.11,24.8.411,49.6.625,74.4.013.982-.145,1.986-.292,3.632-23.876-13.546-47.207-26.789-70.668-40.1A6.3,6.3,0,0,1,356.416,650c-.241-26.067-.489-52-.737-78.571.006-.2.012-.38.018-.594,1.772.831,2.976,1.342,4.074,1.965Zm-4.026-10.955c.277-23.834.634-47.668.778-71.515a7.085,7.085,0,0,1,4.119-7.046q22.968-12.8,45.821-25.817,9.965-5.637,19.933-11.269c.456-.252.938-.519,1.434-.79.475-.243,1.008-.459,1.8-.807a28.692,28.692,0,0,1,.372,3.673c-.273,24.612-.612,49.224-.825,73.856a5.643,5.643,0,0,1-3.222,5.647c-22.484,12.578-44.9,25.284-67.336,37.927-.726.415-1.544.735-2.781,1.281-.044-2.167-.117-3.649-.094-5.142ZM429.313,608.3a7.875,7.875,0,0,1-1.509-.627q-33.69-18.4-67.539-36.621c-.888-.488-1.741-1.1-3.191-2.031,1.365-.9,2.408-1.664,3.5-2.278.41-.226.809-.443,1.206-.656q32.773-17.617,65.55-35.285a8.925,8.925,0,0,1,3.53-1.179,7.279,7.279,0,0,1,3.555,1.006c22.16,12.159,44.44,24.132,66.667,36.175,1.09.6,2.113,1.31,3.607,2.244-1.4.932-2.36,1.672-3.423,2.245q-33.62,18.122-67.225,36.223a8.791,8.791,0,0,1-2.464.909,6.666,6.666,0,0,1-2.262-.126Zm3.107,7.937a6.662,6.662,0,0,1,2.575-5.9c.281-.2.559-.407.888-.6.133-.081.248-.165.391-.245,22.247-12.386,44.373-24.98,66.547-37.491a14.117,14.117,0,0,1,1.314-.629c.378-.161.766-.325,1.259-.537a16.971,16.971,0,0,1,.5,3.011c-.277,24.961-.605,49.909-.836,74.864a5.329,5.329,0,0,1-3.035,5.273q-33.947,19.03-67.8,38.234c-.6.329-1.279.606-2.425,1.111-.09-1.94-.21-3.271-.2-4.571.278-24.177.625-48.349.818-72.518ZM505.806,567.3c-1.871-.994-3.205-1.678-4.483-2.409-21.438-12.158-42.819-24.376-64.334-36.4a7.041,7.041,0,0,1-4.3-6.927c-.083-24.02-.377-48.008-.588-72.031-.016-1.458.088-2.924.159-4.874a34.682,34.682,0,0,1,3.326,1.5q33.2,18.824,66.414,37.639a5.638,5.638,0,0,1,3.459,5.467c.114,24.786.408,49.58.625,74.368.015.987-.132,2-.275,3.665Zm-73.524-129.94c.274-24.647.6-49.285.849-73.916a7.942,7.942,0,0,1,.538-3.088,5.748,5.748,0,0,1,.387-.655,4.784,4.784,0,0,1,.288-.4,6.377,6.377,0,0,1,.662-.7,6.779,6.779,0,0,1,1.214-.887c22.5-12.571,44.91-25.289,67.354-37.934.516-.263,1.1-.554,1.731-.852l1.048-.43c.029.144.06.269.091.413.063,1.734.143,3,.131,4.231-.285,24.163-.628,48.331-.833,72.508a6.353,6.353,0,0,1-3.544,6.431c-22.089,12.326-44.082,24.856-66.108,37.293-.959.544-2.031,1.012-3.375,1.65a28.448,28.448,0,0,1-.434-3.667Zm70.369-124.55c-23.521-13.335-46.274-26.256-69.149-39.242-.248-26.8-.5-53.466-.762-81.181,1.118.447,2,.766,2.8,1.111,23.539,13.355,46.269,26.254,69.082,39.2a4.3,4.3,0,0,1,1.252,1.779c.247,26.6.5,53.032.766,80.463-1.347-.7-2.652-1.423-3.983-2.132Zm-67.069-34.395c21.748,11.964,43.628,23.713,65.45,35.535,1.267.685,2.464,1.447,4.116,2.436a20.916,20.916,0,0,1-2.7,2.1q-34.057,18.383-68.137,36.726c-.342.184-.666.315-.994.454a7.415,7.415,0,0,1-4.406-.19Q394.13,336.5,359.265,317.63a13.886,13.886,0,0,1-1.557-1.2c.682-.53,1.257-.985,1.795-1.381a14.291,14.291,0,0,1,1.26-.793c21.013-11.323,42.062-22.586,63.028-34.011,1.138-.618,2.281-1.23,3.419-1.848a12.3,12.3,0,0,1,2.149-.931c.1-.029.19-.052.285-.078a7.286,7.286,0,0,1,1.307-.2,8.668,8.668,0,0,1,4.631,1.225Zm-5.73-8.132a4.984,4.984,0,0,1-2.721,4.956q-34.548,19.376-69.017,38.907a11.137,11.137,0,0,1-1.509.539c-.092-1.654-.206-2.84-.185-4.007.282-24.462.616-48.926.826-73.389a5.66,5.66,0,0,1,3.167-5.679c22.48-12.579,44.884-25.3,67.316-37.965.714-.4,1.522-.749,2.5-1.2a17.262,17.262,0,0,1,.476,3.036c-.278,24.922-.612,49.863-.852,74.8ZM356.51,318.13c24.6,13.961,48.639,27.6,72.96,41.406.259,26.928.523,53.839.787,81.267a15.365,15.365,0,0,1-2.828-1q-33.862-19.189-67.707-38.4a4.592,4.592,0,0,1-2.865-4.367c-.143-25.589-.408-51.174-.625-76.76a17.383,17.383,0,0,1,.277-2.151Zm2.441,86.523c21.913,12.011,43.929,23.841,65.891,35.746,1.23.667,2.4,1.458,4.048,2.485a40.714,40.714,0,0,1-3.366,2.317q-33.656,18.119-67.319,36.221a12.233,12.233,0,0,1-1.42.659,6.869,6.869,0,0,1-3.784-.1,6.22,6.22,0,0,1-.6-.236q-13.748-7.506-27.542-14.938v.108Q305,456.145,285.133,445.406c-1.244-.675-2.427-1.456-4.085-2.471a38.26,38.26,0,0,1,3.319-2.3q20.25-10.917,40.492-21.823v.009c8.719-4.7,17.443-9.387,26.139-14.128a9.006,9.006,0,0,1,3.972-1.241,8.665,8.665,0,0,1,3.983,1.2ZM206.041,571.787q34.051,19.284,68.081,38.6a4.6,4.6,0,0,1,2.821,4.4q.251,38.34.634,76.7a16.585,16.585,0,0,1-.346,2.1c-1.745-.848-3.036-1.412-4.255-2.1C251.126,679.1,229.3,666.644,207.4,654.316a5.927,5.927,0,0,1-3.656-5.824c-.107-24.638-.4-49.263-.626-73.888-.013-1.089.087-2.168.154-3.634a13.142,13.142,0,0,1,2.768.814Zm-2.725-9.278c.278-24.02.629-48.024.8-72.041a7.086,7.086,0,0,1,4.1-7.094c21.833-12.143,43.541-24.484,65.3-36.748,1.211-.682,2.508-1.226,4.333-2.116.1,2.026.254,3.514.238,5-.281,24.02-.633,48.031-.792,72.051a7.059,7.059,0,0,1-4.129,7.052c-21.673,12.1-43.237,24.372-64.835,36.6-1.341.752-2.7,1.479-4.754,2.616-.113-2.334-.261-3.83-.257-5.325ZM274.2,607.048c-21.887-12.005-43.882-23.831-65.827-35.734-1.217-.666-2.351-1.492-4.129-2.644,1.923-1.063,3.273-1.812,4.63-2.549,22-11.826,44.029-23.591,65.961-35.539a6.91,6.91,0,0,1,7.576,0q20.937,11.48,41.954,22.8v.079l25.075,13.574c.812.443,1.549,1.01,3.083,2.023-.112.069-.189.12-.3.187-1.816,1-3.026,1.667-4.221,2.31l-23.641,12.739v.222q-20.883,11.237-41.716,22.558A7.72,7.72,0,0,1,274.2,607.048Zm5.817,8.525a5.332,5.332,0,0,1,3.069-5.26q20.925-11.724,41.768-23.562v.031q11.985-6.78,23.975-13.554c.716-.411,1.44-.812,2.229-1.244.617-.326,1.3-.628,2.341-1.119.109,1.9.238,3.175.219,4.44-.268,24.308-.626,48.622-.826,72.924a5.99,5.99,0,0,1-3.43,6q-12.521,7-25,14.076v.228l-43.314,24.4a10.442,10.442,0,0,1-1.645.477c-.094-1.425-.231-2.471-.217-3.512.283-24.764.608-49.541.829-74.32Zm47.04-63.079c-15.649-8.888-31.122-17.676-46.646-26.483q-.4-40.353-.782-80.826c2.2.411,24.933,12.775,44.735,23.977v.4L349.985,484.1c1.227.764,2.214,1.4,2.932,1.9q.378,40.162.778,80.4c-2.753-.989-13.827-6.849-26.633-13.9ZM279.673,437.807c.271-24.952.629-49.9.817-74.848a6.1,6.1,0,0,1,3.9-5.778q29.755-16.615,59.436-33.378c2.885-1.623,5.833-3.23,9.349-5.166.2-.088.393-.173.616-.273.139,1.576.356,2.844.339,4.078-.271,24.482-.595,48.966-.832,73.44a5.661,5.661,0,0,1-3.066,5.737q-12.956,7.242-25.86,14.557v.23Q304,427.891,283.649,439.4c-.96.551-1.986.979-3.391,1.651a19.342,19.342,0,0,1-.585-3.237Zm2.7-159.851q20.966,11.432,41.994,22.771v.148q12.712,6.887,25.423,13.776c.952.5,1.817,1.147,3.455,2.185l-.031.02c-2.073,1.147-3.324,1.845-4.577,2.534q-12.14,6.525-24.27,13.071v.223q-20.791,11.185-41.562,22.4a6.57,6.57,0,0,1-7.147.131c-22.461-12.28-45.022-24.427-67.539-36.621-.823-.444-1.589-1-2.843-1.8a32.678,32.678,0,0,1,3.136-2.234l67.664-36.441a5.829,5.829,0,0,1,6.3-.156Zm-4.606-8.3a6.033,6.033,0,0,1-3.53,5.951c-22.347,12.505-44.617,25.128-66.917,37.693-.836.471-1.725.839-2.969,1.418a19,19,0,0,1-.552-3.193q.417-37.407.856-74.79a5.024,5.024,0,0,1,2.7-4.985q34.558-19.356,69.014-38.9a17.949,17.949,0,0,1,1.989-.727c.1,1.729.244,2.935.231,4.142-.284,24.46-.629,48.928-.819,73.386ZM208.4,320.5c21.864,12.386,43.7,24.839,65.6,37.187a5.588,5.588,0,0,1,3.464,5.449c.127,24.817.411,49.619.645,74.42.013.925-.073,1.86-.108,2.67a5.147,5.147,0,0,1-.561.349c-.133.051-.331.147-.434.1q-1.346-.544-2.629-1.217-34.873-19.779-69.849-39.652c-.254-27.017-.518-53.815-.772-81.575,2.132,1.035,3.433,1.579,4.642,2.275Zm-1.667,83.994q33.07,18.095,66.305,35.958c1.113.6,2.147,1.341,4.086,2.539-2.163,1.187-3.533,1.975-4.913,2.715q-32.815,17.653-65.595,35.324a6.577,6.577,0,0,1-7.16.445c-22.614-12.383-45.319-24.618-67.991-36.9-.831-.444-1.59-1.021-2.8-1.811a33.19,33.19,0,0,1,3.205-2.3c22.271-12.005,44.608-23.947,66.825-36.063a7.36,7.36,0,0,1,8.042.1ZM127.589,615.765a5.634,5.634,0,0,1,3.136-5.692c22.484-12.588,44.882-25.307,67.308-37.968.833-.477,1.736-.841,3.147-1.511.133,1.626.354,2.939.341,4.254-.278,24.459-.614,48.923-.839,73.388a5.628,5.628,0,0,1-3.089,5.714c-22.639,12.652-45.2,25.435-67.77,38.164-.7.388-1.447.672-2.871,1.322-.091-1.87-.211-3.083-.194-4.287.278-24.456.612-48.919.832-73.382Zm-5.384-8.439c-21.893-12.034-43.916-23.847-65.882-35.743-1.244-.682-2.427-1.469-4.088-2.488,1.347-.928,2.263-1.729,3.312-2.3,22.281-12.017,44.6-23.972,66.848-36.07a6.928,6.928,0,0,1,7.595-.106c22.183,12.159,44.48,24.158,66.734,36.218,1.1.591,2.121,1.318,4.058,2.532-2.2,1.214-3.57,1.979-4.954,2.737-21.732,11.672-43.5,23.3-65.176,35.084a7.71,7.71,0,0,1-8.447.137Zm79.272-39.95c-1.541-.716-2.7-1.162-3.764-1.757q-33.219-18.843-66.46-37.667a5.625,5.625,0,0,1-3.369-5.51c-.13-24.8-.425-49.608-.642-74.419-.016-1.037.14-2.08.254-3.6,1.39.624,2.411,1,3.329,1.515q33.421,18.968,66.865,37.914a5.607,5.607,0,0,1,3.386,5.5c.136,24.808.424,49.6.655,74.41.014,1.047-.14,2.086-.254,3.61ZM127.459,436.728c.271-24.311.615-48.616.813-72.928a5.992,5.992,0,0,1,3.337-6.057c22.2-12.409,44.313-24.983,66.466-37.5,1.072-.6,2.241-1.07,3.91-1.873.088,1.944.232,3.439.212,4.937-.271,23.99-.639,47.985-.784,71.989a7.035,7.035,0,0,1-4.188,7c-21.656,12.092-43.209,24.353-64.8,36.537-1.351.769-2.725,1.511-4.67,2.593-.137-2.03-.312-3.362-.3-4.7Zm1.2-163.126c-.261-27.167-.515-53.963-.772-80.582a5.171,5.171,0,0,1,.728-.384.7.7,0,0,1,.445-.07c.88.4,1.779.778,2.618,1.236q34.844,19.781,69.822,39.647c.258,27.064.508,53.956.776,81.93-25.015-14.189-49.157-27.887-73.617-41.775Zm1.311,4.178c22.741,12.45,45.583,24.743,68.375,37.1.682.372,1.29.861,2.372,1.6a37.043,37.043,0,0,1-3.179,2.216q-33.614,18.127-67.217,36.252a6.214,6.214,0,0,1-6.733.316c-22.748-12.459-45.576-24.747-68.375-37.1-.679-.381-1.29-.88-2.751-1.873,1.9-1.053,3.139-1.748,4.376-2.42q33.217-17.85,66.416-35.72a6.19,6.19,0,0,1,6.716-.368ZM121.275,439.1C99.423,426.708,77.6,414.257,55.694,401.954a5.971,5.971,0,0,1-3.7-5.816c-.111-24.632-.4-49.263-.629-73.894-.01-1.082.073-2.161.14-3.723a19.213,19.213,0,0,1,3.165,1.082q33.847,19.161,67.661,38.359a4.624,4.624,0,0,1,2.871,4.37c.154,25.576.415,51.139.631,76.708a18.265,18.265,0,0,1-.328,2.126c-1.728-.844-3.031-1.381-4.231-2.065ZM51.65,490.375a7.414,7.414,0,0,1,4.452-7.38c21.977-12.223,43.826-24.653,65.722-37,.936-.538,2-.9,3.469-1.556.155,1.549.371,2.715.362,3.865-.284,24.644-.612,49.282-.833,73.916a5.675,5.675,0,0,1-3.165,5.682C99.282,540.4,77,553.051,54.691,565.645c-.938.538-1.958.944-3.676,1.745-.07-2.205-.157-3.585-.137-4.965C51.154,538.4,51.533,514.391,51.65,490.375ZM51.59,651.81c-.248-26.69-.505-53.581-.766-81.6,25.139,14.284,49.2,27.948,73.6,41.8q.4,40.351.786,80.783c-3.657-.611-63.849-34.184-73.62-40.984Zm-1.2,163.424c.27-24.3.622-48.606.818-72.914a5.992,5.992,0,0,1,3.384-6.019c22.2-12.431,44.312-25,66.473-37.5,1.063-.615,2.212-1.069,3.8-1.8.112,1.78.292,3.118.279,4.463-.279,24.158-.659,48.309-.793,72.46a7.065,7.065,0,0,1-4.235,6.986c-21.518,12.009-42.928,24.174-64.363,36.3-1.5.845-3,1.658-5.061,2.789-.137-2.072-.314-3.424-.3-4.766Zm145.906,8.4q-33.635,18.142-67.285,36.249a5.808,5.808,0,0,1-6.289.317q-34.372-18.752-68.866-37.367c-.661-.359-1.233-.871-2.4-1.7,1.571-.989,2.476-1.642,3.45-2.174C76.915,807.1,98.968,795.328,120.9,783.349a8.467,8.467,0,0,1,9.333-.019c21.6,11.893,43.333,23.553,65.021,35.3,1.364.749,2.681,1.588,4.536,2.692-1.473.988-2.427,1.742-3.49,2.314Zm-68.824-45.242q-.395-40.4-.772-80.883c4.247,1,61.433,32.92,73.6,40.972.264,26.664.515,53.6.785,81.683-25.155-14.274-49.224-27.934-73.614-41.773Zm71.412-44.448q-33.912-18.527-67.968-36.848c-.815-.442-1.551-1.021-2.778-1.841,1.474-.967,2.574-1.78,3.758-2.436q33.424-17.978,66.831-35.967a6.188,6.188,0,0,1,6.715-.256c22.6,12.371,45.3,24.584,67.951,36.861.819.438,1.554,1,3.111,2.039-1.847,1.012-2.965,1.646-4.088,2.251Q239,715.707,205.6,733.718a6.176,6.176,0,0,1-6.715.228Zm3.74,81.89c.271-24.631.606-49.279.846-73.91a5.664,5.664,0,0,1,3.075-5.753c22.645-12.671,45.206-25.48,67.8-38.225a30.117,30.117,0,0,1,2.851-1.155c.09,1.86.211,3.086.2,4.312q-.421,36.741-.829,73.449a5.664,5.664,0,0,1-3.1,5.718q-33.771,18.877-67.393,37.984c-.8.451-1.688.794-3,1.406a30.986,30.986,0,0,1-.452-3.826Zm144.8,8.5q-11.522,6.2-23.056,12.389v.239q-21.137,11.343-42.231,22.763a7.281,7.281,0,0,1-8.023.077c-22.033-12.1-44.2-24-66.31-35.968-1.126-.6-2.185-1.312-3.687-2.228a19.965,19.965,0,0,1,2.6-2.091q34.043-18.378,68.13-36.739a5.482,5.482,0,0,1,5.871-.285q21.8,11.882,43.645,23.7v.1l23.6,12.786c1.207.659,2.316,1.485,4.149,2.676-1.992,1.094-3.333,1.851-4.7,2.583Zm5.5-4.923c-.6-.186-1.135-.345-1.629-.514l-26.44-15v.17q-21.178-12.023-42.363-24.026a4.6,4.6,0,0,1-2.855-4.373Q279.41,737.292,279,698.9a11.328,11.328,0,0,1,.187-1.367c2.15.3,25.066,12.7,45.186,24.122v.5q12.365,7.021,24.748,14.028a5.629,5.629,0,0,1,3.391,5.49c.126,24.811.423,49.609.648,74.419,0,.907-.111,1.853-.228,3.316Zm1.215-85c-.111-.006-.221,0-.332-.015a8.59,8.59,0,0,1-1.488-.3,11.75,11.75,0,0,1-2.3-.988c-8.361-4.619-16.771-9.159-25.166-13.721v.127q-19.763-10.733-39.545-21.432c-1.532-.826-3.036-1.671-5.084-2.817a38.279,38.279,0,0,1,3.409-2.423q20.607-11.105,41.221-22.2v.01q12.829-6.92,25.648-13.853c.206-.1.41-.2.611-.286.224-.112.439-.2.656-.288a7,7,0,0,1,4.425-.28,9.7,9.7,0,0,1,1.6.676c22.327,12.236,44.771,24.3,67.169,36.428.945.522,1.821,1.181,3.459,2.286-4.075,2.238-7.424,4.13-10.811,5.961-19.589,10.539-39.239,21-58.768,31.665a10.041,10.041,0,0,1-4.7,1.454Zm1.074,82.18c.274-25.112.629-50.211.816-75.326a5.641,5.641,0,0,1,.166-1.055,6.9,6.9,0,0,1,3.018-3.882c.214-.128.4-.263.63-.39q26.587-14.872,53.109-29.84c5.188-2.915,10.431-5.754,16.267-8.971.146,1.456.314,2.459.311,3.436-.288,24.795-.636,49.593-.832,74.387a5.7,5.7,0,0,1-3.394,5.568q-33.531,18.8-66.935,37.8c-.719.409-1.535.755-2.557,1.222a13.1,13.1,0,0,1-.6-2.952Zm145.429,6.873q-33.614,18.123-67.228,36.249a7.916,7.916,0,0,1-3.289,1.069,6.24,6.24,0,0,1-2.947-.826c-22.6-12.367-45.3-24.593-67.946-36.867-.822-.445-1.559-1.028-3.126-2.052,2.23-1.226,3.765-2.1,5.319-2.926q30.364-16.312,60.7-32.681c1.5-.809,3-1.611,4.5-2.421a11.39,11.39,0,0,1,1.847-.8c.077-.025.154-.048.232-.071a6.709,6.709,0,0,1,1.262-.2,7.765,7.765,0,0,1,4.092,1.093c21.87,12.018,43.869,23.831,65.828,35.715,1.23.675,2.407,1.457,4.1,2.481-1.356.913-2.3,1.68-3.341,2.242Zm1.377-5.567q-33.185-18.838-66.39-37.622a5.614,5.614,0,0,1-3.406-5.475c-.124-24.625-.408-49.257-.628-73.882-.01-1.1.137-2.208.273-3.9.722.357,1.376.674,1.962.958,23.276,13.214,46.074,26.148,69.011,39.163a6.016,6.016,0,0,1,1.833,2.645c.252,26.4.506,52.708.767,79.864-1.606-.806-2.55-1.244-3.421-1.745ZM506.9,734.75a7.459,7.459,0,0,1-3.552-1.04c-22.193-12.165-44.479-24.148-66.733-36.207-1.067-.587-2.089-1.294-3.516-2.2.354-.294.67-.575.972-.842a18.562,18.562,0,0,1,2.226-1.5q27.764-14.977,55.536-29.966,5.747-3.1,11.495-6.2a11.192,11.192,0,0,1,1.56-.691c.068-.025.138-.062.205-.086a6.477,6.477,0,0,1,1.449-.256,7.293,7.293,0,0,1,3.7,1.034c22.194,12.169,44.483,24.151,66.737,36.211,1.045.569,2.047,1.278,3.8,2.392l.2.165c-2.023,1.122-3.253,1.814-4.5,2.482-22.01,11.826-44.056,23.613-66.019,35.548a8.638,8.638,0,0,1-3.553,1.156Zm.583,79.99c.3-24.151.626-48.306.836-72.454a7.271,7.271,0,0,1,.968-4.145c.068-.094.138-.188.213-.279a5.465,5.465,0,0,1,.689-.726,8.113,8.113,0,0,1,1.291-.922l.065-.042c22.351-12.485,44.607-25.141,66.9-37.719.169-.1.367-.182.543-.272.718-.347,1.486-.691,2.406-1.115a30.372,30.372,0,0,1,.372,3.593c-.277,24.618-.622,49.237-.832,73.859a5.644,5.644,0,0,1-3.209,5.651c-22.492,12.578-44.9,25.281-67.34,37.933-.72.411-1.54.733-2.744,1.268-.068-1.966-.165-3.3-.155-4.628Zm148.359,7.4c-1.511.842-2.687,1.5-3.855,2.12-21.852,11.755-43.742,23.453-65.523,35.333a8.083,8.083,0,0,1-4.335,1.122,9.413,9.413,0,0,1-3.605-1.192c-21.885-12.008-43.875-23.828-65.834-35.715-1.217-.659-2.34-1.5-3.871-2.494,1.658-1,2.821-1.793,4.057-2.465q27.57-14.84,55.138-29.7,5.639-3.04,11.282-6.073c.218-.118.419-.187.63-.288a10,10,0,0,1,1.1-.471c.206-.07.411-.1.615-.145a6.136,6.136,0,0,1,1.026-.149,8.059,8.059,0,0,1,3.678,1.1c22.03,12.078,44.167,23.985,66.256,35.951,1.193.654,2.3,1.469,3.992,2.545-.275.19-.5.346-.749.519Zm1.833-2.856a13.44,13.44,0,0,1-2.65-.9q-33.847-19.175-67.66-38.362a4.628,4.628,0,0,1-2.878-4.376c-.16-25.556-.421-51.129-.632-76.7a15.575,15.575,0,0,1,.292-1.929c1.482.713,2.683,1.238,3.764,1.853q32.794,18.593,65.564,37.18a9.894,9.894,0,0,1,2.483,1.835c.09.1.192.2.274.312a4.944,4.944,0,0,1,.984,3.161c.095,25.089.409,50.2.636,75.3.016.733-.087,1.494-.177,2.628Zm1.066-84.881a9.584,9.584,0,0,1-4.05-1.3c-21.728-11.951-43.585-23.7-65.387-35.519-1.237-.672-2.418-1.466-4.1-2.5,1.234-.842,2.035-1.492,2.945-1.988q34.042-18.33,68.1-36.656a10.341,10.341,0,0,1,1.155-.526,5.244,5.244,0,0,1,3.135-.15,6.152,6.152,0,0,1,1.08.427q34.579,18.839,69.214,37.571a22.247,22.247,0,0,1,2.136,1.614c-2.012,1.108-3.4,1.885-4.81,2.644-21.7,11.688-43.447,23.306-65.062,35.138a8.872,8.872,0,0,1-4.354,1.253Zm1.465,85.223c-.133-1.855-.286-3.142-.271-4.4.271-24.3.622-48.606.819-72.914a5.991,5.991,0,0,1,3.384-6.019c22.2-12.431,44.312-25,66.473-37.5.943-.545,2-.989,3.324-1.589.111,1.664.274,2.965.261,4.249-.277,24.158-.658,48.309-.792,72.46a7.069,7.069,0,0,1-4.236,6.985c-21.518,12.008-42.929,24.174-64.364,36.3-1.245.7-2.512,1.391-4.075,2.248-.149.05-.339.114-.522.178Zm145.146,4q-33.637,18.142-67.285,36.249a8.25,8.25,0,0,1-2.956,1.057,5.522,5.522,0,0,1-2.842-.741q-34.372-18.752-68.866-37.366a24.652,24.652,0,0,1-2.2-1.548,26.856,26.856,0,0,1,2.615-1.955c.211-.128.419-.253.63-.367,22.006-11.861,44.059-23.636,65.989-35.615a9.936,9.936,0,0,1,4.414-1.374,9.554,9.554,0,0,1,4.428,1.354c21.6,11.893,43.334,23.553,65.022,35.3,1.365.749,2.681,1.588,4.537,2.692-1.475.99-2.426,1.744-3.49,2.316Zm-68.334-45.242q-.393-40.319-.771-80.72c6.925,2.6,61.28,32.981,73.109,40.809.263,26.574.513,53.422.783,81.4-24.974-14.172-48.893-27.745-73.12-41.491Zm74.5-43.6a6.213,6.213,0,0,1-3.093-.846q-33.911-18.527-67.967-36.848c-.816-.442-1.551-1.021-2.778-1.841,1.473-.967,2.574-1.78,3.757-2.436q33.426-17.978,66.831-35.967a8.464,8.464,0,0,1,3.137-1.087,6.107,6.107,0,0,1,3.088.831c22.6,12.371,45.3,24.584,67.951,36.861.818.438,1.554,1.005,3.111,2.039-1.848,1.012-2.965,1.646-4.088,2.251q-33.42,17.96-66.817,35.971a8.248,8.248,0,0,1-3.134,1.076Zm.647,81.045c.271-24.631.606-49.279.847-73.91a5.663,5.663,0,0,1,3.074-5.753c22.646-12.671,45.206-25.48,67.8-38.225a20.474,20.474,0,0,1,2.371-.97c.09,1.749.2,2.944.187,4.126q-.421,36.741-.829,73.449a5.663,5.663,0,0,1-3.1,5.718q-33.771,18.877-67.392,37.984c-.693.39-1.5.727-2.542,1.2a27.1,27.1,0,0,1-.423-3.618ZM956.8,824.418c-21.886,11.755-43.785,23.459-65.611,35.311a8.874,8.874,0,0,1-3.753,1.205,8.008,8.008,0,0,1-3.779-1.128c-22.033-12.1-44.2-24-66.31-35.967-1.126-.6-2.185-1.312-3.686-2.228a19.865,19.865,0,0,1,2.6-2.091q34.041-18.378,68.13-36.74a7.618,7.618,0,0,1,2.757-.969,5.2,5.2,0,0,1,2.624.684q34.809,18.973,69.693,37.847a18.034,18.034,0,0,1,1.931,1.537c-1.885,1.052-3.233,1.81-4.6,2.541Zm5.669-5a14.634,14.634,0,0,1-2.729-.974q-33.867-19.189-67.7-38.4a4.6,4.6,0,0,1-2.855-4.373q-.231-38.378-.645-76.766a8.873,8.873,0,0,1,.169-1.234c3.979,1.406,25.963,13.339,45.205,24.266v.226q9,5.109,18.007,10.207c3.538,2.107,6.53,3.938,8.676,5.329a4.825,4.825,0,0,1,1.219,2.1c.249,26.075.5,52.044.751,78.494-.03.343-.06.708-.093,1.12Zm1.026-84.987a10.722,10.722,0,0,1-4.484-1.474c-21.3-11.762-42.758-23.268-64.156-34.87-1.532-.826-3.035-1.671-5.084-2.817a38.442,38.442,0,0,1,3.409-2.423c22.148-11.935,44.338-23.806,66.423-35.836a9.223,9.223,0,0,1,4.107-1.26,8.51,8.51,0,0,1,3.867,1.146c21.9,12.027,43.916,23.86,65.882,35.75,1.248.672,2.42,1.457,4.46,2.705-4.172,2.3-7.512,4.175-10.891,6-16.942,9.11-33.912,18.174-50.8,27.374-2.612,1.417-5.233,2.816-7.841,4.24a9.878,9.878,0,0,1-4.891,1.47Zm1.326,84.939c-.108-1.833-.219-3.156-.207-4.426.271-24.027.665-48.037.762-72.057a7.383,7.383,0,0,1,4.533-7.325c21.6-12.021,43.083-24.235,64.609-36.366l.534-.294c1.03-.566,2.166-1.07,3.708-1.8l.01.088c.057,2.057.14,3.4.124,4.712-.284,24.023-.638,48.024-.8,72.053a7.074,7.074,0,0,1-4.105,7.055l-.308.174c-21.576,12.038-43.037,24.261-64.536,36.435-.564.317-1.141.635-1.758.974-.7.352-1.449.681-2.468,1.159-.03-.135-.066-.247-.1-.378Zm145.207,4.157q-33.593,18.133-67.219,36.262a12.615,12.615,0,0,1-1.262.575,7.409,7.409,0,0,1-.92.3l-.074.016a5.4,5.4,0,0,1-2.3.03,7.41,7.41,0,0,1-1.678-.674c-22.6-12.364-45.29-24.583-67.951-36.864-.826-.448-1.558-1.021-3.136-2.059,1.939-1.079,3.182-1.77,4.453-2.461q33.2-17.849,66.4-35.731a9.9,9.9,0,0,1,2.441-.941,6.668,6.668,0,0,1,2.444.124,7.135,7.135,0,0,1,1.336.532c22.611,12.367,45.306,24.583,67.961,36.854.819.442,1.565,1,2.815,1.822-1.323.893-2.264,1.654-3.315,2.22Zm4.632-3.8c-.5-.251-.938-.47-1.327-.662l-70.172-39.827a4.955,4.955,0,0,1-1.463-2.126c-.253-26.359-.508-52.874-.767-80.093,1.854.916,3.186,1.516,4.408,2.223,21.565,12.223,43.083,24.535,64.725,36.633a6.97,6.97,0,0,1,4.116,7.008c.076,23.841.38,47.691.6,71.535.012,1.463-.065,2.958-.125,5.31Zm1.589-84.964a8.074,8.074,0,0,1-3.78-1.119c-22.036-12.108-44.2-24.008-66.306-35.993-1.117-.6-2.189-1.3-3.687-2.215a20.2,20.2,0,0,1,2.6-2.084q34.057-18.387,68.135-36.745a9.454,9.454,0,0,1,1.782-.74,6.25,6.25,0,0,1,2.714.111,5.966,5.966,0,0,1,.886.344q34.809,18.982,69.692,37.844a19.1,19.1,0,0,1,1.926,1.555c-1.892,1.037-3.243,1.793-4.6,2.533-21.883,11.752-43.788,23.46-65.618,35.308a11.724,11.724,0,0,1-2.021.894c-.117.036-.23.036-.345.066a6.741,6.741,0,0,1-1.379.244Zm.882,84.625c-.124-1.692-.282-2.991-.269-4.288.288-24.3.629-48.6.822-72.911a6,6,0,0,1,3.393-6.018c22.207-12.431,44.317-25,66.473-37.5.938-.533,2-.97,3.314-1.572.116,1.67.283,2.977.267,4.258-.274,24.161-.648,48.3-.782,72.464a7.079,7.079,0,0,1-4.194,6.973c-1.744.976-3.481,1.96-5.223,2.937q-30.084,16.817-60.058,33.821c-1.08.6-2.265,1.135-3.708,1.827Zm145.321,4.336q-15.155,8.166-30.321,16.334-2.631,1.415-5.26,2.834-15.792,8.5-31.575,17.01a7.376,7.376,0,0,1-6.729.06c-22.463-12.288-45.013-24.434-67.533-36.632-.819-.445-1.555-1.024-3.1-2.039,1.828-1.005,2.946-1.646,4.072-2.238q33.42-17.984,66.827-35.971a8.461,8.461,0,0,1,3.122-1.088,6.4,6.4,0,0,1,1.6.228,7.285,7.285,0,0,1,1.5.6c22.614,12.367,45.3,24.583,67.964,36.863.805.432,1.551,1.015,2.781,1.822-1.346.906-2.29,1.647-3.348,2.213Zm4.569-4.352c-.5-.157-.977-.286-1.424-.412a21.22,21.22,0,0,1-1.943-.934q-33.2-18.81-66.389-37.648a5.251,5.251,0,0,1-3.413-5.023c-.111-25.1-.409-50.191-.636-75.287-.008-.837.148-1.7.3-3.135l.183.087c1.808.959,3.1,1.629,4.352,2.338,21.424,12.152,42.819,24.375,64.32,36.419a7.015,7.015,0,0,1,4.266,6.947c.057,24.014.371,48.017.572,72.021.019,1.392-.092,2.814-.185,4.629Zm2.145-85.009a7.1,7.1,0,0,1-2.838-.2,12.306,12.306,0,0,1-2.246-.991c-21.729-11.954-43.591-23.684-65.391-35.516-1.243-.666-2.416-1.456-4.111-2.506,1.224-.832,2.029-1.5,2.928-1.976q34.048-18.334,68.091-36.675a6.5,6.5,0,0,1,2.989-.889,6.643,6.643,0,0,1,2.812.87q19.385,10.559,38.824,21.052V677.4q15.078,8.174,30.146,16.364a22.2,22.2,0,0,1,2.136,1.614c-2.012,1.108-3.4,1.885-4.81,2.644q-13.73,7.4-27.472,14.777v-.022q-18.9,10.175-37.741,20.441a12.335,12.335,0,0,1-1.88.813,8.242,8.242,0,0,1-1.032.276c-.135.033-.272.042-.406.065Zm.141,81.227c.277-24.455.614-48.92.839-73.382a5.623,5.623,0,0,1,3.1-5.705q18.764-10.493,37.466-21.093v-.252q14.47-8.181,28.945-16.357c1.062-.615,2.212-1.069,3.8-1.8.111,1.78.291,3.118.277,4.463-.277,24.158-.659,48.309-.792,72.46a7.068,7.068,0,0,1-4.235,6.985q-14.269,7.963-28.482,16.009V796.9q-19.59,11.054-39.185,22.1a10.894,10.894,0,0,1-1.547.556c-.082-1.617-.205-2.789-.185-3.959Zm145.583,8.042q-33.636,18.142-67.285,36.249a5.808,5.808,0,0,1-6.289.317q-15.273-8.333-30.6-16.6v-.142q-19.033-10.324-38.075-20.633c-.565-.294-1.053-.707-2.072-1.392a26.317,26.317,0,0,1,2.982-2.228q18.578-10.026,37.165-20.025v-.245q14.407-7.761,28.775-15.582a8.466,8.466,0,0,1,9.333-.02c21.6,11.893,43.334,23.552,65.022,35.3,1.364.749,2.681,1.588,4.537,2.692-1.473.99-2.427,1.744-3.492,2.316Zm-68.823-45.242q-.4-40.4-.772-80.883c4.245,1,61.432,32.92,73.6,40.972.264,26.664.515,53.6.785,81.683l-73.614-41.771Zm71.412-44.448q-33.913-18.527-67.969-36.848c-.815-.442-1.551-1.021-2.778-1.841,1.474-.967,2.574-1.78,3.758-2.436q33.425-17.978,66.831-35.967a6.188,6.188,0,0,1,6.715-.256c22.6,12.371,45.3,24.584,67.951,36.861.818.438,1.555,1,3.111,2.039-1.848,1.012-2.965,1.646-4.088,2.251q-33.421,17.96-66.818,35.971a6.174,6.174,0,0,1-6.715.229Zm3.74,81.891c.271-24.631.605-49.279.846-73.91a5.663,5.663,0,0,1,3.076-5.752c22.644-12.671,45.205-25.48,67.8-38.225a30.168,30.168,0,0,1,2.852-1.155c.091,1.86.21,3.086.2,4.312q-.421,36.741-.829,73.449a5.664,5.664,0,0,1-3.1,5.718q-33.771,18.877-67.392,37.984c-.8.451-1.687.794-3,1.406a31.047,31.047,0,0,1-.451-3.826Zm145.121,8.583c-21.885,11.755-43.784,23.459-65.61,35.311a7.281,7.281,0,0,1-8.023.077c-22.033-12.1-44.2-24-66.309-35.967-1.126-.6-2.185-1.312-3.688-2.228a20.006,20.006,0,0,1,2.6-2.091q34.043-18.377,68.132-36.739a5.48,5.48,0,0,1,5.87-.285q34.81,18.973,69.693,37.847a18.021,18.021,0,0,1,1.931,1.537c-1.886,1.052-3.23,1.81-4.6,2.541Zm2.451-5.977q-33.867-19.189-67.7-38.4a4.6,4.6,0,0,1-2.854-4.373q-.229-38.378-.646-76.766a11.633,11.633,0,0,1,.187-1.367c3.464.48,60.841,32.395,73.567,40.955.257,26.946.519,53.761.776,81.107a22.156,22.156,0,0,1-3.327-1.158Zm-.729-85.487c-21.3-11.762-42.759-23.267-64.157-34.87-1.531-.826-3.036-1.671-5.083-2.817a38.077,38.077,0,0,1,3.409-2.423c22.146-11.935,44.336-23.806,66.423-35.836a7.758,7.758,0,0,1,8.464-.115c21.9,12.027,43.916,23.86,65.881,35.75,1.248.672,2.42,1.457,4.459,2.705-4.171,2.3-7.511,4.175-10.891,6-19.6,10.539-39.259,20.979-58.757,31.687a8.824,8.824,0,0,1-9.747-.079Zm5.6,81.988c.27-24.027.665-48.037.762-72.057a7.383,7.383,0,0,1,4.533-7.325c21.689-12.073,43.267-24.34,64.885-36.522,1.215-.691,2.507-1.232,4.456-2.174.057,2.257.15,3.65.134,5.033-.284,24.023-.637,48.024-.8,72.053a7.078,7.078,0,0,1-4.118,7.062c-21.676,12.091-43.234,24.372-64.832,36.6-1.35.759-2.712,1.492-4.764,2.625-.12-2.332-.27-3.827-.257-5.3Zm145.9,8.583q-33.593,18.133-67.219,36.262a6.2,6.2,0,0,1-6.723.243c-22.6-12.364-45.289-24.583-67.951-36.864-.825-.448-1.557-1.021-3.135-2.059,1.939-1.079,3.183-1.77,4.454-2.461q33.2-17.849,66.4-35.731a6.194,6.194,0,0,1,6.712-.285c22.612,12.367,45.306,24.583,67.961,36.854.819.442,1.564,1,2.814,1.822-1.324.894-2.261,1.654-3.316,2.22Zm4.622-3.432c-24.874-14.118-48.919-27.766-73.429-41.676-.257-26.866-.518-53.886-.781-81.638,2.135,1.069,3.566,1.694,4.9,2.465,21.564,12.223,43.083,24.535,64.724,36.633a6.968,6.968,0,0,1,4.115,7.008c.077,23.841.381,47.691.6,71.535.014,1.543-.073,3.089-.133,5.674Zm-2.671-86.447c-22.036-12.108-44.2-24.008-66.305-35.993-1.117-.6-2.19-1.3-3.688-2.215a20.315,20.315,0,0,1,2.6-2.084q34.057-18.387,68.135-36.746a5.519,5.519,0,0,1,5.874-.285q34.809,18.982,69.692,37.844a19.048,19.048,0,0,1,1.925,1.556c-1.892,1.037-3.242,1.793-4.6,2.533-21.882,11.752-43.788,23.46-65.617,35.308a7.3,7.3,0,0,1-8.017.086Zm4.393,81.456c.288-24.3.629-48.6.823-72.911a6.005,6.005,0,0,1,3.393-6.018c22.207-12.431,44.317-25,66.473-37.5,1.059-.6,2.22-1.047,3.787-1.786.117,1.786.3,3.131.284,4.472-.274,24.161-.648,48.3-.782,72.464a7.085,7.085,0,0,1-4.225,6.995c-21.806,12.156-43.5,24.475-65.25,36.736-1.213.679-2.5,1.232-4.215,2.068-.127-1.816-.3-3.152-.287-4.513Zm146.08,8.625q-33.6,18.109-67.235,36.22a6.218,6.218,0,0,1-6.719.246c-22.6-12.367-45.292-24.586-67.954-36.861-.819-.445-1.554-1.024-3.1-2.039,1.828-1.005,2.944-1.646,4.071-2.238q33.42-17.984,66.827-35.971a6.168,6.168,0,0,1,6.713-.256c22.615,12.367,45.3,24.583,67.964,36.863.806.432,1.551,1.015,2.782,1.822-1.347.906-2.288,1.647-3.349,2.213Zm-64.4-124.367c21.424,12.152,42.819,24.375,64.32,36.419a7.015,7.015,0,0,1,4.266,6.947c.057,24.014.371,48.017.572,72.021.019,1.5-.111,3.016-.208,5.048-1.618-.739-2.774-1.168-3.834-1.767q-33.2-18.81-66.389-37.648a5.254,5.254,0,0,1-3.414-5.023c-.109-25.1-.408-50.191-.635-75.287-.01-.89.167-1.783.324-3.39,2.181,1.162,3.6,1.888,5,2.68Zm68.806-50.051a4.634,4.634,0,0,1-2.514,4.616q-34.563,19.434-69.047,38.977a18.983,18.983,0,0,1-2.183.775c-.07-2.043-.19-3.547-.167-5.049.271-24.016.632-48.024.78-72.05a7.1,7.1,0,0,1,4.211-7.014c21.826-12.172,43.547-24.5,65.3-36.778,1.113-.628,2.227-1.233,3.807-2.107a17.2,17.2,0,0,1,.669,3.323q-.4,37.647-.861,75.306Zm-70.063-203.261q33.673,19.059,67.279,38.16a4.572,4.572,0,0,1,3.005,4.277c.137,25.749.391,51.478.605,77.221a8.3,8.3,0,0,1-.425,1.559c-12.51-6.486-24.406-13.657-36.514-20.463-12.2-6.857-24.352-13.833-36.595-20.784-.257-27.051-.515-53.84-.768-81.183a23.542,23.542,0,0,1,3.411,1.217Zm70.575-50.124a5.65,5.65,0,0,1-3.138,5.708c-22.622,12.651-45.173,25.432-67.764,38.164-.682.387-1.451.659-2.845,1.29-.08-1.889-.2-3.1-.184-4.309.284-24.459.612-48.924.832-73.392a5.646,5.646,0,0,1,3.166-5.667c22.477-12.578,44.878-25.3,67.3-37.974.839-.467,1.735-.814,3.039-1.441a29.745,29.745,0,0,1,.421,3.775c-.267,24.625-.615,49.245-.828,73.849Zm.294-162.489c.264,27.007.522,53.963.793,81.369a15.146,15.146,0,0,1-2.925-.89Q1841,294.628,1806.937,275.3a4.618,4.618,0,0,1-2.828-4.4c-.157-25.585-.42-51.168-.639-76.753a22.936,22.936,0,0,1,.332-2.376c24.763,14.055,48.956,27.783,73.4,41.667Zm1.23-164.637c-.257,25.236-.585,50.476-.839,75.716a4.69,4.69,0,0,1-2.625,4.562q-34.754,19.506-69.445,39.111a12.331,12.331,0,0,1-1.644.48c-.091-1.581-.224-2.782-.208-3.976.279-24.619.606-49.234.826-73.862a5.318,5.318,0,0,1,3.062-5.253q33.912-19.03,67.723-38.218c.692-.394,1.444-.685,2.5-1.184a11.353,11.353,0,0,1,.646,2.627ZM1733.36,61.37c22-11.826,44.026-23.606,65.964-35.539a6.9,6.9,0,0,1,7.579.026c22.026,12.069,44.163,23.975,66.252,35.939,1.22.659,2.34,1.5,3.911,2.488-1.658,1.015-2.811,1.806-4.041,2.468-21.983,11.858-44.006,23.639-65.921,35.6a7.718,7.718,0,0,1-8.451-.051c-21.879-12.009-43.875-23.841-65.818-35.724-1.221-.659-2.337-1.5-4.119-2.648C1730.644,62.865,1732,62.1,1733.36,61.37Zm-5.63,4.866a13.676,13.676,0,0,1,2.768.807q34.069,19.291,68.084,38.6a4.6,4.6,0,0,1,2.828,4.393c.164,25.572.422,51.129.639,76.7a16.311,16.311,0,0,1-.344,2.106c-1.746-.854-3.038-1.414-4.253-2.094q-32.789-18.608-65.577-37.17a5.936,5.936,0,0,1-3.671-5.82c-.1-24.632-.394-49.269-.629-73.894,0-1.079.094-2.161.155-3.627Zm2.16,85.6c22.608,12.373,45.292,24.59,67.956,36.851.816.449,1.563,1.012,2.8,1.832-1.475.974-2.555,1.806-3.748,2.44q-33.4,18-66.814,36a6.183,6.183,0,0,1-6.705.269c-22.618-12.367-45.306-24.593-67.964-36.857-.819-.443-1.561-1.015-3.129-2.056,1.812-1,2.925-1.636,4.055-2.231q33.421-17.965,66.828-35.965a6.2,6.2,0,0,1,6.719-.278Zm-3.9-81.734c-.291,24.452-.618,48.914-.846,73.385a5.653,5.653,0,0,1-3.085,5.731c-22.635,12.629-45.186,25.416-67.774,38.157-.682.388-1.444.665-2.547,1.172a19.723,19.723,0,0,1-.531-3.2c.265-24.929.6-49.858.849-74.782a5.016,5.016,0,0,1,2.707-4.987q34.554-19.376,69.008-38.9a16.963,16.963,0,0,1,1.989-.73c.1,1.735.234,2.951.231,4.159Zm-145.2-8.471c21.865-11.784,43.778-23.492,65.551-35.416a8.055,8.055,0,0,1,8.9.067c21.752,11.947,43.625,23.7,65.45,35.522,1.254.68,2.451,1.457,4.089,2.44a19.988,19.988,0,0,1-2.715,2.125q-34.083,18.365-68.168,36.688a5.48,5.48,0,0,1-5.863.239q-34.61-18.862-69.292-37.6c-.545-.3-1.02-.73-2.307-1.671C1578.329,62.984,1579.55,62.3,1580.788,61.636Zm68.108,45.632c.258,27.1.522,53.979.782,81.946-25.028-14.205-49.164-27.9-73.612-41.766-.262-26.923-.522-53.856-.79-81.977,25.178,14.3,49.347,28.019,73.62,41.8Zm-72.005,44.125q34.794,18.944,69.639,37.8a18.506,18.506,0,0,1,1.779,1.482c-1.84,1.015-3.217,1.78-4.593,2.526-21.7,11.7-43.444,23.332-65.077,35.141a8.071,8.071,0,0,1-8.9.1c-21.846-12.05-43.849-23.843-65.8-35.74-1.117-.6-2.163-1.313-3.647-2.232a16.645,16.645,0,0,1,2.23-1.8q34.458-18.575,68.947-37.13a5.054,5.054,0,0,1,5.422-.143ZM1573.744,69.9c-.281,24.638-.6,49.275-.836,73.923a5.679,5.679,0,0,1-3.162,5.689c-22.371,12.518-44.635,25.179-66.942,37.782-.94.531-1.958.922-3.614,1.665-.113-1.837-.247-2.916-.237-3.992.284-24.638.642-49.276.825-73.923a6.061,6.061,0,0,1,3.588-5.939c22.226-12.421,44.376-24.977,66.552-37.491.94-.531,1.962-.932,3.426-1.619a36.276,36.276,0,0,1,.4,3.906Zm-146.6-7.821c22.425-12.091,44.889-24.116,67.279-36.281a6.915,6.915,0,0,1,7.6-.083c22.19,12.152,44.484,24.148,66.73,36.2,1.1.6,2.116,1.335,3.948,2.487-4.122,2.267-7.465,4.156-10.851,5.98-19.6,10.545-39.239,21-58.761,31.672a8.425,8.425,0,0,1-9.313.147C1472.333,90.35,1450.74,78.78,1429.2,67.1c-1.528-.83-3.032-1.684-5-2.785a26.262,26.262,0,0,1,2.943-2.235Zm-4.052,3.672c1.9.951,3.323,1.575,4.667,2.343,21.592,12.233,43.123,24.557,64.788,36.688a6.986,6.986,0,0,1,4.239,6.953c.067,24.023.375,48.052.593,72.073.013,1.508-.128,3.022-.208,5.1-1.9-.954-3.329-1.588-4.667-2.34-21.585-12.239-43.13-24.56-64.795-36.685a7.009,7.009,0,0,1-4.219-6.966c-.074-24.019-.374-48.04-.591-72.082-.02-1.493.107-2.993.194-5.084Zm3.26,86.649c21.732,11.967,43.618,23.706,65.443,35.535,1.264.682,2.467,1.447,4.069,2.4a13.137,13.137,0,0,1-2.109,1.93q-34.49,18.6-69,37.159a5.133,5.133,0,0,1-5.437.073q-34.834-18.959-69.7-37.838a17.476,17.476,0,0,1-1.727-1.338c1.624-1.014,2.77-1.808,4.008-2.471,21.858-11.781,43.76-23.492,65.546-35.4a8.08,8.08,0,0,1,8.909-.048Zm-5.061-82.294c-.264,24.48-.591,48.968-.829,73.446a5.617,5.617,0,0,1-3.072,5.727c-22.507,12.579-44.928,25.31-67.379,37.984-.816.458-1.7.807-3.353,1.578-.057-2.321-.141-3.845-.127-5.362.284-23.866.649-47.72.775-71.587a7.429,7.429,0,0,1,4.366-7.44c21.983-12.2,43.818-24.638,65.714-36.992.959-.541,2-.934,3.55-1.639C1421.086,67.511,1421.3,68.811,1421.289,70.108Zm-146.375-7.53q17.9-9.661,35.8-19.262v-.269q15.963-8.582,31.916-17.179a6.185,6.185,0,0,1,6.722-.246c22.6,12.357,45.3,24.577,67.955,36.854.822.449,1.555,1.015,2.784,1.828-1.351.9-2.307,1.645-3.355,2.218q-33.611,18.1-67.237,36.22a6.2,6.2,0,0,1-6.723.228q-16.009-8.753-32.063-17.427v-.081q-17.8-9.648-35.607-19.3c-.82-.431-1.544-1.021-2.734-1.811a28.91,28.91,0,0,1,2.544-1.768ZM1292,77.6c17.5,9.941,34.833,19.779,52.2,29.632.255,27.045.508,53.956.772,81.955-6.619-3.759-12.065-6.857-17.517-9.95q-8.378-4.757-16.753-9.519v-.107c-12.45-7.07-24.817-14.089-37.267-21.154a5.8,5.8,0,0,1-1.749-2.615q-.388-39.4-.768-79c2.414.831,10.722,5.13,21.078,10.755Zm-22.164,73.533a10.49,10.49,0,0,1,4.489,1.453q17.88,9.9,35.892,19.583v-.157q14.839,8.028,29.679,16.051c1.1.6,2.135,1.332,3.994,2.484-3.834,2.113-6.893,3.835-9.979,5.506l-38.934,20.958q-10.861,5.842-21.71,11.7a7.446,7.446,0,0,1-5.812.744,7.922,7.922,0,0,1-.853-.35c-22.632-12.37-45.326-24.606-68.011-36.9-.829-.439-1.568-1.009-2.973-1.944,1.729-1.068,2.766-1.793,3.872-2.387,21.715-11.708,43.484-23.319,65.116-35.171A10.755,10.755,0,0,1,1269.841,151.135Zm-.953-82.337c-.258,25.236-.585,50.476-.839,75.716a7.45,7.45,0,0,1-.085.825,6.836,6.836,0,0,1-3.411,4.227q-34.316,19.263-68.574,38.621a6.257,6.257,0,0,1-1.164.349c-.089-1.51-.214-2.687-.2-3.845.277-24.619.6-49.234.826-73.862a5.319,5.319,0,0,1,3.061-5.253q33.912-19.03,67.724-38.218c.585-.333,1.254-.615,2.074-.989a9.43,9.43,0,0,1,.584,2.43Zm-148.683-5.169c1.638-.9,2.877-1.6,4.1-2.258,22-11.826,44.027-23.606,65.966-35.539a7.807,7.807,0,0,1,3.626-1.067,8.121,8.121,0,0,1,3.462,1.093c22.026,12.069,44.162,23.975,66.252,35.939,1.22.659,2.34,1.5,3.911,2.488-1.658,1.015-2.811,1.806-4.042,2.468-21.983,11.858-44.006,23.639-65.921,35.6a11.322,11.322,0,0,1-1.708.731,8.066,8.066,0,0,1-1.1.3c-.063.013-.125.016-.187.027a6.861,6.861,0,0,1-2.821-.166,11.812,11.812,0,0,1-2.147-.938c-21.879-12.009-43.875-23.841-65.818-35.724-1.209-.654-2.32-1.485-4.073-2.618C1119.9,63.836,1120.035,63.741,1120.205,63.629Zm-1.53,2.724a9.235,9.235,0,0,1,2.283.69q34.069,19.291,68.084,38.6a4.9,4.9,0,0,1,2.621,2.886l.022.053a5.544,5.544,0,0,1,.185,1.454c.164,25.572.422,51.129.639,76.7a12.806,12.806,0,0,1-.3,1.891c-1.5-.725-2.707-1.265-3.8-1.879q-32.788-18.608-65.578-37.171a5.938,5.938,0,0,1-3.67-5.82c-.1-24.632-.4-49.269-.628-73.894,0-1.047.089-2.11.149-3.511Zm-1.419,84.668a5.265,5.265,0,0,1,.815.064q.287.024.57.076a7.3,7.3,0,0,1,1.71.68c22.608,12.373,45.292,24.59,67.957,36.851.8.44,1.543,1,2.742,1.791-.279.213-.513.4-.756.6a31.8,31.8,0,0,1-2.932,1.885q-33.395,18-66.814,36a9.365,9.365,0,0,1-2.574.967,5.651,5.651,0,0,1-.628.119,5.315,5.315,0,0,1-.642-.052,5.121,5.121,0,0,1-.654-.079,7.35,7.35,0,0,1-1.717-.686c-22.618-12.367-45.307-24.593-67.964-36.857-.82-.443-1.562-1.015-3.13-2.056,1.812-1,2.925-1.636,4.056-2.231q33.421-17.965,66.828-35.965a8.505,8.505,0,0,1,3.134-1.1Zm-.8-80.914c-.291,24.452-.618,48.914-.845,73.385a6.3,6.3,0,0,1-1.207,4.133,5.482,5.482,0,0,1-.451.548,7.33,7.33,0,0,1-.755.555,9.277,9.277,0,0,1-.843.591c-22.518,12.564-44.952,25.283-67.424,37.958-.521.269-1.1.545-1.762.849l-.516.227a16.737,16.737,0,0,1-.49-3c.264-24.929.6-49.858.849-74.782a5.016,5.016,0,0,1,2.708-4.987q34.553-19.376,69.007-38.9a9.848,9.848,0,0,1,1.509-.565c.1,1.642.222,2.828.219,3.994ZM971.738,61.636c21.865-11.784,43.779-23.492,65.551-35.416a8.848,8.848,0,0,1,4.367-1.244,9.6,9.6,0,0,1,4.048,1.311c21.752,11.947,43.625,23.7,65.45,35.522,1.254.68,2.451,1.457,4.088,2.44a20.019,20.019,0,0,1-2.715,2.125q-34.082,18.365-68.168,36.688c-.3.161-.574.265-.859.39a5.639,5.639,0,0,1-3.523.242,6.221,6.221,0,0,1-.99-.392Q1004.379,84.44,969.7,65.7c-.545-.3-1.02-.73-2.307-1.671,1.889-1.048,3.113-1.726,4.348-2.4Zm-1.767,6.24c23.65,13.428,46.485,26.394,69.385,39.392.256,27.009.52,53.8.78,81.666-24.852-14.1-48.833-27.715-73.12-41.486-.26-26.8-.519-53.612-.786-81.591,1.27.666,2.491,1.346,3.742,2.018Zm-3.47,83.17a6.074,6.074,0,0,1,.85.347q34.795,18.944,69.639,37.8a12.5,12.5,0,0,1,1.482,1.227,18.878,18.878,0,0,1-2.479,1.785q-6.191,3.347-12.386,6.685-18.92,10.185-37.812,20.408l-17.472,9.43a9.082,9.082,0,0,1-3.356.975,8.841,8.841,0,0,1-4.278-1.258c-21.846-12.05-43.849-23.843-65.8-35.74-1.115-.6-2.162-1.313-3.646-2.232a16.675,16.675,0,0,1,2.23-1.8q34.46-18.575,68.947-37.13a8.364,8.364,0,0,1,1.2-.535,5.905,5.905,0,0,1,2.88.044Zm-2.3-81.144c-.281,24.638-.605,49.275-.836,73.923a8.149,8.149,0,0,1-.425,2.6,6.5,6.5,0,0,1-2.18,2.685c-.148.1-.255.207-.42.3-.114.076-.242.151-.363.227-22.3,12.475-44.484,25.094-66.715,37.655-.841.476-1.772.852-3.138,1.455-.109-1.7-.232-2.751-.222-3.782.284-24.638.642-49.276.826-73.923a6.061,6.061,0,0,1,3.587-5.939c22.227-12.421,44.377-24.977,66.552-37.491.825-.466,1.765-.86,2.964-1.409a31.95,31.95,0,0,1,.373,3.7ZM818.094,62.081C840.518,49.99,862.982,37.965,885.373,25.8a8.43,8.43,0,0,1,3.55-1.142,7.575,7.575,0,0,1,3.561,1.06c22.19,12.152,44.484,24.148,66.731,36.2.993.542,1.955,1.215,3.484,2.191a16.81,16.81,0,0,1-1.73,1.508c-1.557.862-3.025,1.676-4.433,2.455l-19.173,10.34c-14.625,7.847-29.252,15.69-43.811,23.645a10.472,10.472,0,0,1-4.457,1.461,9.205,9.205,0,0,1-4.366-1.314C863.283,90.35,841.69,78.78,820.146,67.1c-1.527-.83-3.033-1.684-5-2.785a26.22,26.22,0,0,1,2.945-2.235Zm-4.062,3.906c1.644.809,2.969,1.414,4.187,2.11,21.592,12.233,43.123,24.557,64.788,36.688a6.986,6.986,0,0,1,4.239,6.953c.067,24.023.374,48.052.592,72.073.013,1.447-.115,2.913-.2,4.865-1.645-.812-2.976-1.423-4.188-2.105-21.584-12.239-43.129-24.56-64.794-36.685a7.009,7.009,0,0,1-4.219-6.966c-.073-24.019-.374-48.04-.592-72.082-.018-1.433.1-2.887.182-4.85Zm-1.441,85.139a9.12,9.12,0,0,1,4.221,1.276c21.732,11.967,43.618,23.706,65.443,35.535,1.263.682,2.467,1.447,4.068,2.4a13.12,13.12,0,0,1-2.108,1.93q-34.49,18.6-69,37.159a6.252,6.252,0,0,1-2.508.78,5.389,5.389,0,0,1-2.438-.707q-34.835-18.959-69.7-37.838a17.729,17.729,0,0,1-1.727-1.338c1.625-1.014,2.77-1.808,4.008-2.471,21.859-11.781,43.761-23.492,65.547-35.4a9.629,9.629,0,0,1,4.2-1.324Zm-.84-81.018c-.264,24.48-.592,48.968-.829,73.446a5.619,5.619,0,0,1-3.072,5.727c-22.508,12.579-44.929,25.31-67.379,37.984-.726.408-1.539.745-2.868,1.356-.057-2.188-.134-3.676-.121-5.14.284-23.866.649-47.72.775-71.587a7.43,7.43,0,0,1,4.366-7.44c21.983-12.2,43.819-24.638,65.714-36.992.847-.477,1.811-.869,3.081-1.432.151,1.578.344,2.839.334,4.077ZM665.284,62.637c.519-.287,1-.549,1.468-.8l9.718-5.231q12.35-6.649,24.7-13.292v0q16.208-8.715,32.406-17.443a8.389,8.389,0,0,1,3.134-1.084,6.164,6.164,0,0,1,3.1.838c22.6,12.357,45.3,24.577,67.955,36.854.821.449,1.554,1.015,2.783,1.828-1.35.9-2.306,1.645-3.355,2.218q-33.613,18.1-67.235,36.22a8.34,8.34,0,0,1-3.132,1.073,6.212,6.212,0,0,1-3.1-.845c-22.608-12.36-45.3-24.577-67.951-36.845-.775-.424-1.495-.968-2.832-1.862.976-.7,1.634-1.228,2.341-1.626Zm-3.515,4.176a129.685,129.685,0,0,1,12.407,6.081c20.36,11.566,40.373,22.927,60.494,34.339.254,26.954.507,53.777.77,81.675-6.391-3.628-11.713-6.657-17.025-9.67-17.375-9.867-34.729-19.781-52.164-29.526a6.648,6.648,0,0,1-4.062-6.579c-.084-24.026-.378-48.046-.6-72.066-.006-1.235.084-2.5.177-4.254Zm.651,84.581a10.562,10.562,0,0,1,1.639.7c22.046,12.091,44.193,24,66.3,35.974,1.1.6,2.136,1.332,3.994,2.484-3.834,2.113-6.893,3.835-9.978,5.506-20.02,10.776-40.078,21.494-60.038,32.373a9.013,9.013,0,0,1-4.544,1.313,8.712,8.712,0,0,1-3.406-1.153c-21.889-12.024-43.912-23.847-65.878-35.736-1.25-.683-2.434-1.47-4.109-2.473a32.926,32.926,0,0,1,3.279-2.334c22.087-11.917,44.233-23.763,66.291-35.768.122-.058.244-.119.364-.173.278-.147.539-.238.807-.359a8.205,8.205,0,0,1,5.274-.352Zm-3.177-85.062c.135,1.713.278,2.944.257,4.145-.271,24.154-.652,48.305-.785,72.45a7.065,7.065,0,0,1-4.216,7c-21.522,11.995-42.929,24.182-64.38,36.293-1.222.689-2.469,1.368-4.051,2.241-.166.042-.385.1-.621.168-.089-2-.209-3.416-.2-4.813.279-23.994.655-47.988.779-71.989a7.081,7.081,0,0,1,4.246-6.972c21.511-12.011,42.923-24.2,64.363-36.317.807-.458,1.622-.909,2.52-1.4.577-.289,1.2-.559,2.043-.955C659.209,66.23,659.226,66.275,659.242,66.331ZM514.053,61.8q13.437-7.234,26.873-14.476,6.481-3.482,12.954-6.977,13.707-7.379,27.408-14.764a9.894,9.894,0,0,1,1.038-.452,6.154,6.154,0,0,1,3.863-.153,8.844,8.844,0,0,1,1.321.566q33.506,18.306,67.111,36.4c1.087.585,2.079,1.341,3.727,2.426-1.915,1.047-3.266,1.809-4.613,2.545-21.849,11.768-43.728,23.475-65.513,35.353a8.6,8.6,0,0,1-4.108,1.19,8.982,8.982,0,0,1-3.842-1.2c-21.88-12.021-43.88-23.838-65.821-35.734-1.23-.65-2.357-1.479-3.921-2.478,1.452-.938,2.443-1.675,3.524-2.248ZM509.418,66.3c.389.1.769.187,1.115.267a23.666,23.666,0,0,1,2.227,1.079l66.414,37.622a5.6,5.6,0,0,1,3.325,5.538c.141,24.625.425,49.263.649,73.894.006,1.131-.162,2.278-.294,3.812-1.31-.59-2.374-1.02-3.31-1.551q-33.211-18.844-66.416-37.636a5.623,5.623,0,0,1-3.337-5.529c-.13-24.641-.4-49.266-.631-73.9,0-1.06.14-2.176.26-3.6Zm-1.454,84.707a6.885,6.885,0,0,1,3.333.957c22.316,12.21,44.728,24.275,67.1,36.409.966.509,1.872,1.144,3.249,2a27.1,27.1,0,0,1-2.724,2.024q-34.047,18.339-68.084,36.684a7.155,7.155,0,0,1-2.926.944,6.215,6.215,0,0,1-2.878-.828q-34.142-18.622-68.388-37.072c-.679-.375-1.295-.874-2.779-1.879,1.889-1.044,3.13-1.735,4.377-2.411q33.215-17.855,66.4-35.743a11.044,11.044,0,0,1,1.729-.765c.152-.052.3-.063.453-.1a6.21,6.21,0,0,1,1.136-.214Zm-.9-80.979c-.275,24.465-.622,48.926-.806,73.382a6.074,6.074,0,0,1-3.529,5.968c-22.351,12.485-44.619,25.112-66.922,37.69-.721.4-1.53.752-2.528,1.22a15.79,15.79,0,0,1-.5-3q.415-37.4.845-74.8a5.01,5.01,0,0,1,2.714-4.962q34.536-19.389,69-38.909a15.815,15.815,0,0,1,1.514-.554c.1,1.627.235,2.8.212,3.969ZM362.039,61.745c22-11.867,44.046-23.658,65.992-35.618a12.2,12.2,0,0,1,1.749-.774,8.355,8.355,0,0,1,1.171-.312l.076-.013a7.107,7.107,0,0,1,3,.185,11.092,11.092,0,0,1,1.968.839c21.886,12.028,43.912,23.854,65.882,35.756,1.244.666,2.4,1.463,4.069,2.481-1.362.954-2.281,1.754-3.327,2.327q-33.656,18.1-67.312,36.218a7.43,7.43,0,0,1-3.226,1,6.706,6.706,0,0,1-3.016-.891q-33.958-18.525-68.014-36.882c-.816-.433-1.541-1.041-3.086-2.087,1.862-1.034,2.96-1.646,4.071-2.232Zm31.294,24.67c12.195,6.861,24.343,13.811,36.652,20.806.249,26.967.509,53.765.772,81.653-24.981-14.182-48.895-27.747-73.114-41.495-.264-26.812-.523-53.648-.8-81.437,12.789,6.709,24.547,13.759,36.485,20.473ZM355.41,150.847a6.753,6.753,0,0,1,3.435.934c22.32,12.22,44.73,24.285,67.108,36.413.907.486,1.8,1.082,3.047,1.858l.19.164a23.454,23.454,0,0,1-2.736,1.985q-34.021,18.392-68.057,36.733a9.1,9.1,0,0,1-1.391.608,7.019,7.019,0,0,1-3.478-.135,7.875,7.875,0,0,1-.938-.392q-13.846-7.55-27.73-15.037v.12q-19.742-10.711-39.509-21.4c-1.116-.6-2.162-1.313-3.646-2.232a16.623,16.623,0,0,1,2.23-1.8q34.12-18.392,68.27-36.765a8.279,8.279,0,0,1,3.206-1.054ZM354.6,66.093c.094,1.9.237,3.344.221,4.763-.278,24.03-.629,48.031-.793,72.051a7.087,7.087,0,0,1-4.115,7.065q-12.8,7.145-25.543,14.39v.236q-20.081,11.342-40.152,22.7c-.94.531-1.96.922-3.615,1.665-.112-1.837-.247-2.916-.236-3.992.284-24.638.642-49.276.825-73.923a6.06,6.06,0,0,1,3.587-5.939q20.071-11.216,40.08-22.542v.011q12.937-7.294,25.878-14.586C351.832,67.373,353.023,66.845,354.6,66.093ZM208.554,62.081C230.978,49.99,253.442,37.965,275.833,25.8a6.915,6.915,0,0,1,7.6-.083Q303.861,36.9,324.369,47.961v.082l24.905,13.488c1.253.678,2.464,1.453,4.071,2.4a14.24,14.24,0,0,1-2.192,1.9q-13.393,7.227-26.784,14.444v.255Q304.4,91.241,284.5,102.057a8.425,8.425,0,0,1-9.313.147C253.743,90.35,232.151,78.78,210.607,67.1c-1.528-.83-3.033-1.684-5-2.785a26.162,26.162,0,0,1,2.945-2.235ZM204.5,65.753c1.9.951,3.322,1.575,4.667,2.343,21.591,12.233,43.123,24.557,64.788,36.688a6.989,6.989,0,0,1,4.239,6.953c.066,24.023.374,48.052.592,72.073.013,1.508-.128,3.022-.208,5.1-1.9-.954-3.33-1.588-4.667-2.34-21.584-12.239-43.129-24.56-64.794-36.684a7.007,7.007,0,0,1-4.218-6.966c-.074-24.019-.375-48.04-.593-72.082C204.289,69.345,204.416,67.844,204.5,65.753Zm3.258,86.649c21.733,11.967,43.619,23.706,65.445,35.535,1.263.682,2.467,1.447,4.068,2.4a13.107,13.107,0,0,1-2.11,1.93q-34.488,18.6-69,37.159a5.132,5.132,0,0,1-5.436.073q-34.834-18.959-69.7-37.838a17.693,17.693,0,0,1-1.727-1.338c1.624-1.014,2.77-1.808,4.008-2.471,21.859-11.781,43.761-23.492,65.548-35.4A8.078,8.078,0,0,1,207.761,152.4ZM202.7,70.108c-.264,24.48-.591,48.968-.83,73.446a5.617,5.617,0,0,1-3.071,5.727c-22.507,12.579-44.928,25.31-67.379,37.984-.816.458-1.7.807-3.353,1.578-.057-2.321-.141-3.845-.127-5.362.284-23.866.649-47.72.775-71.587a7.43,7.43,0,0,1,4.367-7.44c21.982-12.2,43.818-24.638,65.714-36.992.96-.541,2-.934,3.55-1.639C202.5,67.511,202.715,68.811,202.7,70.108ZM57.213,61.838Q90.627,43.86,124.039,25.867a6.186,6.186,0,0,1,6.723-.246c22.6,12.357,45.3,24.577,67.954,36.854.822.449,1.554,1.015,2.784,1.828-1.35.9-2.306,1.645-3.355,2.218q-33.612,18.1-67.235,36.22a6.2,6.2,0,0,1-6.723.228c-22.608-12.36-45.3-24.577-67.95-36.845-.828-.454-1.565-1.027-3.1-2.039,1.834-1.022,2.945-1.649,4.072-2.248ZM52.292,65.6c24.841,14.115,48.989,27.827,73.329,41.631.255,27.045.509,53.956.773,81.955-6.62-3.759-12.065-6.857-17.518-9.95-17.376-9.867-34.729-19.781-52.165-29.526a6.647,6.647,0,0,1-4.062-6.579c-.085-24.026-.378-48.046-.6-72.066C52.044,69.56,52.18,68.058,52.292,65.6Z" transform="translate(0 0)"/>
</svg>
