<svg xmlns="http://www.w3.org/2000/svg" width="1495.5" height="1702" viewBox="0 0 1495.5 1702">
  <defs>
    <style>
      .cls-1 {
        fill: #fff;
      }

      .cls-1, .cls-19 {
        stroke: #707070;
      }

      .cls-18, .cls-2, .cls-3 {
        fill: #434343;
      }

      .cls-15, .cls-16, .cls-17, .cls-2 {
        font-size: 35px;
      }

      .cls-12, .cls-13, .cls-14, .cls-15, .cls-16, .cls-17, .cls-18, .cls-2 {
        font-family: Pyidaungsu-Bold, Pyidaungsu;
        font-weight: 700;
      }

      .cls-12, .cls-13, .cls-14, .cls-3 {
        font-size: 32px;
      }

      .cls-11, .cls-3, .cls-5, .cls-7, .cls-9 {
        font-family: Pyidaungsu;
      }

      .cls-4, .cls-7 {
        fill: #0a9863;
      }

      .cls-10, .cls-11, .cls-4, .cls-6, .cls-7, .cls-9 {
        font-size: 36px;
      }

      .cls-10, .cls-4, .cls-6, .cls-8 {
        font-family: SegoeUI, Segoe UI;
      }

      .cls-6, .cls-9 {
        fill: #1a5fb9;
      }

      .cls-10, .cls-11 {
        fill: #0a0a5b;
      }

      .cls-12, .cls-15 {
        fill: #1bcc8a;
      }

      .cls-13, .cls-16 {
        fill: #0b0b74;
      }

      .cls-14, .cls-17 {
        fill: #347fe1;
      }

      .cls-18 {
        font-size: 34px;
      }

      .cls-19, .cls-20 {
        fill: none;
      }

      .cls-21 {
        stroke: none;
      }
    </style>
  </defs>
  <g id="Group_185" data-name="Group 185" transform="translate(-212 -334)">
    <g id="Rectangle_119" data-name="Rectangle 119" class="cls-1" transform="translate(212 334)">
      <rect class="cls-21" width="1495" height="1702" rx="12"/>
      <rect class="cls-20" x="0.5" y="0.5" width="1494" height="1701" rx="11.5"/>
    </g>
    <text id="_" data-name="စဉ်" class="cls-2" transform="translate(252 447)"><tspan x="0" y="0">စဉ်</tspan></text>
    <text id="_2" data-name="အတန်းအစား" class="cls-2" transform="translate(535 447)"><tspan x="0" y="0">အတန်းအစား</tspan></text>
    <text id="_3" data-name="အရွယ်အစား" class="cls-3" transform="translate(1255 392)"><tspan x="0" y="0">အရွယ်အစား</tspan></text>
    <text id="_4" data-name="(က) ထုတ်လုပ်မှုလုပ်ငန်း" class="cls-3" transform="translate(417 695)"><tspan x="0" y="0">(က) ထုတ်လုပ်မှုလုပ်ငန်း</tspan></text>
    <text id="_5" data-name="(က) ထုတ်လုပ်မှုလုပ်ငန်း" class="cls-3" transform="translate(417 1398)"><tspan x="0" y="0">(က) ထုတ်လုပ်မှုလုပ်ငန်း</tspan></text>
    <text id="_6" data-name="≤ ၅၀" class="cls-4" transform="translate(1116 696)"><tspan x="0" y="0">≤</tspan><tspan class="cls-5" y="0" xml:space="preserve"> ၅၀</tspan></text>
    <text id="_7" data-name="≤ ၅၀၀၀" class="cls-6" transform="translate(1094 1399)"><tspan x="0" y="0">≤</tspan><tspan class="cls-5" y="0" xml:space="preserve"> ၅၀၀၀</tspan></text>
    <text id="_8" data-name="&gt; ၅၀ ≤ ၃၀၀" class="cls-7" transform="translate(1419 696)"><tspan x="0" y="0">&gt; ၅၀ </tspan><tspan class="cls-8" y="0">≤</tspan><tspan y="0" xml:space="preserve"> ၃၀၀</tspan></text>
    <text id="_9" data-name="&gt; ၅၀၀၀ ≤ ၁၀၀၀၀" class="cls-9" transform="translate(1386 1399)"><tspan x="0" y="0">&gt; ၅၀၀၀ </tspan><tspan class="cls-8" y="0">≤</tspan><tspan y="0" xml:space="preserve"> ၁၀၀၀၀</tspan></text>
    <text id="_10" data-name="&gt; ၅၀၀၀ ≤ ၁၀၀၀၀" class="cls-9" transform="translate(1386 1510)"><tspan x="0" y="0">&gt; ၅၀၀၀ </tspan><tspan class="cls-8" y="0">≤</tspan><tspan y="0" xml:space="preserve"> ၁၀၀၀၀</tspan></text>
    <text id="_11" data-name="&gt; ၃၀၀ ≤ ၆၀၀" class="cls-7" transform="translate(1419 811)"><tspan x="0" y="0">&gt; ၃၀၀ </tspan><tspan class="cls-8" y="0">≤</tspan><tspan y="0" xml:space="preserve"> ၆၀၀</tspan></text>
    <text id="_12" data-name="≤ ၃၀၀" class="cls-4" transform="translate(1106 811)"><tspan x="0" y="0">≤</tspan><tspan class="cls-5" y="0" xml:space="preserve"> ၃၀၀</tspan></text>
    <text id="_13" data-name="≤ ၅၀၀၀" class="cls-6" transform="translate(1094 1508)"><tspan x="0" y="0">≤</tspan><tspan class="cls-5" y="0" xml:space="preserve"> ၅၀၀၀</tspan></text>
    <text id="_14" data-name="≤ ၃၀" class="cls-4" transform="translate(1116 920)"><tspan x="0" y="0">≤</tspan><tspan class="cls-5" y="0" xml:space="preserve"> ၃၀</tspan></text>
    <text id="_15" data-name="≤ ၁၀၀၀" class="cls-10" transform="translate(1116 1728)"><tspan x="0" y="0">≤</tspan><tspan class="cls-5" y="0" xml:space="preserve"> ၁၀၀၀</tspan></text>
    <text id="_16" data-name="&gt; ၁၀၀၀ ≤ ၃၀၀၀" class="cls-11" transform="translate(1401 1728)"><tspan x="0" y="0">&gt; ၁၀၀၀ </tspan><tspan class="cls-8" y="0">≤</tspan><tspan y="0" xml:space="preserve"> ၃၀၀၀</tspan></text>
    <text id="_17" data-name="&gt; ၅၀၀ ≤ ၁၀၀၀" class="cls-11" transform="translate(1409 1808)"><tspan x="0" y="0">&gt; ၅၀၀ </tspan><tspan class="cls-8" y="0">≤</tspan><tspan y="0" xml:space="preserve"> ၁၀၀၀</tspan></text>
    <text id="_18" data-name="&gt; ၁၀၀၀ ≤ ၂၀၀၀" class="cls-11" transform="translate(1401 1903)"><tspan x="0" y="0">&gt; ၁၀၀၀ </tspan><tspan class="cls-8" y="0">≤</tspan><tspan y="0" xml:space="preserve"> ၂၀၀၀</tspan></text>
    <text id="_19" data-name="&gt; ၅၀၀ ≤ ၁၀၀၀" class="cls-11" transform="translate(1410 1998)"><tspan x="0" y="0">&gt; ၅၀၀ </tspan><tspan class="cls-8" y="0">≤</tspan><tspan y="0" xml:space="preserve"> ၁၀၀၀</tspan></text>
    <text id="_20" data-name="≤ ၃၀" class="cls-4" transform="translate(1116 999)"><tspan x="0" y="0">≤</tspan><tspan class="cls-5" y="0" xml:space="preserve"> ၃၀</tspan></text>
    <text id="_21" data-name="≤ ၅၀၀" class="cls-10" transform="translate(1116 1807)"><tspan x="0" y="0">≤</tspan><tspan class="cls-5" y="0" xml:space="preserve"> ၅၀၀</tspan></text>
    <text id="_22" data-name="≤ ၃၀" class="cls-4" transform="translate(1116 1089)"><tspan x="0" y="0">≤</tspan><tspan class="cls-5" y="0" xml:space="preserve"> ၃၀</tspan></text>
    <text id="_23" data-name="≤ ၁၀၀၀" class="cls-10" transform="translate(1116 1897)"><tspan x="0" y="0">≤</tspan><tspan class="cls-5" y="0" xml:space="preserve"> ၁၀၀၀</tspan></text>
    <text id="_24" data-name="&gt; ၃၀ ≤ ၆၀" class="cls-7" transform="translate(1436 999)"><tspan x="0" y="0">&gt; ၃၀ </tspan><tspan class="cls-8" y="0">≤</tspan><tspan y="0" xml:space="preserve"> ၆၀</tspan></text>
    <text id="_25" data-name="&gt; ၃၀ ≤ ၁၀၀" class="cls-7" transform="translate(1431 1090)"><tspan x="0" y="0">&gt; ၃၀ </tspan><tspan class="cls-8" y="0">≤</tspan><tspan y="0" xml:space="preserve"> ၁၀၀</tspan></text>
    <text id="_26" data-name="&gt; ၃၀ ≤၆၀" class="cls-7" transform="translate(1441 1185)"><tspan x="0" y="0">&gt; ၃၀ </tspan><tspan class="cls-8" y="0">≤</tspan><tspan y="0">၆၀</tspan></text>
    <text id="_27" data-name="≤ ၃၀" class="cls-4" transform="translate(1116 1186)"><tspan x="0" y="0">≤</tspan><tspan class="cls-5" y="0" xml:space="preserve"> ၃၀</tspan></text>
    <text id="_28" data-name="≤ ၅၀၀" class="cls-10" transform="translate(1116 1994)"><tspan x="0" y="0">≤</tspan><tspan class="cls-5" y="0" xml:space="preserve"> ၅၀၀</tspan></text>
    <text id="_29" data-name="&gt; ၃၀ ≤ ၆၀" class="cls-7" transform="translate(1436 920)"><tspan x="0" y="0">&gt; ၃၀ </tspan><tspan class="cls-8" y="0">≤</tspan><tspan y="0" xml:space="preserve"> ၆၀</tspan></text>
    <text id="_30" data-name="လုပ်သားဦးရေ" class="cls-12" transform="translate(362 595)"><tspan x="0" y="0">လုပ်သားဦးရေ</tspan></text>
    <text id="_31" data-name="လွန်ခဲ့သောနှစ်၏ တစ်နှစ်ဝင်ငွေ" class="cls-13" transform="translate(362 1632)"><tspan x="0" y="0">လွန်ခဲ့သောနှစ်၏ တစ်နှစ်ဝင်ငွေ</tspan></text>
    <text id="_32" data-name="မတည်ရင်းနှီးငွေ" class="cls-14" transform="translate(362 1298)"><tspan x="0" y="0">မတည်ရင်းနှီးငွေ</tspan></text>
    <text id="_33" data-name="(ယောက်)" class="cls-15" transform="translate(569 597)"><tspan x="0" y="0">(ယောက်)</tspan></text>
    <text id="_34" data-name="(ကျပ်သိန်း)" class="cls-16" transform="translate(780 1630)"><tspan x="0" y="0">(ကျပ်သိန်း)</tspan></text>
    <text id="_35" data-name="(ကျပ်သိန်း)" class="cls-17" transform="translate(594 1300)"><tspan x="0" y="0">(ကျပ်သိန်း)</tspan></text>
    <text id="_36" data-name="၁။" class="cls-3" transform="translate(252 595)"><tspan x="0" y="0">၁။</tspan></text>
    <text id="_37" data-name="၃။" class="cls-3" transform="translate(252 1632)"><tspan x="0" y="0">၃။</tspan></text>
    <text id="_38" data-name="၂။" class="cls-3" transform="translate(252 1298)"><tspan x="0" y="0">၂။</tspan></text>
    <text id="_39" data-name="(ခ) လုပ်အားအခြေပြု ထုတ်လုပ်မှုလုပ်ငန်း
     (သို့)လက်ခစားလုပ်ငန်း" class="cls-3" transform="translate(417 783)"><tspan x="0" y="0">(ခ) လုပ်အားအခြေပြု ထုတ်လုပ်မှုလုပ်ငန်း</tspan><tspan x="0" y="55" xml:space="preserve">     (သို့)လက်ခစားလုပ်ငန်း</tspan></text>
    <text id="_40" data-name="(ခ) လုပ်အားအခြေပြု ထုတ်လုပ်မှုလုပ်ငန်း
     (သို့)လက်ခစားလုပ်ငန်း" class="cls-3" transform="translate(417 1486)"><tspan x="0" y="0">(ခ) လုပ်အားအခြေပြု ထုတ်လုပ်မှုလုပ်ငန်း</tspan><tspan x="0" y="55" xml:space="preserve">     (သို့)လက်ခစားလုပ်ငန်း</tspan></text>
    <text id="_41" data-name="(ဂ) လက်ကားရောင်းဝယ်ရေး" class="cls-3" transform="translate(417 923)"><tspan x="0" y="0">(ဂ) လက်ကားရောင်းဝယ်ရေး</tspan></text>
    <text id="_42" data-name="(က) လက်ကားရောင်းဝယ်ရေး" class="cls-3" transform="translate(417 1731)"><tspan x="0" y="0">(က) လက်ကားရောင်းဝယ်ရေး</tspan></text>
    <text id="_43" data-name="(ဃ) လက်လီရောင်းဝယ်ရေး" class="cls-3" transform="translate(417 1008)"><tspan x="0" y="0">(ဃ) လက်လီရောင်းဝယ်ရေး</tspan></text>
    <text id="_44" data-name="(ခ) လက်လီရောင်းဝယ်ရေး" class="cls-3" transform="translate(417 1816)"><tspan x="0" y="0">(ခ) လက်လီရောင်းဝယ်ရေး</tspan></text>
    <text id="_45" data-name="(င) ဝန်ဆောင်မှုလုပ်ငန်း" class="cls-3" transform="translate(417 1092)"><tspan x="0" y="0">(င) ဝန်ဆောင်မှုလုပ်ငန်း</tspan></text>
    <text id="_46" data-name="(ဂ) ဝန်ဆောင်မှုလုပ်ငန်း" class="cls-3" transform="translate(417 1900)"><tspan x="0" y="0">(ဂ) ဝန်ဆောင်မှုလုပ်ငန်း</tspan></text>
    <text id="_47" data-name="(စ) အခြားလုပ်ငန်း" class="cls-3" transform="translate(420 1187)"><tspan x="0" y="0">(စ) အခြားလုပ်ငန်း</tspan></text>
    <text id="_48" data-name="(ဃ) အခြားလုပ်ငန်း" class="cls-3" transform="translate(420 1995)"><tspan x="0" y="0">(ဃ) အခြားလုပ်ငန်း</tspan></text>
    <text id="_49" data-name="အသေးစားလုပ်ငန်း" class="cls-18" transform="translate(1040 492)"><tspan x="0" y="0">အသေးစားလုပ်ငန်း</tspan></text>
    <text id="_50" data-name="အလတ်စားလုပ်ငန်း" class="cls-18" transform="translate(1395 492)"><tspan x="0" y="0">အလတ်စားလုပ်ငန်း</tspan></text>
    <line id="Line_34" data-name="Line 34" class="cls-19" x1="1495" transform="translate(212.5 537.5)"/>
    <line id="Line_39" data-name="Line 39" class="cls-19" x1="1495" transform="translate(212.5 1228.5)"/>
    <line id="Line_40" data-name="Line 40" class="cls-19" x1="1376" transform="translate(331.5 1132.5)"/>
    <line id="Line_56" data-name="Line 56" class="cls-19" x1="1376" transform="translate(331.5 1940.5)"/>
    <line id="Line_41" data-name="Line 41" class="cls-19" x1="1376" transform="translate(331.5 1035.5)"/>
    <line id="Line_57" data-name="Line 57" class="cls-19" x1="1376" transform="translate(331.5 1843.5)"/>
    <line id="Line_42" data-name="Line 42" class="cls-19" x1="1376" transform="translate(331.5 951.5)"/>
    <line id="Line_58" data-name="Line 58" class="cls-19" x1="1376" transform="translate(331.5 1759.5)"/>
    <line id="Line_43" data-name="Line 43" class="cls-19" x1="1376" transform="translate(331.5 866.5)"/>
    <line id="Line_52" data-name="Line 52" class="cls-19" x1="1495" transform="translate(212.5 1569.5)"/>
    <line id="Line_44" data-name="Line 44" class="cls-19" x1="1376" transform="translate(331.5 733.5)"/>
    <line id="Line_53" data-name="Line 53" class="cls-19" x1="1376" transform="translate(331.5 1436.5)"/>
    <line id="Line_45" data-name="Line 45" class="cls-19" x1="1376" transform="translate(331.5 633.5)"/>
    <line id="Line_62" data-name="Line 62" class="cls-19" x1="1376" transform="translate(331.5 1670.5)"/>
    <line id="Line_54" data-name="Line 54" class="cls-19" x1="1376" transform="translate(331.5 1336.5)"/>
    <line id="Line_35" data-name="Line 35" class="cls-19" y2="1014" transform="translate(331.5 334.5)"/>
    <line id="Line_55" data-name="Line 55" class="cls-19" y2="695" transform="translate(331.5 1340.5)"/>
    <line id="Line_36" data-name="Line 36" class="cls-19" y2="203" transform="translate(980.5 334.5)"/>
    <line id="Line_37" data-name="Line 37" class="cls-19" y2="110" transform="translate(1344.5 427.5)"/>
    <line id="Line_46" data-name="Line 46" class="cls-19" y2="590" transform="translate(1344.5 638.5)"/>
    <line id="Line_64" data-name="Line 64" class="cls-19" y2="590" transform="translate(980.5 638.5)"/>
    <line id="Line_61" data-name="Line 61" class="cls-19" y2="464" transform="translate(1344.5 1569.5)"/>
    <line id="Line_65" data-name="Line 65" class="cls-19" y2="363" transform="translate(981.5 1670.5)"/>
    <line id="Line_63" data-name="Line 63" class="cls-19" y2="232" transform="translate(980.5 1337.5)"/>
    <line id="Line_48" data-name="Line 48" class="cls-19" y2="233" transform="translate(1344.5 1336.5)"/>
    <line id="Line_38" data-name="Line 38" class="cls-19" x1="727" transform="translate(980.5 427.5)"/>
    <path id="Union_13" data-name="Union 13" class="cls-20" d="M-5999,98h687a20,20,0,0,1,20,20V672a20,20,0,0,1-20,20h-687a20,20,0,0,1-20-20V118A20,20,0,0,1-5999,98Z" transform="translate(6999 537)"/>
    <path id="Union_15" data-name="Union 15" class="cls-20" d="M-5999,0h687a20,20,0,0,1,20,20V345a20,20,0,0,1-20,20h-687a20,20,0,0,1-20-20V20A20,20,0,0,1-5999,0Z" transform="translate(6999 1670)"/>
    <path id="Union_14" data-name="Union 14" class="cls-20" d="M-5998,97h684a20,20,0,0,1,20,20V307a20,20,0,0,1-20,20h-684a20,20,0,0,1-20-20V117A20,20,0,0,1-5998,97Z" transform="translate(6999 1240)"/>
  </g>
</svg>
